<mxfile host="app.diagrams.net" modified="2021-04-03T12:18:54.082Z" agent="5.0 (X11)" etag="YvRb9EthjI5yz1wBQD42" version="14.5.6" type="github">
  <diagram id="xVIZoYxbZl7sPGtg3QTq" name="Page-1">
    <mxGraphModel dx="2249" dy="742" grid="1" gridSize="10" guides="1" tooltips="1" connect="1" arrows="1" fold="1" page="1" pageScale="1" pageWidth="827" pageHeight="1169" math="0" shadow="0">
      <root>
        <mxCell id="0" />
        <mxCell id="1" parent="0" />
        <mxCell id="mzXIlhKpgWSKDu0hdf_g-8" value="" style="shape=image;verticalLabelPosition=bottom;labelBackgroundColor=#ffffff;verticalAlign=top;aspect=fixed;imageAspect=0;image=data:image/png,iVBORw0KGgoAAAANSUhEUgAAASoAAAEjCAYAAACFNUznAAAABHNCSVQICAgIfAhkiAAAHRlJREFUeF7tnVuMJFd9xv9169vMzm1v3pvXxg43czHXQCB5QUqEQKAgRYoUEFFkiQdQJBAIeOAtrxE88MADicRDpEiQKFIekghFKDGSDdg4BowBr/Flvbtjz32mp7uqu6o657SZ2Z1pE7D7K6WG+R2rLU3t9Nf/8/uf81XNaPd8wcgNY0AAAhCoMYGwxrVRGgQgAIExAYyKhQABCNSeQLyxsTEusixLG7n/LAhkRQfByHRqZv6H1NFIqeim6uTEip7isR2h67l6vPjLCW2X1FX66sKglE7dr/VSvjqPwHovRzY/P29JkuzzDD7ykY+Me/bcjWuWBgNrzLVEsEfWiYbukU3XvKIMbavfsXKkexCMwtKaraFozi/KjA1Vqmjm514I5+3L8xtLbSzzcd8aQSGbvefYLVvSDVs6A+gPG7IavZBf6+eaO1LNrbxpq4MZqWYSFpZEuv744vy6dN4iGWVe2nCzb3//ta/bO9/+jn3N+OMf//j4i7/92ldsOdqxs+85J/nA0G3VO2eXXQMHEj0v0k1b9l+P32FZftNppxXvdFK7dHllWpkD7/d3wUL85JdmLdt2L+XoJANrxtpF+/qFJ+y2xpaszNxtgh/1L1mvbMo002Fs19ZOS43/dbMr9me3PyGr0Qs9sHHJ/mn5klTz9EzX5ju7Us3dvGF5EUs005Udu/ovT1g6TA/oxR/60IfGF/7xP75la/HQbnvPnZIPjNzd+vWLpc25O6xqbOzO2iPR66030N0N5xZ27cIbOqoSxzr+ju03mHKs9mZs5F7KMd9KrZNonybvPbtmr2rrzG84iqy3fd62i7Zs6t1B05afu91y95SqGpeWOvb+ex5TyY11+sun7d+ffK1U89TChl2c35Rqbg7a1hc9PHSfXrPr3/6ZBeHB3ug6JZ06YhCAAARuEsCoWA0QgEDtCWBUtW8RBUIAAhgVawACEKg9AYyq9i2iQAhAAKNiDUAAArUngFHVvkUUCAEIYFSsAQhAoPYEMKrat4gCIQABjIo1AAEI1J4ARlX7FlEgBCCAUbEGIACB2hPAqGrfIgqEAAQwKtYABCBQewIYVe1bRIEQgABGxRqAAARqTwCjqn2LKBACEMCoWAMQgEDtCWBUtW8RBUIAAvsnsud5ZGvuTHK7flpCpRHm9pdLD9sd7XWJnhe5ns/bN60wZSJTL23Y4zduk9XohS6c2LQ3nL4u1XzTzFXrWCbVnItTa4faM9OfSM/aj3sXZHXG7uz9t8w+azOhLiTkRm/eHsouW55rAgn8ZAdZaP2RLnHJazYbfbu8pNs/XnO2kcnP81/bnLX1ruY8/2wlt+EgHucO3Dr2O1WWgWWDxHZ2NUknTWdUC0FmZyNd4sUgbFgozqLKi8g2e7rgAA/3TGvbfGyUcpyJt+1Mokt38bWdCFNrBVqjemT3dnsmPSmbessZ6fvmH7fTiS6Kqhy4TVAENip0P1D4/ZO/GEAom3vkYq1mm9qbk4/LUmdjZlliuz1NStDQPTiUPnTjUPyWrlOy9iAEAQhA4CABjIoVAQEI1J4ARlX7FlEgBCCAUbEGIACB2hPAqGrfIgqEAAQwKtYABCBQewIYVe1bRIEQgABGxRqAAARqTwCjqn2LKBACEMCoWAMQgEDtCWBUtW8RBUIAAhgVawACEKg9AYyq9i2iQAhAAKNiDUAAArUngFHVvkUUCAEIYFSsAQhAoPYEMKrat4gCIQABjIo1AAEI1J4ARlX7FlEgBCCAUbEGIACB2hPYD3cIo5G12wNbWOhJik5cuMNOENhqkUj0vMhWGFrn/K7lw0Km6c+Rd2fTS8coCmy70AZGnI83XVBGV1pnZKVFLuVFOdZX5+y5zVMyyWaU2xOzt9l6yyUkicZ6OWPnT2/YoNSl0LRnM3t8oElw2pvmxqhlJxu6cBSvu5Ts2mKs2eN7db7m0g0rzmqeeVZciMe/trfNh1DcOvY7FbgMqkZzaDOzqWQ5JEFh/SC07TKS6HmRXafXXOpbu9BtrsI5VenSd5Rj5Ka8WzSUkha5WI5FlxqjHLmLJCrtYCzRtPo7Wx1bXZmfVmb//Y04t2uXF60X6Xj2R4mdXOhaMdJsLl9sszGwZ4e6eXvN7qhhc4m257c1tu1cY1PWHy+0NNN1cWaatJynegO738WEReHBPa7rlHTqiEEAAhC4SQCjYjVAAAK1JxB/6UtfGhf52KM/tvL1J2pfMAVCAALHj0A8M/NiFHMcu19XuV9+MyAAAQjUjUD8hS98YVzTI8/8zL4fXK1bfdQDAQhAwPgdFYsAAhCoPQGMqvYtokAIQACjYg1AAAK1J4BR1b5FFAgBCGBUrAEIQKD2BDCq2reIAiEAAYyKNQABCNSeAEZV+xZRIAQggFGxBiAAgdoTwKhq3yIKhAAEMCrWAAQgUHsCGFXtW0SBEIAARsUagAAEak8Ao6p9iygQAhC4Ge7gzkxvuYP055t9CZXYnZnuX/4sdtVoRkO7e27F+qXu/OxWMLQz8ZaqxLHOyJ3tnke6s+K9Zn8U29Vceyb3Yth3Z10PpXO/88ILls0L73/uiLQn01MWZCdldcYuOOB0q+uODtGtzd1+07712DtkNXqhxbldO3dSe76535PtcCCts1u2XDaCJsxkpUhtMFq3kTvP/9ZxINzBN9CnfiiGBxK6hJNAuBh8YsqiO/i9M9JtrhNRaq9uPa+Y8r7GlkugWR4uSDVzt622y6ZU84RbsJFpF+3CiZ6ddgECqlG6BXt1d8EGhS4xZiYe2KWZTWkCj08d+tnqOdW0xzp3hityo/J70u9N5fAPDqkLzFCMXlmOQzcO30KEtz5FmWhAAAIQmCSAUU0y4QoEIFAzAhhVzRpCORCAwCQBjGqSCVcgAIGaEcCoatYQyoEABCYJYFSTTLgCAQjUjABGVbOGUA4EIDBJAKOaZMIVCECgZgQwqpo1hHIgAIFJAhjVJBOuQAACNSOAUdWsIZQDAQhMEsCoJplwBQIQqBkBjKpmDaEcCEBgkgBGNcmEKxCAQM0IYFQ1awjlQAACkwQwqkkmXIEABGpGAKOqWUMoBwIQmCSAUU0y4QoEIFAzAhhVzRpCORCAwCQBjGqSCVcgAIGaEdg/Mb/l0kjuaK3Zu+aelJToHTC1xJ6XJqcE9q7OVad8MKFimoKHTmuz1BxMv1fH8xsL9sizr5qmrIn33nV22crbtPeVtjvkv2GaMI+9gs81NyxxaUGqkZeRdYcN2811wRYdF+4wE2Uu3OFwhMArr/rszLa9/fLTr1zgJd7ppm5Pbp16iT955ZeSMrdWqO35fNSzU2H6you65Z09F7aS+PSqQ/EO+0bVDHK76BbZvbMaExi5j1otTthu0ZJMwIv4aKd3t29YQ5iisVJ07P7eRVmNXmh1e84ef/KSVDOMSps9qYky2yvsVLRjJ8KetM4zybbNxbo6B6PIrvRPuwgyzbr0k+1EAxcZNZSm0CTt3DrntYk+T+8s2aPrF6T9mU/6ttjS9ccXtxR1bTHaldS56ZKRYp9edajd2lu0pFREIAABCBwkgFGxIiAAgdoTwKhq3yIKhAAEMCrWAAQgUHsCGFXtW0SBEIAARsUagAAEak8g/vznPz8u8pGHf2L3vFf390pqP3MKhAAEjgyB+OzZs+NiW+3WxN9dODKzoFAIQOB3mkD8mc98ZjzBJ55+wKxx43d6skwOAhA4mgT4HdXR7BtVQ+BYEcCojlW7mSwEjiYBjOpo9o2qIXCsCGBUx6rdTBYCR5MARnU0+0bVEDhWBDCqY9VuJguBo0kAozqafaNqCBwrAhjVsWo3k4XA0SSAUR3NvlE1BI4VAYzqWLWbyULgaBLAqI5m36gaAseKwH64g5+1D2Rwx6pLAJSj0J7pnbSdQpceshSn9getF1y2je6Uh6Gr7ylXp3KMmiN7212aNJ+9us4ubbpAAm14wAvDOdvJdeEbvta14YxlI12qTzkKrBXlFgpDKHw4SN8lD4XCFJr0RmBr92vv+4u3b9sH37CjXJq2PWrYE9unpZqXF9esk2iSbVquN+HYiQ6OA0ZVuj/z36YYbmnZj7Yv2PODOYXcWONCY8c+unjFmqHOqNKibY9uaxNj7uqs2Afe+rBs3l4odZs/Fcd6PZOetJXBCWmd61nHsuLAsppKP3KJJPfM37BTwggub35dl46kW0VmOz83e+pvlIpm7/vosv3V+7U3vL+79nb7h+V7p+rJ4Te/u/OUzc1obqKzLsorco9L/rHp1qFxpcOV8zUEIAABIQGMSggTKQhAoBoCGFU1XFGFAASEBDAqIUykIACBaghgVNVwRRUCEBASwKiEMJGCAASqIYBRVcMVVQhAQEgAoxLCRAoCEKiGAEZVDVdUIQABIQGMSggTKQhAoBoCGFU1XFGFAASEBDAqIUykIACBaghgVNVwRRUCEBASwKiEMJGCAASqIYBRVcMVVQhAQEgAoxLCRAoCEKiGAEZVDVdUIQABIQGMSggTKQhAoBoCGFU1XFGFAASEBDAqIUykIACBagjsn8L/YgJNaLlLj1GMwuksNXZtIk5iCvHFpGfbZWhFoAsPSF2BC0l/iqom3zobZ9YINKkce+qBO+w+DovJD5viyrlky+aCbAqFybc2R/PWKxqTf/AKrwQuKcavzWEZvUKFl35b7NJOlKOxGFj7ndoam3eGlgSa/bg312Y0snYyVE7d1opZezLVJNtcHaQuyGTXRi6A49ZxwKgGo9jFCGnirXyGxFsWrpo3LNXwi+sXLt4qLHRxTDuu0DfMX1eVONY5Fe/YvDDeyWvGLo1Fvbne3nrOToTaRfuD/kVbKWZkPP36+aXbBNsuLUg1EreOzjS3x7FMqpG8sWHZVzsqubHOyZmmzQaa/bhX2FIzt7OzXWmdD6WX7X+yixLNrY0NW8m3bDg6aPo6F5GUiQgEIACBSQIY1SQTrkAAAjUjgFHVrCGUAwEITBLAqCaZcAUCEKgZAYyqZg2hHAhAYJIARjXJhCsQgEDNCGBUNWsI5UAAApMEMKpJJlyBAARqRgCjqllDKAcCEJgkEH/6058eX334B4/a7/1hOfkdXIEABCDw/0wgvuuuu8YlPPLYrIWB+7d5DAhAAAI1IxB/6lOfGpf041/cb/3GSs3KoxwIQAAC5v5dJgMCEIBAzQlgVDVvEOVBAAI8UbEGIACBI0CAJ6oj0CRKhMBxJ4BRHfcVwPwhcAQIYFRHoEmUCIHjTgCjOu4rgPlD4AgQ2D8zvXAH6KdlYluF5txnfxr1jXTeBqUuiGEmyuyOZM0deK8LTojcYffnkw1pqzrhwEplqoWrzp9nn7mXcpwMc3kIxcUkswVhxoEPdXg2NesdOux/Gg6Jyw2YCTPpmem+zu5Qe775dh7beqk7190z6xahpU5XObKB0xOV2e2nlrsafaDHreOmUblD9LfcAfrXhwuSOZRuYf1o+4J1c13zziQ79idzP7VZZ1iqUVjPliLtYffpKLGdsqUqcazjNdNSl+7iNS/GQ2sH2nCHtzR3LDLdv3DouRvdA93bbf3QYf/Twc3HPfeBGarhN/9qOquSG+vcaDTs2VyblvPCMLSdgW5P+jq7vZaNzUowBpuFZY6l949bBz/6CeAiAQEIVEsAo6qWL+oQgICAAEYlgIgEBCBQLQGMqlq+qEMAAgICGJUAIhIQgEC1BDCqavmiDgEICAhgVAKISEAAAtUSwKiq5Ys6BCAgIIBRCSAiAQEIVEsAo6qWL+oQgICAAEYlgIgEBCBQLQGMqlq+qEMAAgICGJUAIhIQgEC1BDCqavmiDgEICAhgVAKISEAAAtUSwKiq5Ys6BCAgIIBRCSAiAQEIVEsAo6qWL+oQgICAAEYlgIgEBCBQLQGMqlq+qEMAAgICh05kD1RhEuPSFpKetUNdeMCJOLXl4by1Cp1mHBQ2F/cEKG9K+GPpCxeWoRybWcdeyOaUknY56Nkg0gUx+OLcsfwmDIyx3OkVTtC/VCMtYntud8ml0OjCHVYGJ8ahBMqx64JR1gptYESvaFpRatdmJxlYJxpIpt5vprYe+gyng7E2+2R9PI1PfihFG8x/0LsWn5LGMfWKhv3zxltsKEwkuaO5Zn9x8nsSyHsiPi2mV2qTPr6/cqf95/XXSets3/0dO9lYk2rOuRuTj6NSjX5ZWs9HPBWJStI2hh37zvKrpRs2CEcWx9rEmJ+HZ63T1t2UPcAr/TPWy7RpRvecumHnZrYl/VkfbNlaI7PI8bx1aK1VUioiEIAABA4SwKhYERCAQO0JYFS1bxEFQgACGBVrAAIQqD0BjKr2LaJACEAAo2INQAACtSeAUdW+RRQIAQhgVKwBCECg9gQwqtq3iAIhAAGMijUAAQjUngBGVfsWUSAEIIBRsQYgAIHaE8Coat8iCoQABOJPfvKTYwoP/+CHduo9EUQgAAEI1I5A/KY3vWlc1I+u/NDCsFu7AikIAhCAQPyJT3xiTOGBn/y3XYt/AhEIQAACtSPA76hq1xIKggAEDhPAqA4T4WsIQKB2BDCq2rWEgiAAgcMEMKrDRPgaAhCoHYEDsRk++0GVnuLDHQZlLE0kGYxcxsk4gEKXHjAsI9suWtLG7GRt2+1pNQeZCzc4eN791DV7joXLYlGO0TjZRVuouud+vp14IFvrXi8MSkvE4Q6JS0jK3B5SDtX+vrWm8ToShcL4tKGXWj37FHL3QdvDll3vz2u4OC9ZTucmYm+mEc9d+sxKNis1qp1By57tv2+asibeO/hlx/oPLk5cn+bC6rnYivPav+e26dJYrhfaCK5O0LVWoExOCWxr0LbVbGYafAfeO+NM6oOv+rFFzlxUoxHkdiJKVXJjnad6p+zh1UtSzd6w4RJedPP2xe043whEU9/OhuYfHspDbnUzLutXriiLonIfNDTtxvKu7V/KJyqvl5ba7LS817HBulYznXdAXXSUcvi5D0V3wr26XupuOFXNTnCv71PpHHrzXCM1n+moGt6o5qO+Sm6scy3NrS+MCfOauTjTz2v6pyCVrn9g8j/Z2fh1c2if+w9I8wUEIAABDQGMSsMRFQhAoEICGFWFcJGGAAQ0BDAqDUdUIACBCglgVBXCRRoCENAQwKg0HFGBAAQqJIBRVQgXaQhAQEMAo9JwRAUCEKiQAEZVIVykIQABDQGMSsMRFQhAoEICGFWFcJGGAAQ0BDAqDUdUIACBCglgVBXCRRoCENAQwKg0HFGBAAQqJIBRVQgXaQhAQEMAo9JwRAUCEKiQAEZVIVykIQABDQGMSsMRFQhAoEICGFWFcJGGAAQ0BDAqDUdUIACBCgnshzs0wtxua27ZPbPXJR9XuEPkH3jwHtva1qWHWNMd+353z4JYFyEwHMTW3WxL5rwnMj+X2bk/vSrVjKxtg6Aj1VwLZuxKdlaquTw4aYkw3cUnD802U7s90QVbdMKBdcLMRY/oNH0YwU6hXUdJVNrl2Q1pf66vLtry2gmp5nIa2VpTkzyUbhY2yF3M3qFIvH2jilyaVjsa2kLSk0wizyPLNprWXdUZVdAprHVHZoEw7mfo6uz1mpI574nMLmbWvrQr1Wx0Q4t2tHVmFss3V9etI13qogvecWpJVNiMMxfVaDstlxApjcvySTk+d1I5Avfzzkyim7evLRqNLM+0dY7cTSQT5UMOXJxXWU5m+/Gjn3JloQUBCFRCAKOqBCuiEICAkgBGpaSJFgQgUAkBjKoSrIhCAAJKAhiVkiZaEIBAJQQwqkqwIgoBCCgJYFRKmmhBAAKVEMCoKsGKKAQgoCSAUSlpogUBCFRCAKOqBCuiEICAkgBGpaSJFgQgUAkBjKoSrIhCAAJKAhiVkiZaEIBAJQQwqkqwIgoBCCgJYFRKmmhBAAKVEMCoKsGKKAQgoCQQf/WrXx3r/eLnV2zpXuWJh8oy0YIABI4zgfjKlSvj+e/sdG2x1B3xe5yhMncIQEBLIP7KV74yVrzvr//ctpsPyc67Dtx5tI04t0Yjl1UcJrnNuOOSA3eWtGrEkdmuq1M5GlHuOBZKyfGxuWGgvZH4Y35zd4SucoTio4j9wca+zsNnaE9Tc+nO4/bz9rqq4TWVer4ur+mPOFYOJcf9uhzGQLQ2f11H9g9Pbge5nUrW7b1tzab1gNM/atnGUBdIMBcP7Y9PXbNWqDOBG8O2ffu2c8q1YIuNXbvYXpdqPhxetkx8JveNbN5WVrUH/S80++aNWjW8UWWFP+H81y3hl/9JoQvKWM1mhYpmLXcDPdPaefnF/B/veG53wX66oQ3f2B20bORCUpSj3R5Ys60Jd+i33enrkev6IePbNyp/f2k5s5pz6RyKUbjD3hfnu2aFzlQW3GK4s71lbeHTSuLM72Qu3qxRzxZiTUjGXi86ceZCDrQLbFhGlhaJot37Gk331Fv6x2nhGLpEI21khFk60s67cLY3dIk5ypGVsfVzbZ3jJ2jR08/eXMNwZJEocCVyWpPRDiaKjlB2By0IQAAChwhofwAGLwQgAIEKCGBUFUBFEgIQ0BLAqLQ8UYMABCoggFFVABVJCEBASwCj0vJEDQIQqIAARlUBVCQhAAEtAYxKyxM1CECgAgIYVQVQkYQABLQEMCotT9QgAIEKCGBUFUBFEgIQ0BLAqLQ8UYMABCoggFFVABVJCEBASwCj0vJEDQIQqIAARlUBVCQhAAEtAYxKyxM1CECgAgIYVQVQkYQABLQEMCotT9QgAIEKCGBUFUBFEgIQ0BLAqLQ8UYMABCogsB/u4A993yobdq3QpMaUTm+3TKTJKcOytMgd8x4JD6cvXbLLynBWijYxHxOmC7XwxZ1vbdmb55+T1vncNzu2/r2GVDP9aMMGd7V0mi7cZPRvbk1u6u6pZRJY/0zTRqEuhKJ7KrX0Xm0Qw9rmrKWrbR1Lp+QjuFy6g1Szt962LND0fPBC34pBZKPyYI37RuXjiDKXotF15qIYXs+ncihzyXyyTeD+8/9XjdLV2HcGrRx+3j7VRzlmo8xON12qj3CsPxvY1ve1WYHFB5qWu3Qb2Ri6fl9x/Xlep1k0XZRb2pYaVV64pJxBXzZtL9TLmlb097eoRHvkoqjc3V468mHswqY0e3LYT5xJTd6UJq9Ip4AYBCAAgekJYFTTM0QBAhComABGVTFg5CEAgekJYFTTM0QBAhComABGVTFg5CEAgekJYFTTM0QBAhComABGVTFg5CEAgekJYFTTM0QBAhComABGVTFg5CEAgekJYFTTM0QBAhComABGVTFg5CEAgekJYFTTM0QBAhComABGVTFg5CEAgekJYFTTM0QBAhComABGVTFg5CEAgekJYFTTM0QBAhComABGVTFg5CEAgekJYFTTM0QBAhComABGVTFg5CEAgekJYFTTM0QBAhComED85S9/efwRP3n0KYs6sTXCpuQjfWTAWt5zAQ+ZRM+LtMLCdhtNS4KXH5yQZZkFQeDSYQ4GOWy4sJin0xVZjV5oLUrtWqzhuFdY1yXwdMuXF+4wHA4tz3Nrt186yWRjJbPdM+LwgB+um10TpgfkjsBWw4JDqSS/rmFFUbjghtRabs5R+NL34XIQ2OiGm7cmj2BcSrldWNbVhjtYltjM7m8OHhmNRpb2U0uSxOLkN/RTH0LjJu9QjtNtph/Z1pY1BwMLy4OhI/H169fH6q+++80Wx2+zZHdu+k/7lcI5mdJNodX0lYk+9NBD1mw27Y1vfOOEwGsmrkx5wW8unT+Pi1n41evlVHblyhV7fnnZ3vve33/Jt118s7vsX3Ue3vPe8dsXuLKyYt/73mP2jrf+oc3Pz//2b6zjd3rPmfnNhQ3cxv7uY9+1u+++226/cP43v6HG35GfPG2bS6fs1NLSgSoD58bavKSaQvjiF79oS27yn/vc52paob6sb3zjG3b//ffb17/+db14TRUffPBB++xnPzue82tf+9qaVqkta3Nz0+677z772Mc+Zh/+8Ie14jVR+18fdq/6KH8h+gAAAABJRU5ErkJggg==;" vertex="1" parent="1">
          <mxGeometry x="550" y="90" width="225.29" height="220" as="geometry" />
        </mxCell>
        <mxCell id="mzXIlhKpgWSKDu0hdf_g-5" value="" style="shape=image;verticalLabelPosition=bottom;labelBackgroundColor=#ffffff;verticalAlign=top;aspect=fixed;imageAspect=0;image=data:image/png,iVBORw0KGgoAAAANSUhEUgAAAR4AAAEdCAYAAADaXQh4AAAVyUlEQVR4nO3deVDXd37HcTrT6e4mnXZn09n1Cl4oKqIoICrKoRyiHMrlAaIQwRsQL1QUwQMVtSrRJB6bjcaNGuMR432LIKAgIHKD4JHsVk07uzNtp53Oq390dqZ/dLczv31nxtrnH8//f3w/Px7fz/z+eTm9fP1Kjvbq+5d6bdir1y/18tUr216/0ivj/pxn9n89y/P+7+f+pp/Rq9ev9P33/2Da69cvf5AzetOf5cuXL+XkNWGUHGuk/CZ5KmDSMLPGhnlqSMBYDfb3N2to4FiNCBtpmveEkfIybljIaA0JHmOaR8hoDQ8dZVrgJA+FhrubFRLurtETvTVy4gizRoT5yD1orGk+oSM1OdLNtMCJw80/5/CQ0fIJ8zHNa4Ld98djvI/cPIfIybtgohzJpyBMs4qGaf4+N7Nm7vSUc+pM/SI5xazeC2fIb1uwaWO2hWjU1lDTBudHyXnNVNMGrJ+ioRsjTVv44UBt2N/NrNxPemjKrlEK3Rlglv/WIHVfMV1dlieYFZgXoqOfvmfaop0e6rpihmlD8iIVWDjetBEFYfLYGGHSgIwAvdvzZ3KKuLNQjjS5eL621oXqo0Y/szZXTtTg3QXqU7jDLI8D+Zp+b45pU0tTFVMy1zT/q1lyO7vWtNGXlyvoRqZpBx776np7f7MutQ3U8ocxmvsg0ayE0g/keiJPfY9tMCvpSqq+f9HdtIOVwXI5kW/auCtLlFSebFpk8QIF38wwadSnifqbQV2AB3iAB3iAB3iAB3iAB3iAB3iAB3iAB3iAB3iAB3iAB3iAB3iAB3iAB3iAB3iAB3iAB3iAB3iAB3iAB3iAB3iAB3iAB3iAB3iAB3iAB3iAB3iAB3iAB3iAB3iAB3iAB3iAB3iAB3iAB3iAB3iAB3iAB3iAB3iAB3iAB3iAB3h+EHjcjq2XIw07kaMzj0eoutPFrAt1nhq2e6P6btthVv+iLfI4lWPapKuLtLI62rS86okqrB5v2id1vjpcP8K0tVURSr8fb1bWg1gdaRyhU80eZu2t9pfrkXz1/LTArGnn5urF866mHXk0RuOvZZoWdWe+ZpR9YJrvuRUa+EWeSX22LdRPXHrIyfnQFjlSv0836lb9UH33vKtZFfWD5Llrg/pu3WFWn12F6vX5JtNCLqRrc12YaQcbffV122DTbj5x0b2OnqYtuR+rqOL5Zk0tmaPzLW6q6HA262TdMLn+aoOcD241K/7sPHU+62Lar+tHmT7LqOL5ii1JM7/he51c45AR/1Nd85foR32cgQd4gAd4gAd4gAd4gAd4gAd4gAd4gAd4gAd4gAd4gAd4gAd4gAd4gAd4gAd4gAd4gAd4gAd4gAd4gAd4gAd4gAd4gAd4gAd4gAd4gAd4gAd4gAd4gAd4gAd4gAd4gAd4gAd4gAd4gAd4gAd4gAd4gAd4gAd4gAd4gAd4gAd4gAd4gAd43g54hny1To7keXq1zjV46FGns1lXGwdr7IlsDT263iz3L9ar/0nbgi9nKLsm2rRfNY5SeUcv0x50OOthZw/TZl1MkecXa80afWKVdtWM15EmH7N2145T4Pks+Z5bYdasm8m61OZu2t7HgUopTzJtWVWMNtWGmba+fJLWFkeYNO9wgLq7/VROoy6vkCP5XVmqE43DVfKkt1lnmoYo6FqGRl5eYZb3xWzzvaqgaxlaXDXNtCONI9X8tItp9Z1dVdfZzbToY4vUc892s/rt26Ll5bGmt8e1NZGKLUnTlLvzzEqrSND+xjGmba0LVWZVvGnb64J1tNnbtIttA3XnSR+TPrvcQ27DfgQ8wAM8wAM8wAM8wAM8wAM8wAM8wAM8wAM8wAM8wAM8wAM8wAM8wAM8wAM8wAM8wAM8wAM8wAM8wAM8wAM8wAM8wAM8wAM8wAM8wAM8wAM8wAM8wAM8wAM8wAM8wAM8wAM8wAM8wAM8wAM8wAM8wAM8wAM8wAM8wAM8wAM8wPODwDPh1mI5UvjtBTrVNFSlHb3Mutg6UPMqZmhW2Wyz5pYnaG1luGk5VZHKrpli2v6GMbre7mpaVYezmp52NW1pcbwmXUy361K6om/PU8yduWZNvTtH8x/M0MIH082aXTxbIV8tMW3q1TRzeHY9HqdTrUNN+7JlmI63DDdp+4VB6ufxjpwcndGIuZumM83uptMpV9pctap6irIexpmVWxth/gbY1+CndbWRpu1r8NPp1iGmVXT0VuvTLqZtqA7X7PLZZiWVJSvw+hL5XlluVsiNDC17GKuV1dFmzbyVIudPtpnmf3q5OTx76gPMZ5KONnvrUNNok/K/8VCfoX8NPMADPMADPMADPMADPMADPMADPMADPMADPMADPMADPMADPMADPMADPMADPMADPMADPMADPMADPMADPMADPMADPMADPMADPMADPMADPMADPMADPMADPMADPMADPMADPMADPMADPMADPMADPMADPMADPMADPMADPMADPMADPMADPMADPMDzdsBTUBMiR9paE6JjzcN1pnWIYUN1ttlLZ5u9zTrZPEIHG0ebllsaqYhjmaZl3pymDxsCTLvU5qbqjvdNO9jgqy2PQs3aWDNR0cVzFXoz3awpxfOUWxuh/EfhZi27H6voSwtMm3x1gSJu2rb8QbT5DM/xluE62+puUtHFfnL1+ImcLrYNlCNdaBukw80+ZhIeahqtYy3e6nzWQ98972pWbWdf7W3wN23hpUS5bNphWtSX6cqpjTLtWLOn6e5ZyZPe+rrVXSdahpv1ebO3ZpfNMt3ASriXoi11E1T4OMSsgroJ5rfcpJLZGnpujWmJd5NNN8o214XpZIuH/a4W8AAP8AAP8AAP8AAP8AAP8AAP8AAP8AAP8AAP8AAP8AAP8AAP8AAP8AAP8AAP8AAP8AAP8AAP8AAP8AAP8AAP8AAP8AAP8AAP8AAP8AAP8AAP8AAP8AAP8AAP8AAP8AAP8AAP8AAP8AAP8AAP8AAP8AAP8AAP8AAP8AAP8AAP8AAP8ADP2wDP+bZBcqRzrYO1oXqiVlROMWtLTZiePuupV8+7m1XZPkjLKqNNW3AzQVOPLTAt/foMbaoLM23P40AdqPc1bUtNiPKqJ5mV+zBc8+4nKKUiyax59xOUWxuhvEfhZq26EqG0tZNNyzgQrTX3YkxbXDpdyaVJph1tGKEHHc4mHb/SVe7D/kpOjm7tnGodorg7qfK7ttSs6XfS9PxpP/3+hbNZJS2eCr6ZYdq88hk63Oxj2v6mMdrTEGja0oexSipPNi38zkLTZznh1mItfRhretNbXTNZSw232bIexim1KE5BfxFrWsHMMfrt866mbS6PkNvZtabtrx6r5qddTDp/7e/kMewvgQd4gAd4gAd4gAd4gAd4gAd4gAd4gAd4gAd4gAd4gAd4gAd4gAd4gAd4gAd4gAd4gAd4gAd4gAd4gAd4gAd4gAd4gAd4gAd4gAd4gAd4gAd4gAd4gAd4gAd4gAd4gAd4gAd4gAd4gAd4gAd4gAd4gAd4gAd4gAd4gAd4gAd4gAd4gAd43g54TrUOkSN92eKhuWUzFFecataCsgTVd7iq81kfs663eCnubpppyypjdKzF07QjzSP0y6ZRpm2vC1ZedYRpqWWJSihJMSuxNFlZD+O0sjr6jW7h5zGK8Ik3bec6P33/ortpOx6Ey+tCtmkFlWG62Oxu0scX+mmAx0/kdLTZW470ebO3Pm4ca7pX9UnjGJ1pG+LQDeyPdbTZy3TmJO9RuPY2+Du0RfanutruqptPXEyr7XxfT551Me1Es5fpme+pD1RmVbzmP0gwK71ymjbWTTTdlsqpidKc+zNN+6w+WP/2bR/TPn00QZPuLDItpmSeppammjThaKzeG/xz4AEe4AEe4AEe4AEe4AEe4AEe4AEe4AEe4AEe4AEe4AEe4AEe4AEe4AEe4AEe4AEe4AEe4AEe4AEe4AEe4AEe4AEe4AEe4AEe4AEe4AEe4AEe4AEe4AEe4AEe4AEe4AEe4AEe4AEe4AEe4AEe4AEe4AEe4AEe4AEe4AEe4AGeHwSefQ3+cqS9Df7KeRipFZXRZuVVT9LltoG60d7PrPNtbjrQ6Gva0WZvnW8bZJybvjGutrOXXjzvalrpE3ddafMy63yLj5ZVxSvtfqJZ6ZXT9Pf147W7fpxZebXhmlY6x7Si2jD95nlv04qqJ2r8jUzTgq5lKuiqTSMPztTfDuwipz9nQiT89kIFXM8yK/5Oqsrae6uus5tZNZ3dda+jp2k3n7iY3sq+bhusE63DzCdzqjv7m68Y/Mu3vUzf0P/0vL9yHsYppWKWWemV0/RZk49DN/k/1tbaEAXdyDRt9YMoVXQ4m7b2frhGXFpp2qBTuep7bINJ729frB/36wE8wAM8wAM8wAM8wAM8wAM8wAM8wAM8wAM8wAM8wAM8wAM8wAM8wAM8wAM8wAM8wAM8wAM8wAM8wAM8wAM8wAM8wAM8wAM8wAM8wAM8wAM8wAM8wAM8wAM8wAM8wAM8wAM8wAM8wAM8wAM8wAM8wAM8wAM8wAM8wAM8wAM8wAM8wAM8wPN2wLOmNkqOtLpmshJLkxVXnGbWB/dm6kyThy61uJl1rXWA+eHeeuKi061DTNv/2Fcbq8JMu93irt88727a714465+/7WXWq+cuWlUVr1nls81Kq0jUpqowFVSFmpVVFquxV5aZllEWr4ttg0xbWhYjzwurTPM6t0peZ21yK0rVu67d5LSqZoocaXXNZH3YEKD9jWPM2vV4nJLKkjX93hyzVlVNMb1B1XV20512F9O36dFmb825lajev95k2o6KIPO//emzrvruuV3tT52VcX+a2W7T1NJURd5eoH7H89Xni41m9T2+Qa5frTdtwrXFDv3v/amibs7XwNO5psUWp2lx1TSTEr4MUxf394AHeIAHeIAHeIAHeIAHeIAHeIAHeIAHeIAHeIAHeIAHeIAHeIAHeIAHeIAHeIAHeIAHeIAHeIAHeIAHeIAHeIAHeIAHeIAHeIAHeIAHeIAHeIAHeIAHeIAHeIAHeIAHeIAHeIAHeIAHeIAHeIAHeIAHeIAHeIAHeIAHeIAHeIAHeIAHeN4OeFZUx8iRVlZHa+fjIBXVB5i1rS5EifdSTL+Eyx7EqrS9j2nnG9y1v3KsaUmXk9X76CbTCsuDVdPZw7TOZ93M4VlcMV1xJWlmRd5eoKFf5WjwyXVmDfkqR55nV5kWcX2Bsh7GmRZ+Y6E5PNF35mpB5QyTpp2YqF+4vyenxHspcqiyFM0qm63ZZbPMSryXotBb6Qq+mWHWxFuLFV+catrkzzIUOn+9aZ75G+V8cItpa+5G6WL7INNanjrrt8+7mtX+tKeS7qYo8PoSs8JvL9Sah1FaVx1h1saaMO2uCzQtsyJO/lezTPO+kK3BZ9eaFnw9QzElc00KPhKnn7n9XE6Wt4s/t9iSuQq6malxN5a80fl9tEYjp243zS27UM77t5qWXTzFfHiw2Rqezp5KKJ4jv2tLzQq/vVBbH4dqR32QWUUNAeaDiyseTDEf3xv2zWpzeMZdy1RU8XyTAg9P1U/dfgE8wAM8wAM8wAM8wAM8wAM8wAM8wPNGBDzAAzzAAzzAAzzAAzzAAzzAAzzAAzzAAzzAAzzAAzxvADjAAzzAAzzAAzzAAzzA86YFPMADPMADPMADPMADPMADPMADPMADPMADPMADPMADPG8AOMADPMADPMADPMADPMDzpgU8wAM8wAM8wAM8wAM8wAM8wPO/wJNfO0mOlFsdoZCPs+WzbYNdu/M08vxKjbq8wiyvc6s14MgG03yO5mjysQzTfI9lq9/xfNNS7yZqZ/140/Y3+OvTxrFmHWgI0NyKRCWWpZiVVpGoooYA7WvwM8xfexsCTFvzMEpxd9NM8z2zUn0PFZg26Ph6DT2zxiTXPWl6x7W7nPY0BMqRdj4Kkn9BrtyW7jRr8NpCeZ1dLe+L2WYNPb1Wzp9sM83rRI7p6OD0e3MUeHWJBpzKNS3p7mzlPQo3Lf/RJG0wLO9RuBZVTtfcB4lmZVbF66MGP9OxyY8a/LSrfrxpOTVRml0+2zS/0yvUc1+haX0Ob1Lf4/kmvb9jkX7crwfwAA/wAA/wAA/wAA/wAA/wAA/wAA/wAA/wAA/wAA/wAA/wAA/wAA/wAA/wAA/wAA/wAA/wAA/wAA/wAA/wAA/wAA/wAA/wAA/wAA/wAA/wAA/wAA/wAA/wAA/wAA/wAA/wAA/wAA/wAA/wAA/wAA/wAA/wAA/w/P+A56NGfzlSUV2gggvXaNiqbWZ55m+W/zfLFXBlqVmjvs6Wy6HNpo3+KltJZcmmBV3L0KDT60xLvJustbWRpuXWRmi9Ybm1kVpQOUNp92ealV45VUX1Adrb4G9WUX2AdtYHmba6erJmlqWYNvbUSnt4jmySy4k8k5z/AM+jzp5ypOqO3iosD9PquzFmbSmLVFWrp+rbPcy63jRK2RXRpm2tDtXRJm/TsipiNfbqUtPGX89U6I1006aWpGpmWbJZiWUpiitJU0zJXLPiStI0o/QDJRj2QXmSVtVMMW1mSbI8v1ll2oBjeXI+tNU0t5O5Gn5+tUkD96XqnQHd5dT5rIscqf1ZNx1sHKvCxyFmHWgM1D++cNG/ftvbrJanbqaf8b8+5xidb3MzLacqwn6G59pS+V5Zblpk8QLFlaaZNrl4ntl8yh+KuLPQtGmlc7SsOta0+OJUDTqzzjSXLzbI+ZdbTHM/tc7sp4/BH8/RuwO6AQ/wAA/wAA/wAA/wAA/wAA/wAA/wAA/wAA/wAA/wAA/wAA/wAA/wAA/wAA/wAA/wAA/wAA/wAA/wAA/wAA/wAA/wAA/wAA/wAA/wAA/wAA/wAA/wAA/wAA/wAA/wAA/wAA/wAA/wAA/wAA/wAA/wAA/wAA/wAA/wAA/wAA/wAA/wAA/wvB3wlHb0kSPdfeKi3fXjtLFuoln76oP0uxf99e/f9TWrqXOoVlRHm7br8ThdbR9g2r56Py2pjDMtLnuWxgemmhZyaKEm3Eq362q6QrOyFZqy2qzguWs0Zm2+fHM3mBVYtEaTi+ebNvbccvU5WGBarwNb5Hxgq2l9Dxao/6HNJvXKz9CP+7wvpyvtrnKkS+0DtP1xsOlYXFF9iH7/wlX/8Z2LWQ0dw7W4appphXXBut7e37TDTT7aXBdm2qwZ8Qp5N8m08dsX2d7MLmQpKHKdgnzyzAr02yCvWdvlmbzDLJ+cTQq4nmWa58kc9SwqNM15n+14pfMn29Tzw0L12r3dpO6rlulHvXoCD/AAD/AAD/AAD/AAD/AAD/AAD/AAD/AAD/AAD/AAD/AAD/AAD/AAD/AAD/AAD/AAD/AAD/AAD/AAD/AAD/AAD/AAD/AAD/AAD/AAD/AAD/AAD/AAD/AAD/AAD/AAD/AAD/AAD/AAD/AAD/AAD/AAD/AAD/AAD/AAD/AAD/AAD/AAD/C8FfD8J514RtCa+3kQAAAAAElFTkSuQmCC;" vertex="1" parent="1">
          <mxGeometry x="495" y="140" width="225" height="225" as="geometry" />
        </mxCell>
        <mxCell id="mzXIlhKpgWSKDu0hdf_g-1" value="" style="shape=image;verticalLabelPosition=bottom;labelBackgroundColor=#ffffff;verticalAlign=top;aspect=fixed;imageAspect=0;image=data:image/png,iVBORw0KGgoAAAANSUhEUgAAAZgAAAEbCAYAAADnH5IjAAAAOXRFWHRTb2Z0d2FyZQBNYXRwbG90bGliIHZlcnNpb24zLjMuNCwgaHR0cHM6Ly9tYXRwbG90bGliLm9yZy8QVMy6AAAACXBIWXMAAAsTAAALEwEAmpwYAAEAAElEQVR4nOx9dVhVWfv2vc+hG2mUDgFFxU5sHbvGUceeUccZG1sRAbu7Y8xxdIyxuxULDEBEurs7Dqzvj+NaszfnHMCa931/n/d1ecnZHWuvp++HI4TgG77hG77hG77hS0P0n76Ab/iGb/iGb/i/iW8C5hu+4Ru+4Ru+Cr4JmG/4hm/4hm/4KvgmYL7hG77hG77hq+CbgPmGb/iGb/iGr4JvAuYbvuEbvuEbvgqU/tMX8LkwNDQk1tbWMsuTkpJgYmKC9PR0mJqa1upYqampAAATExMAQFpaGrS0tFBQUABjY+PPus6srCzo6upCLBYLlkdGRsLOzo5ds7m5OZKTk2FiYgKRSCj/ExISoKamBkNDQ7nnyM7ORnZ2NmxtbZGXl4e0tDTY29sDAAghCAsLQ/369T/rPvh4//49TExMoKen99H70vR4juOq3S4pKQlmZmbIzMyEjo4OVFRUPuo8JSUlUFNTq3G7iooKmXcjD5WVlUhJSYGOjg4qKyuho6PzUdfzDV8WdHykpKTAzMzsXzsvIQQFBQXQ1tb+187534qAgIAMQoiR3JWEkP/pf82aNSPy4OXlJfi/Nli0aBFZuHAh+71kyRJCCCELFiwQbHflyhUSExPDfldWVpI7d+6Qw4cPyz1uWVkZGTVqFNm+fbvMuiZNmshc8+7du0liYqLMtkuWLCFz584VHDcsLIxUVFSQ8vJy4uHhQby8vIhEIiHr168nM2bMIGVlZYQQQsLCwkibNm1IbGys3Gs8e/as3OWKUFRURFauXEmWL19O4uPjP2pfQgjZt28f8fX1rXE7+g7++usvEhgY+NHn6dmzp9xnWRVt27YlWVlZNW43bdo0smbNGhIeHk6OHDny0dfzfxV0nP3b+JTv/Evg9OnTpG/fvv/qOf9bAcCfKJifa3SRcRxXwXHca94/a47jOnEcl/vh9zuO45Z+2NaA47i7HMcVcBy3vZpj8vd/zXHcrQ/LN/GWhXEcl/MpEpUQIlczvnz5ssJ9CgsLoaGhASMjI6SnpwvWNWjQAM+ePQMhBIsXL0ZxcTG2bt3K1t+8eRPh4eFIT09HdHQ0AGDLli3Izc0FAFy8eBG//fYbYmNjUVFRAQD4/fffcfToUURFRclcS506dZCVlSVYVlFRAZFIhMaNG+P169fw8/PDqVOncOHCBfj6+mLx4sUYO3Ys6tevj7CwMOTm5qJr164ICAgAADx8+BA+Pj64ffs2CCEIDw9nx5ZIJFixYgVevHhR7XPlIz4+HpaWlujbty+ePn1a4/bXrl1DSUkJACAvLw9RUVGwt7fHrVu3anU+fX19ZGdns9/0WDXByMhI7nunz62wsBBhYWHo0qUL/vzzzxqP5+fnB11dXZiYmDCLtza4c+cOCgoKar39l8LSpUuRkZHxVY5Nx9aDBw8wceLEr3KO/0YUFBTg+fPnaNGiBcrLy/9j11FSUoKIiIj/2Plrg9rEYIoJIU14/2I+LH9ICGkCoDmAURzHNQVQAmAJgDm1OO5D3jG7AQAhZBZdBmAbgLM1HSQvL0/wOyYmBjk5OcxtQ3hMBQsWLMDbt2/Z7zVr1sDb2xtr167F3bt30blzZ/Tt2xeXLl0SHPPHH3/EiRMncODAAfTt2xeDBw9Ghw4dcPPmTQDSyXPixIkYOXIkLl68iKioKBQUFMDT0xN79+7FnTt30Lp1a/Tt2xe+vr7YuXMnxGIxwsPDIRKJUFxcLDifgYEBMjMzBctCQ0Ph5OSEIUOG4M8//8SGDRvw8uVLzJ49G97e3lizZg0aNWqEpk2bsg+/ffv2ePToEQAgKioK3bp1Q0REBC5duoRZs2axZ/P48WMsXboUf//9t+CcFRUVOH78OPsdFhaG2bNnAwDi4uJgaWmJBg0aIDg4mJ1D0TvasWMHbty4AQDYtWsXpk6dihEjRuDRo0fw9/cXbB8WFoYbN24gNzeXuaD09PSQk5MDACgrK0P//v1l9quK9PR0tGjRggl9igcPHiAjIwM//vgjdu/ejfPnz2PWrFmIiYmp9niFhYWIjIyEnp4ec51WRUFBAVavXg0fHx/2DnNzc3Hs2DHs378fFRUVGD58ONuXL6T4Y/VLIT09HTt27Kj19pWVldixY0eN15KSkoJFixbhzJkzOHPmDJycnARj9s6dO5BIJHL3ra1y8N+K69evY/jw4XBwcPiiE3xoaCj7u7KyUvA3Hft8BAQEfNS7/U/gs4P8hJBCAAEA7AkhhYSQR5AKms/FCAAnatqooqICK1asAABkZGRg+PDhSElJYXEUsVgMiUSCwsJC/PDDDzh06BAAqSBSU1ODt7c32rZti5UrV6Jly5ZwcHBAYGCgYHITiUTo378/MjMz0aZNGwDAgAED8OLFCyxcuBAtW7YEx3EwNTVFSkoKTp48iSlTpmDr1q3o1asX5s6dC47j4O7ujp9++glt27bFmDFjMH78eKioqODgwYPMsgHkWzAvX75Es2bNoKamBkdHRwQFBUFZWVnmeTg6OiIwMBBqamrQ19cXDEyO40AIwZ07dzBkyBBmPdy9exc9evSApqYm/P39kZCQAAB4/fo17ty5g127dmHjxo04e/Ys1NTUUFlZyQSMkpISKioqQAjBhAkT5FozO3bswJ49e/D06VPk5+ejpKQE5ubmAKQa9pUrV/D48WMAYNbhjRs3EBISAhcXFwBCC2br1q3Yvn07jhw5IvgQqyIoKAiNGjWCmpoaE+KEEJw9exbjx4+Hvb09CgoKkJiYiDp16qBhw4bYu3cvrly5gt9++w1Xr14FADx79gzp6emIiIiAgYEBdHV12bOsipcvX8LNzQ0zZ87EunXrsHPnTqxcuRKrVq1CRkYGNm/ejMGDB+P48eOIj4/HhAkTcPLkSWzbtg0jR45kVm9lZSVGjBjxWUInKysLdnZ20NHRkRH+lZWV2LhxI1MOKPbv3w9lZWVs3ry52mOfPn0a+/fvR1RUFCZOnIjhw4fj5MmTAKSxyzNnzmDmzJky4xgAhg8fLjMxSyQSnDp1qtpz7t27F0lJSey3Ik9FbVBaWvpJ+wHAu3fv0KBBA4Fy9bmQSCQYPXo0ACA4OJjNaW/fvsXUqVMxd+5cmX1evnyJoqKiL3L+qsjLy/si1lltBIw6z211rupKjuMMALQG8FZ212rRgXfcxVWOaQXABsCdmg6ir68PjuOQn5+PO3fuoGXLlnj06BEL7FtZWSEuLg4xMTFwdHREy5YtsXHjRuzcuRMTJkwAINX0r169CiUlac5Dv379sGLFCjg5ObHzdOnSBfPnz+dfIxYtWoRRo0bh+++/Z8sNDQ2RkZEBPT09cBwHCwsLWFlZsfVWVlZo0qQJAKkm3rlzZ2hqamLOnDlMyFhaWuLmzZvYtGkTgoKCQAhBREQESwYYO3YsMjIy5AbsRSIRwsLC0LBhQwBAkyZN4OHhwSb0rl27YujQobh//z5u3rwJQghKS0uhqqqKyZMnIzIyEitWrAAhBA8ePMDatWthb2+P77//HgsWLICdnR3i4uKQmJjIjqmsrIwXL15gwoQJOH36NADpx3/s2DF4enrC3t4e5ubmUFFRwd69ezFmzBjBc1yyZAkePXqEFStWYO7cuZg/fz5cXFxw9uxZNGjQAMA/FkxZWRlycnLg6OiIH3/8EUeOHBHcPyEES5cuRXJyMgIDA+Hq6opu3boxYXrlyhX07duXTUxTp05l72/kyJFo37491NXVsX37dty5cwdXr17F7du3sXPnTpw+fRrW1tZyBTsgVXBiYmJgb28PXV1drF69Gn379sWgQYNgYmKCiRMnorKyEj/88AMiIiKwY8cOnDhxAiKRCE2aNMG2bdvg5eWF0tJSnDhxAoaGhnj37p3cc9UGz58/R6tWrfDrr79iw4YNbFItLS3F/Pnz0bFjR5w6dQp+fn4AgPDwcKSlpWHSpEmwsbHB0qVLsXHjRgBSK+zhw4fs2AkJCbCwsMDcuXPRsGFDWFtbIyoqCuXl5Th06BC8vLzg7e2NXbt2Ca6prKwM9evXx4EDB1BUVITt27eDEILz58/jzJkzMveQkpKCW7du4dWrV3j8+DFevnzJ1mVlZaFOnTo1Pofo6GiBmzQ9PR1dunSp1vrYv38/1q9fL7OcEILy8nKoqKigfv36eP/+PTIzMzFjxgwAUsutJuEsD7GxsVBVVUV0dDTOnz/PFI1nz55h3rx5MDc3l1E20tLSYGVlJeMB+RI4e/YsXr9+/dnH+VgX2SDe8g4cx70CcAPAakLIxwoYvotsRZV1wwGcJoRUyNuR47hJHMf5cxznn56ejp49e+L69esICgrC0qVLsXv3bmbBUDM2OjoaNjY2GDp0KAYOHMg0dgpdXV0EBQUhMTERXbp0QXx8PJydnWu8iQYNGjDBBAA//PCDYAKtDnl5ebC1tYW5uTk8PDzQunVrAFILZufOnRg9ejSCg4Mxc+ZMpKamsqyywsJCTJ48WcaNBgCJiYmwtrZmQuz777/HsmXLMHbsWABSAVNUVITMzEz07dsXPj4+GDBgADvvsGHD4O7ujqCgIGRmZsLAwADdu3eHpaUlAMDZ2RkhISGQSCRsom3UqBGWLVuGQYMGwc3NDQsWLICHhwcsLCywfPlyDB06FADQo0cPvH79GjY2NoJr5jgO8+fPx4QJE7B9+3ZYWFhg6NChOH36NCwsLNj7yc3NRUxMDBP8rVu3RkxMDBITE/H+/XscP34c8+bNQ+vWrXH06FFkZWXBwMAArVu3ZpPogwcP0LVrV3ZuAwMDtG/fHoBUOLu4uKBz584QiUSYN28e/P39sXDhQnh5eeHx48cwNzcXvG8+PD09ERsby64ZkCoL9L1aWVkxTbR3795wcnKClpYWhg4dig4dOsDAwACzZs3CnDlz8OrVK3h6elYbo8rJycGpU6cUWjkvX75E06ZNoaamhrlz58LDwwPXrl3D7NmzMXXqVDRr1gw+Pj54/Pgxdu/ejd27dzMlauDAgfDx8WEWyK1bt7B+/XqUlpYiLCwM8jI3f/nlF8yaNQu5ubkwMTGBoaEhKioqkJmZicWLFyMhIQHPnz9Hp06dUK9ePUybNg1aWlq4cOECnjx5gpSUFABSbT4uLg4AcODAAeTk5ODMmTPYtm0bQkJC2PmePXuGZs2ayVzHgwcPsH//fuY+v3fvnsA6On78OP744w9s3bpVYBHxERMTg6ZNm8oIC09PT/a3qqoqysrK8Oeff8LU1BSPHj3ChQsXkJqaWmvtn7rsw8PDMXv2bFy4cAEFBQXQ0NAA8I8rmnpHqqJZs2bMJc5HTk4O7t27V6trACBzjIyMDJlY9Kfgc1xkDwkhboSQZoSQ3dVtyHHcIJ610rwWxx6OatxjhJC9hJDmhJDmRkZGaNq0KV6+fInKykoYGBjAxMSECRh7e3uEh4cjOjoatra2AABbW1t069ZNcMyoqCj4+vriyZMnAIBjx44xi+FjUK9ePTRu3LhW21IBk5GRAQsLC/Tt21ew3tDQEE2bNsWUKVOwePE/Rl5sbCyaNm2K/Px8wfbJycmYNm0aVqxYwQQCAGhqagqE6atXr2Bvbw93d3d4e3uzCZCib9++OHfunNy0XWdnZ7x79w6EEBYUb926NczNzaGuro4ff/wRvr6+2LRpEzp27CjYt2nTpvjll18UPg/6zgBAW1sbv//+OxOqYrEYFRUViIyMZKnXADB37lw2Ebdo0QJz585Fr169kJ2dzT5ykUgEXV1dhIWFwdDQsNZuFSMjIyxZsgQcx4HjOCZU6f4GBgbIyMhAfn4+Nm3ahLi4OBQUFNQqlbpz584YN26czHJra2ts2bIFK1eurDGR4PHjx0hISICHhwcqKiqQmpqKXr16sfhOUVERm6isra2xatUqaGhoYNmyZcyq5jgOc+fORf369bFmzRoZ68zExAQpKSl4/fo11qxZA09PT2zfvp0pLHw4ODhgzZo1mDVrFls2ceJEDB06FD179sTBgwfx8OFDdOjQAb/88gu2bt2KcePG4caNGzA3N0d8fDyysrLw6tUrTJgwAeXl5SgsLMT333+P5cuXQ0dHB4WFhezYz549Q6tWrQD84woHpDGSjh07Ys2aNQCk33br1q0RFRUFQgiSkpJgZWWF1atXY8WKFYLkET66dOmCunXr4ty5fxw3165dE6SmE0IQFxeH+fPnY9WqVRgzZgwGDx4sY41JJBKUlZWhqKgI79+/ByC15n744QcAUgHTvn17+Pn5oUmTJhCJRMz1LBKJ4OzszGI0JSUlzOvQqlUrPHv2DGfOnGFJOhkZGVi8eDHOnDlT63jXpk2bmIUbGRmJjIyML5Ic8q8UWhJCzvGslWojsxzHOQHQB/CktsfnOA5lZWVMgGzbto2ZzsbGxkhNTUVGRgYMDAwASP3PZ88K8wd2796NnTt3Ij4+HgBqVRPxucjLy4OdnV21L/LixYs4evSoQCuOiYmBtbW1jOb6999/Q1dXVyBMFJ23uvoNbW1t3LlzR8bSAKSuqtzcXCQmJjIBY2pqylwhHMcpnGAjIyNZoL826NSpk8wyvqsQkArP33//HVOmTIGjoyOrVxo4cKAgrvXDDz9g5MiRGD58eK3PXxXKysooKipiz93R0RHv379HQEAA7t+/j7S0NMEE+KkQiUTsGSorK6OsrIyty87OxrNnzwBIY2S//vorxo0bh927d2Pr1q3YsmULli5dKjcWpqOjA3d3d+jr68us69y5s8Ayi42NRVFRETp16oT79++jsrISTk5O6Nq1KzZs2AB1dXW5166pqSmo0zIzM8ONGzfg7u4OQghSU1OhpaUFJSUlNk5XrlyJBg0aQFtbGyEhIfDz88OUKVMwYcIEfPfddwqfk0QiYddMY3RlZWVQVlaGg4MDgH8SJ4YPH44DBw5g7dq1zILV0NDAihUr4OPjg/v377PjJiQkoG7dugCAoUOHIjo6GlevXgUhBFFRUYLvQllZmQmEv//+G02bNkWLFi3w5MkTHDlyhLmvfHx8sHbtWmzZsgW7du1CREQE7t+/jwYNGiApKQnp6ekwNDTEqFGj0KdPH9jY2CA6Oppdv5OTE0JDQ5GZmYmOHTvixYsXcHV1hZ6eHl68eMESYwBpEs2qVaswbdo0HDhwgF3r+fPnZZ4fRXp6OiIjI0EIwbhx41BaWqpwXtq1axc2bdoEAMyVpwhfXMBwHBcDYCOAcRzHJXAc5/KRhxgO4E/ykdHNcePGoV+/fgAAOzs7pmXytVX6d2hoKA4ePCjYX11dHYaGhnKzNapDUlJStYFmADh69Kjc5Xl5ebC0tFSoQQHSF1g104wKmKqIi4uDlZUVKisrUV5ejqCgIIXHVVJSqtaMV1dXV1hASdOc+S7EqkWh8kBTuT8H9EOsCa1atcLy5cvZb1tbW/zyyy8CQf2xMDMzQ1hYGNP0qA/+xYsXsLKygqqq6ielIhcVFSkcQ+3atWOT37t37+Dt7c3cPcXFxVBTU0Pjxo3ZWHJ0dMTPP/+M7OxsgSXxsfjjjz8QGBiIBg0a4MqVK8wi/u677xTGoBSBCoHx48fD0dFRZr2uri4iIiLQtm1bBAQEICMjAwMGDEDjxo3RoUMHwbYcx6GiooK5vClo5qWfnx/atWsHQOq6ffbsGdTV1aGvr4/mzZtjyJAh6NmzJ9tPT08PmzZtgp+fH3NXPX78mLlNAcDDwwNpaWlYu3YtDAwMmKIKSC20wYMHA4DguWzevBmNGzfGunXrkJqaCm1tbXh6emLhwoVYtmwZjh49ips3b2LWrFnw9/dnVnK/fv2gpaUFZ2dnvHjxAlpaWgD+sSRv3LgBb29vzJgxA25ubgCAefPmYcGCBSgpKUFgYCBKSkqgo6MDR0dHpKSkICoqCpcuXcKRI0dY3KmwsBAzZ85k5Raqqqp4//494uPjkZ6eDhUVFZkMXQB4+vQpCCHQ1NTEkydP8Mcff1T77mucFQghWnKW3SOE9FWwvTUhpA4hRIsQUo8QEvKR+3sTQhbUdF1V0bBhQ7nV9nyfKcWTJ08EWhytMfmUjJRly5YhOTlZZjkVCDk5OSzwXRV5eXnQ09OrUUANGTJEcAxqjamoqLDJLiMjA0ZGRowJ4O3bt3InmJycHFbHoWiyJ4TAxsaGWXNVkZ+fDw0NjY+uqo+IiKhVVX1NqO17qnp9NKnjU5CTkwMnJyckJCSwD8/S0hJxcXHIy8uDjY0N9PX1PyngumnTJoUp1127dmXaM9UcjYyMcO3aNVy5coVlRS5YsACTJk0CALi4uKBXr16CifBjERkZiejoaIhEIhQWFgriVrSI7mNhaWmJ3377Te661NRUfPfdd4KsLA8PD8G7LioqgpWVFaKjo3Ht2jWBoLC2tsatW7fw4MEDuLu7AwC6d++O1atXo2nTpgCAQYMGCdyrFNRNuGfPHhBC8PbtW5ZcQjF27FgYGBigoqJC4HYyMzODqqqq3GM2btwYJiYmmD17Nn766Se2TltbG9HR0Xj79i2aNm2KN2/eyOzv5OSEc+fOMSWOPofg4GB899132Lt3L1OWmjZtCo7joK6ujgULFggYDby8vLB7927cv38fhw4dwvHjx0EIwcCBA+Hu7g5ra2v89ddfcHR0RFhYGJ4+fYpJkyYhLS2NvWP+/HTy5EmMGDECAwYMwPnz52vMovs/z0X26NEjpKamCj6ImJgYODs7s8kgPj7+kzXbwMBAmUChRCLBkCFDAEj9v2lpaXL3zcvLg7a2tsIJk2ZqNWrUSJAjD0gHnI2NDavduHv3Lrp16wZ7e3tERETg5cuX6NKliyDrBpDGX5o2bQpTU1O5ghGQTi6tWrVSKIAqKirQvn37jxbI+fn5n02t8qlpqZ+L8PBwNGnSBK6urkzAiMViNq4cHBxQWVmpMAGgOgQGBsrU6lCIRCK0b98eM2bMwPfffw+O4/DmzRucPn0ao0aNYtYv1YAp8vPz8fvvv3/0tVDo6+uzsbVx40aBW3LRokW4du3aJx9bHjiOg5OTE8LCwlCvXj252+zZswd37tzB3bt3ERUVJfhm27ZtC0dHRxQXF7MJv06dOkhJSUHLli1rPL+SkhJGjx6NRYsWwcDAQK5Frqenhy1btiAxMbHW9zVhwgQMHjxYxuq2t7eHhYUFVFVVUVhYKOOS19HRQWBgIEvTB6QTPX3PzZo1k/kWGjVqBD8/P4FbUVlZGWvWrMHKlSuhra0NiUSCw4cPw9/fH0OHDkX//v0REBAATU1NFBUV4e3btxg5cqRgbli6dCkCAwPh7++P1q1b4+7du7h37x5WrlwpSLqQh//zAqZRo0bIzs6W0eZoxTsg5AMrLy+XawmFhYXhxAlh3kF+fj7q1asnM+Bu3brF3B5RUVEKOZJouqMibbBqELMqqDABpILMzs4OdnZ2iIyMRExMDGbPno3Tp0/jwYMHrGDy+fPnaN68ucKsFECahVPVNcGHsrIyRo0a9VUKA6vD8+fP5ZrtNeHly5eYMmUKCCGYNGkSbt++/dHHCAsLg4ODA3x8fATXcPnyZQQEBMDExATJyclQVlZGVFQUOnTowOqJ+P79qiguLoadnZ1CAQNI40k0KSMtLQ3t27fH69ev0a5dO5boQZMNKAICAuTe59WrV2WUlaoghEBdXZ1p6paWlmwyO3PmDJydnQUFy3y8evUK+/btq/b4imBjY4OCggK0bdtW7vqcnBxMmTIF3t7eWLJkicz6Hj16YNWqVYJldevWrVWtSmVlJVq0aIFVq1ZhxowZuHXrlsx3HRMTg7Zt28pVzAoLC9GzZ0+Z5yIWi5kLjY+KigqW1FJYWCjj8iaEoH79+oLlWlpazBqTBwMDA5SWlspYaRzHMffdb7/9hvz8fLi5uTHvh52dHcsWrKyshImJCYqLi1FRUYFz585BIpHgxIkTOHfuHAYNGoSwsDCkpKRAJBIxa1ER/s8ImJSUFJkAq0QigaGhIbS0tFhmF3UR0WwoQChgAAiCwxRRUVEy1sCLFy8waNAgGQvmwYMH+PHHH5GQkICoqCg4OTl9UmFXUFAQXF1dAUgHSVVXGl/AFBUVQVNTE/Xq1UN8fDwIIVBVVYVYLEZWVhbLRqJWhJmZGZsA5d0rTZiQBw0NDVYP8m9SZSQnJ3+SUKOpzXv27EFaWtonubGoz79169YCAaOmpoa6deuivLwc6enp0NHRQXZ2NqytrZGbm4uMjAyZSQ+QxlOuXr2KJ0+eoFu3btVek0gkwvTp0wFI3YwODg5o164dGjduzJ6Hp6enoE7lxYsXcl1kAQEBLItJEdLS0hSSuwYEBGDMmDEKBX16ejoeP34MLy+vas/BB03LVVFRQYsWLQRae1W0bt0ao0ePrrUl3KBBA5w5c6bGcfrrr78Kfu/du1fGbZmfnw9DQ0NB0gUgjZNOnz4dRUVFMpmd1YEK7aZNmwpq7mJjY7FgwQJs2bKFKZaHDh3C6NGj0atXL5njUIGekJCAzp07V+tyNzMzg7KyMvr378/mjp49eyIyMhIVFRVQVlZGRUUFOI5DYGAgjh8/DmVlZairq6OiogIqKiooLCysNm7Mx2cJGAU8ZSOrLKvkOK4Jbx9X3rosjuOiKR8Zx3FWHMe9/PD7Lcdxk2t7LWfOnJHJnKEMq/b29mjeXJodTa0Cmr4M/MNiDEjNag0NDRmai8TERJm6kxcvXqB3794CF1hRURHU1NTg4uKC0NBQFBYWwtHRUSCEqmZzyENMTAxKS0uZ5mFhYYH4+HhkZmay+FGdOnVkrkksFqO8vJyZ+Orq6khNTUVKSgrLsAGkQcOjR4/KfHhBQUFQV1cHx3HQ0dGRyRIpLy9nx6AZZRSenp4KBUBJSQlUVFSgpKSkkEKkJqioqMgV/hSEECxbtkxmeVJSEoYPH47k5GQoKSmhuLhYkPZdHeh7o9YmTZemoNZgWloaq5rnCxjKYVcVJ06cYPUZlB2iKvh8cRQRERGwt7fHli1bWDwrMjIS+vr6rHYEkLpfdXV1Zc6dmpqqMLZG8f79e8GER0HriqrDvn37WCp3bZUBPsu3iYlJjRmc/NhaTefgOA7jxo2TW8RJUVlZifPnzzMhn5iYCDc3NxlLT9G5goODERERARUVFbkCZvt2WVpG/rHGjRsncOM9f/4coaGhzHopLS2Fp6cn9PT05GbvUXdlVFQUOnbsKLc+jo/k5GR06dKF3R8hBGKxGM+ePUPLli2RnZ0NLS0tZGRk4KeffmLjhX73fPdhTS7rz7VgZHjKCCHHeXxiowFEE0Je0x0IIUG89RcAzOXxkSUDaPNhXSsACziOM6/NhcTGxjKXF0V8fDzq1auH3r174+jRo6ioqMDFixfRunVrqKiosMmV5poD0klbR0dHZqBQ+n8+CgsLoaOjwwZLRUUFlixZgrFjxwrqRerVq8eshV27dmHXrl2CQGnVjzEvLw/r16+Ht7c3W+bg4IDw8HD4+/szYSkvQ44+C/rB1q1bFzExMaisrIS/vz8byCoqKsjIyBBQeTx69AinT5/GwoULAUgDjVW13devX7MiTj4/GCAlkJRHDQKA1SFRpoOqIITU6MqoW7dutRlMKSkpMunngNR9RH3g6urqyMvLq1W6dExMDKZMmcKuTx50dXUhEomQlpYGb29viMViJmDy8vLw6tUrNG/eXCDI6UTm7e2NunXryp00CCFyC3ZjY2MFNU4AcPjwYXh6egpcnhUVFcjKypJ51vr6+jXWN7x//x7169eXsZrv378vqG2q+kyOHj2KevXqwdDQEMbGxgpjj3zk5OTg0KFDAtePvGddXl4uE98KCwvD3r17FR6bHsfV1VWusKYIDg5GixYtmEvsxIkT+Omnn2qdch4UFAQXFxdoaWnJzBsZGRnYs2cPIiMj2bLS0lKBkKTfLnW9hYSEoH///uzbCwwMxMiRI3H37l2556eCoqioCDY2NjLPnRAiUIoIISyoD0hT38ePH485c+ZAW1sbGRkZaNu2LVq2bIl27dohMjISJSUl7Hny309NAv5ru8hGAKiZovYDCCFlhBDqS1LFR1yfmpoae0H37t1DeXk5o7No0qQJ1NXVMXbsWPz666/VTlJUS6jqApBIJNDU1GTmsbwHu379ekycOBFWVlYCwkoqYOLi4lBUVIR+/foJAuhVJ+rIyEh069ZNMAipgHn16hVLTwT+EU786zEwMGDb1KtXD8nJydDU1MSjR49YCicgNe3pNV69ehXPnj2Dt7c3E7Z8NyKFn58f85Hr6ekxU7m0tBTa2toK6Teo5i2PrRqQpoZu2LBB7r6A9Hm7urpW23/jzZs3MDIykrFyKGcVjS2kpKQgLS2txuy9a9euQVdXt1qriSI1NZU9l+zsbFhZWSE3NxelpaVwcHAQWBfUl62urs5iCVXTxl+8eIGSkhKZc1dUVMhMtCKRCJqammwMJCcnQ1VVFSkpKYz+hQZjqyoz6enpuHLliuB4tA6EZiRS8MeekZERMjIy8NdffzGBFR4ezlxr9evXF1gAQUFBggk7ODgYv/32G7Zt24YlS5Ywodm2bVu57AU0BR+QKgnFxcUIDg5GZGQkLl26hIiICMTGxgKQTrilpaXIycmBvr5+jVbzw4cPMWLECERFRSE3NxfZ2dkyymR1vGdJSUno0qULCCEy88bz58+xceNGlu0H/PMt8HH79m2W5SiRSNCvXz/2Xp4/f46pU6fi6dOnKCwsFHhAJBIJoqKi2FiWJ9j/+usvTJw4UeDaU1NTYzG27Oxs6Ovro0GDBggKCkJGRgZatmwJe3t7hIaGQkVFBT/++CM4jkNubi77BiUSSY3W5ucKmGp5ygAMQy0IK/ngOM6C47hAAPEA1hBC5HM5yO7H/t61axfevHnDLBhAaoZ6e3sL0g/Nzc3x4MEDwXG0tbWhpKSEBw8eyPgZ7e3tmSYSHh7OirkoCgoKBK4F6k6iAubhw4fo3bs3C8RTODo6CoKDKSkpMk3SzMzMkJyczGItFGKxGGlpaQJOpmnTprF6g3r16iEvL4/xtVHfNSEEysrKyMrKQmVlJe7du4fZs2cLnqO1tbWMgElOToaRkbS3EJ9M8927d+jXr58gz56P8PBw2NvbK9RsL1++zNyU8lCbhlKBgYEYMGCAwoC5kpISs6CaN2/OJiSKwsJCwQQRHx+Pvn374vbt24KYRFXLUV9fH3l5eVBVVQUhBFlZWbC2tkZ2djZEIhEbNxKJBMuWLUN0dLRASQD+cYFSXL9+HaNHj/6kuqEXL14wxoLw8HCcOnUKJ0+eRH5+PquroDhy5AhLQoiIiGD0/iKRCNbW1oiOjkZGRgbKy8sFTdlo4d++ffsEnFW0wpxv/RJCcOrUKaxbt45t9/jxYyxatAhLlixh4wmQKj2UZDQrK4sJQ36c1NLSEqGhoez4x48fx4MHD1gB6h9//IGgoCAkJCQozEjjIzk5GS1btsTDhw+xZ88edo98YRwREcGy1qq6SQHAzc1Nbgzm1atXaN++PYyMjLB161akpKQwCxGQZmiVlJTg4sWL+P777xESEgKRSMQKxAHp2LewsEBFRQW8vLzw7NkzhIaGYufOnRg1ahRMTU3Z91b1+6qoqMDTp0/h5eWFhQsXMhc+RWVlJd6+fQt9fX3UrVsXiYmJzOI3NDSEv78/PD090bBhQ9SvXx+XL1+Gg4MDCCGMSqo6fEkXGZ+nDBzHtQJQRAj5KLpRQkg8IaQRAHsAYzmOM6m6TVUusqrWhK6uLp48eYLc3Fzo6uqy5VW1hl9++QUBAQECl0NFRQUyMjLw+PFjLFu2THBs+lEB0loavu+8pKREJh+eFr9paWmhsLAQoaGhqF+/PmxtbQXsth07dhTwBvHZoHn3LPd5WVlZ4eHDhwJCTTs7O/aR1K1bl02afN8pJQrMzMzEo0eP5GaDiMVimJiYMGH44sULQQCWb3m9efMG/fv3Z5P7jz/+KDgWjR3Js2BycnKgqalZbYovDbKrq6srZJDNz89Hy5YtFRJEKisrs3vu0qUL3r59i4SEBEyePBkZGRl48uQJrly5gokTJyItLQ3Kyspwd3fHvn37BAWCdEyUlZVBSUkJpqamrMBSW1sbubm5MDU1RXh4OFxcXJhC8ezZMzRq1Ehu/MfW1pY9O0IIiouLYWtrq5Arqzo8ffoUIpEIWlpajKuN0uxUTWZJS0uDmpoaEhIS8PjxYwwcOBA///wzAGlWV3BwMDw9PeHt7S1QqJydnXHixAn0798fwcHBMi4sOlkB0rRmsVgMW1tbxprNr5bn4/nz59DT08OqVauwbt06zJ49G2/evBFo/dbW1li2bBmKioqgrq6OqKgoREZGMgGdlpaG4OBgGQFDCMGjR4+wfPly5k6k77Ju3bqIj4/HnTt3mHLHd20fPnyYsUDwKXzo/ra2tigpKZERMCUlJVBXV8f06dPx/fffY+PGjazuRE9PDzdu3MCqVaswbtw4DB48GKtWrWJKaosWLQSZgJ07d8awYcPg4+MDb29vaGpqYtq0aSCEIDIyEsrKyjIC5sSJExgxYgSsra0xfvx4TJgwgb1HjuMQHR2NK1euMNJgADIChsaC2rZti0OHDsHBwQFisRgpKSk1dvr9mi4yAZ/Yx/KRfbBcggHI5MtW5SJLT0+HsbExxGIxUlNT4eLiwh5ydUEojuMwa9Ys9kEBUj/moEGDMGjQIAwZMgTHjh1j6/h+S/7HqqGhwSYPPuzt7QXZWDTWY2VlhZiYGHZtmpqagiwieQIGkH44VbV8e3t73L59WyBg+NDS0kJ5eTlKS0sFxaXR0dEwNzdHXFwcrl+/Liha42Py5MnYvn07EhMTcezYMYwaNYqt47vIaLYczaZ69eoVm3T5PmcjIyMZC+b48ePMBFfk06UChroKg4OD5W7r5OSkUMDQYrScnBx06tQJISEhOHfuHGbMmAFPT09kZ2cjKioKGhoa+Pnnn9GuXTsYGxsjMjJSxloFgFOnTkFbW1sgYExMTFBYWAhNTU28ffsWHTt2ZCnhJ06cYBNsVfCVjoCAADRt2hRmZmZ49uwZK8SriT1YJBIhNjYWhoaGSEtLQ7169ZCWlgYDAwNoaGggMDAQ9vb2TAO/du0ay0qaM2cOoqKi0LhxYxYPsbS0xObNm+Hu7o5ly5YJuNPq1q2La9eu4eeff0ZWVhZLkweELsmKigo8ePAAhBCMHj1a4I6T923m5+ejYcOGaN26NVatWoX169fj4MGDSE1NZZOZlZUVEhMTmdursLAQubm5TJEyMjJCTEyMQMDQiffmzZuYOHEic8fGxsbC2toa6urqyM/PR2VlJbNUXFxc8O7dOyQkJLAeQIDU80EFP228R2ug+NmiVd1q5ubmWLNmDfr37w9NTU0YGxujSZMmuH37NlxdXaGrq4uioiIWJx08eDDOnj3LXFLdu3dHy5YtoaysjP3792Ps2LHIyspC3759sWDBAlhZWQkSfwghePXqFVq0aAFAWow+a9Ys5ia3sLDAo0ePkJWVxeYGVVVVJCQkwMDAAEZGRnjz5g1TBGxsbBAaGgo7OzsYGRnh7du3/xkBw3GcCMAP4MVfSC34yDiOq8dxnPqHv/UBtAdQfU4l/kmrtba2xtmzZ1kQ/FNQWFiItm3bIj8/H+3atcP79+8ZaaCGhoZAe6aDx9zcHBcuXJA578iRI9nLzc7OZtYUZWHlg04KgFTroSSFfBgYGLDjUdjZ2VUrYCjKysoEwik6OhozZ87E6dOnoaysrNB6UFdXx7hx43DlyhVMnjxZYAXxXWT8RIknT55g4sSJbGJ88OABOnbsiPz8fDx8+FCQCCCRSBAbGwtbW1uZ/jV8xMTEwMrKCvXr18fZs2exevVq1n8EANNmtbW1BXQtfLcQ9VMXFhbCzs4OBQUFSE5OhrOzM+rWrYuMjAymOBw8eBCdO3cGILXGqgbWCwoKsGHDBujo6AhcFCYmJigoKADHcSgoKICpqSmbbAMDAxXGfaiwB4BLly6hb9++MDMzQ3BwMCMxlOe7r3qMrVu34qeffkJlZSXEYjFiY2PRr18/tGnThhG4UoH3+PFjdOzYEVpaWggICEBxcbHg/aqqquLGjRu4evWqTDM2juPwxx9/QF1dHYQQXLp0SS77eGZmJmJjYyEWi8FxHMRiMYqLixXGQZWUlJCYmMievUgkQq9evfDs2TP2vZmZmSEzM5NlRRoYGAhcmyKRCIQQJCcnM2uEKia0/kRNTQ2EELx48YJN6CUlJbCxsWFKk7OzM27cuIFly5YJOnZaWloy9yptCVFYWAhVVVWB66yqxUif24gRIwBIBWFpaSnU1NTYuN+5cydTSqkCTNnO+aBjOikpCW5ubhg1ahTat2/P7h0Abty4IaM4tmjRgs0DTk5OePLkCQghTIg1atQIz58/F1Bn0XfFcRxGjx6NkJAQGBoaIjAwUODelIevZcG4A4gnhMhvcagYzgCecRz3BsB9AOsJIYoJtT6AChgHBwecOnUKTZo0gbGxcY1EbPJQVFQEU1NTZurSj5RK8fLycrx9+1bgyzYxMcGdO3dkrAtjY2Pm7ywqKoKjoyN27twJQJpJxA+Q9ezZk3XIVITJkyfLMDXTCU0egSEfVbeJjo5GmzZt0KlTpxpTdhs3boyJEyfKTCDq6up49+4dMjMz2aAuKirCyZMn8dNPP7G6IZpcEB8fz7RZirNnzzLWA1rDQ5mB+aAforGxMS5fvozDhw/jzZs37B2/efOG9cABpDGfs2fPIikpib270tJSSCQSSCQSqKmpIT09ncV1rKysEBUVhbKyMlhZWcHIyIgJ3Tlz5gjeFcdxeP36NSQSCbS0tATjxczMDFlZWQgLCxNYGzk5OVBSUpKrOABgVEUpKSkoLy+HmpoaTE1NkZSUxCybkJAQGQEjEomY0LKwsEB6ejr09PTYM/by8kL9+vXRunVrREREQFNTExYWFti3bx87p52dHUQikdzaBktLS+Tk5MgtrKQs3KWlpfjzzz+ZG5EKAhUVFcTHx0NfX59Z5O3bt8fevXtlqFgoKEM1Hz179mR1QID0m8zJyUGdOnVQr1491KlTR9CojZ6fnxDh4OCAy5cvs3diaWmJhIQEvH37lrl9S0pKoKenx1zCderUgYWFBTZt2iRwtVMiSkAae3RxcUFRURHatGmDV69esXPv2rVLoWcAABNyJiYmzDNiYmIisHrs7e3l9n2iSE1Nhb29PUxMTGTIaW/evInu3bsLlr179465Lp2cnFjjRXrO5s2bs4w7Q0NDGTdmSUkJnj59ivDwcAQFBX1dC4bI4Sn7sPweIaS1vHVVthtHCDnN+32TENKIENL4w/+KcxB5iI6OhpWVFRwcHJCRkQEtLS20adOGDYrk5GSF7XyrorCwEKampkwjcnNzw8WLF5mpvXTpUmzbtk1QbUwIqZHksE+fPtDU1GSBydDQUEFatbOzc40FcBYWFjKWBsdxaNWqVY2uQEoXzr9PSlPzseSF/OPGxcVh27ZtbKIuKytDSEgI9u/fj/T0dFRWVjJNMzk5WaYG48WLF4ytgPq8X758iZkzZ2Lbtm0y57x37x6aNGkCsVgMDw8PrFq1CpMnT8b169cZXxYhBDt27MCTJ0+QmJjIPpKKigqBj9zQ0BADBw4EILUEk5OTUVJSIpdItCr8/f3RrFkzRvxHXSOurq7Izc2Fr6+vQCCnpqZiwIAB1caQPDw8MGbMGHYfKioqKCgoQGlpKVJSUhAcHCxDFqmtrc3eq4aGhkxWD9XO1dXVmQCuV68edu7cyWKIenp6MDc3V1gM7OjoWC0liIaGBhITE2USCBwcHBAQEABra2umIXfs2BE7d+5UWJEubxxzHIfevXsLlpWVlcHU1BQWFhYQi8XsGVB3Od99C0gFyq5duxhDRYsWLfD8+XOBEJJIJDL8dTNmzJBRCnR0dNj8UFBQAG1tbWYV5+TkID4+HrNnz8bEiRNlknX4oNYcv4MtX/mizd6qQ0VFBerUqSOTvRYdHS0g/aW4d+8eiyMbGhrKjEVzc3M2blVVVWUUWk1NTYwYMQLFxcV4+/ZtjQ3f/k9U8lPt1tDQkAWXmzRpwszaN2/e1Lr5TlFREUxMTNhE5O7ujhMnTjABk5WVhc2bNwvYVktLS2vMcBo4cCCSk5MF3FF8Lb0ql5Q8hIWFyZ2cquv5UF5eDrFYDFVVVbn93z+X7qWiogIhISFMIzUwMICLiwvjNvrjjz/YJJ6UlCRIhHj9+rUgm6pevXr4888/8eTJE2zatAkWFha4du0a3r9/z5SF169fM0vRyMgIq1atwsOHDzFt2jSWXTd+/Hh4enoiNzcXT548YdvTIlT6nH19fZm/ndJl5OXl1Zh5RIPn9vb2TLunmhz3oTX22LFjBfUtVlZWmDRpEvPry4Oenh6WLVsmqDUpKyuDpqYm1q1bB29vb5kxoqmpydwyWVlZUFdXR0FBATQ1NQVkqPRdAVKhlJmZySb5yspK5ObmyiVtLCsrg76+frU1Ibq6unLT97t164Y7d+5AT08PIpEImZmZWLlyJfr161crIe7j46NwHW0LQAPu2traUFNTw/v372FpaQlXV1dBXRAVQpQhvEGDBnjz5o1AINMYStVnvHjx4mr78gBgcbdmzZrhwIED8PLyklusCoAJaxqcb9y4MRMwq1atYnPEmTNnajwvALkF0WfOnBF02qWIjo6usQqfzzzBLx2gacl6enqoqKiQcanKw/+8gJFIJCxAznEcKxJUUlJiE0VGRoZMSqoilJeXCyr569Spg/z8fKYF+/j4YNasWYLUzJSUFLlmbEJCguDDjIuLY8dRVlZmKcNXrlzB06dPFdL6U+zatUuQ6kkREhKikFcsJyeHxQEUbVNTPUhNMDExYc/X1NQUvXv3xoABAxAVFYU3b94wCyU5ORlmZmYoKytDcXExzpw5I+BpMjU1ZRlDpqamGDhwIK5fv45t27ZhxowZcovt3rx5g59//lmQjGFra4uQkBBkZGRg79697JlXFab8iYQG51VUVGrsc66rq4uCggLo6uoiPT0dz58/F7gSOI6TcU2oq6tDXV29xj7uJ0+elJksysrKYGxsLGMhAFItk95HeHg4tLW1ERMTw9id+ZMJFWwlJSVwdHRkMbL4+HhGvFoVtKNidcqPsrIyzMzMUFBQIBCqBgYGSE1NZewGT548wYsXL7B06dJqjycSiZCbm4sDBw7InQzLy8vh6urK2CZiY2Ohr68PCwsL+Pn5wcrKCg0bNpRx79B2APSag4KCBEJAR0dH7oSZkJCAixcvKrxeQCpgNDQ0UKdOHXh7e1er2S9ZsgQVFRXM2qHV84BUCaPuN1VV1Vq1LeZbVBSZmZly4yOZmZks3kNT66uC777kr6cJDdyHnk/yWi9Uxf+8gKmqFctDRkbGR/d54U9GtPUrII2rTJ06VeDeSkpKkmsKX7p0SeBaKCsrY9dar149lu22ZcsWvHr1CpWVlUhMTJR7P1lZWTA1NYWNjQ0ePXrElpeWlqJx48aClqf3799nRXvZ2dmwsLCAi4sL0zIrKyvZh1RQUCDTN/1jwfdbq6iooF27dnBwcECdOnUwdepUth2NA02aNAlz586FSCQS5OSLxWIUFBSwd3X+/HlwHIcJEyaw2iR3d3dBttnNmzcxfvx4mb48/v7+MDc3R9OmTZmLg05q8qw2uk5PT69a4klA+kHb2NhATU0NmZmZiI+Ph62tLXMJKnLzAFL/Pd9dS2NyFCEhIXj+/LlgWUZGBmNPqAr+WMnLy4O+vj7++usv2NjYoE6dOmziIoQgPT0dhYWFSE9Px9q1axnXVlxcHFq1aiVXgNHeQ/K48ChycnIwefJkBAcHy0ysxsbGiI+PR2pqKl69eoX169cLlAF5MDc3x759+zB9+nQEBgbKrM/MzETDhg2Rn5+P8vJy5OfnQ19fH5aWljh16hQsLS1hYmLC2j8D/zCA863H5ORklkABgPVQ4aO4uBj169eXcbGLxWLk5eUxq5nWp9XGI/Du3TskJycjIyMDJiYmcHFxYWM+OzsbMTExKC8vR/PmzQVU/vKeP8dx0NbWFggYdXV1he3e+aUF79+/Z/U18pQqQgj69++P2bNno7S0VJC0QAhRGEfj45MFDMdxBry04xSO4xI//B36gU/szQc+MZ9a7vea4zgVjuNiOI4L+vC72u6XgFTrPXjwIHMFyCNwzMnJqTU5nrzJgRCCmJgYFBcXQ11dXZBFAggnbD5SUlJkeIFoh0JdXV0MHDgQ27dvR5cuXRAWFgZ9fX388ccfzN3Cpz05deoUhg4ditGjRwuSAZKSktCrVy/BQDx//jybWLKystC8eXPmpgKE7QmKiooUWjZ8+Pv7Mz6niooKwWDnPzN+t0xHR0eBVsxxHOrVqwdCCBYuXCjIzKHgu3X8/f3x448/srjN69ev0bJlSwFLAq3WbtWqFQuwAtIP1czMTIayns/TJg+1ETAmJiZo27YtioqKmEXl6uqKt2/fKuwWSicesVjMnl1ISAh27tzJ1hUUFKBVq1Yy/dHz8/MVasRKSkqCSW3+/PnIz8+Hvb099PX1meuloKAANjY2SE1NRVpaGqytrZlrtbKyEvv375c79qk1xA9sU9AaDYlEgvr16+Ply5eoU6eOoH2xg4MDGjVqBEIIysrK4OLiIpOR9uzZM0Hqup2dHS5evIgxY8YwAcOPT2ZmZjIqnvz8fNja2kJVVRWlpaXM7cVxHIyNjZmFTBnV+eO2S5cu6NWrF2NJt7S0xNChQ2XGYLNmzaCpqSmIs9LukzR9nbrIakJ5eTnjjcvMzMSYMWOgpKQkUGCjo6ORmJgIZ2dnQczwwIEDAkJTWofF3x+QBu8VMVLz7+P9+/do3bo1lJSUBPMU/d4yMzPRrVs3dOvWDS9evJDpJluTSx/4DAFDCMnkcYrtBrDpw9/OANwJIY0BNAHwHcdxrWva78M/GoXu/OF3jfnGxcXFGD16NN68eYPU1FSFTaVq8zA+XJ/M9gYGBoiOjmbugqqpsIogT8CYm5uzLI5GjRrh1KlTmD59OhITE2Fqaor9+/cjLCwMQUFBWLJkCbuemJgY2NraytxHQkICHBwcBHU0qampzM2SlZUFS0tL1K1bl31cfBaC4uJiZGZmCmhKjhw5InMvJ0+eZB0yT548yYhFJRKJjBZNhUrVRmmANFGBugrlxTo4jmNxBbFYLOAuo8e2sLBAQkICY8YGpBZhVX91gwYNmGXFn8Srmwh0dHQEtC7y0KlTJ3Tu3Bn5+fkoKyuDlpYWGjZsiODgYEa7UR1EIhGysrJw5swZTJo0iU3cL168gLu7u+BdamhooLKyUiHzNa1poRX0HMdh48aN0NfXF1gwWVlZcHJyYgLG2NgYysrKLKWauraqauC0J1GDBg1kMsn4MRJra2smYGhhMSAVgMuXLxfQilhYWAgoaPbu3Yvw8HBm/Tk4OKBly5YwNjZGeno68vLyMH78eLZ9ZmYmbGxskJ+fj4KCAowaNQqampq4fPkyVFRUmKv5999/Z1YxrTrnt6BWVlZG165dWdBbLBZDW1tb8NwoOW7Pnj0F/HUvX75EZmYm0/ypi6ymeSYmJgYdO3Zkjeo8PDwE63V1dZGXlyeXcy4xMVFQeClvG3ptW7dulUmoqTo2Y2Nj0aFDB4HClpmZiaFDhwIAaw/drl07PH78mLm46bMKCAj497nIiBR09lX+8O+rNQ4pLCxkPD3Xr1+Hjo6OXO4okUhUK04piuDgYKSmpqKwsBANGjRAdHQ0YmNj5dab8AP0JSUlbHDyNQP6gVlYWCAqKoppHleuXIG6ujpKS0thYmKC3NxcJCUl4cCBA5g4cSJSU1MhkUgU9kDnF5PRl52amsrMYH5xHn0GlLYFkFoj6enp+P7771k23ObNmwXnCAsLg62tLRNQQUFBApOcX90vkUhYVpqdnZ2Ma8HS0rLaTpn16tWDiYkJI8fkD376rGk68+PHj1lWEF8Q0Xtu3Lgxs+yoZWFgYKBQwNDAMV/Yvn//XuFHJJFIwH1o/kQLfk+dOoUuXboAEPI98SeeWbNmwcfHB8XFxejUqROzWJ4/f46WLVsKUo+1tLTg6OioMAuSCpiQkBAZmnu+BZOZmQlnZ2ekpqayjqiTJ0+Gr68vuz95ND60nqZRo0a4fv06m1CLiooQEhLChKGFhQVev36NOnXqCLRkeuyMjAzWeqJ9+/as4JS6hTMzM1FQUAAtLS1YWFhg9erV7BouXboEMzMz9kwyMzNRr149Rs3Spk0b1KtXj9XZREVFYcOGDcjOzkb//v2RnJzMBEzjxo0Fbjd5AoGf1ZWbmws9PT24uroy91p0dDTq1q2LtLQ05mbkUzjR67xw4YKMNfr+/Xt069aNKTH0/FWvg841VZ9lWVkZe6Z84ls+CCFYt24d1q9fLxi7VdtwlJeXw9HREQMHDmT3e/DgQbi5uUEikbBvkJL/8mvdKE+doqaFFF+r0FLMcdxrAGkAbhJCnn3E7gTADY7jAjiOm1TjxoSw/P/Q0FAMGTJEbkol5fICpJPylClTMHfuXIXMsjk5OYiMjERsbCyaNWvGEgWqZr9QzYWSFT558gTnzklp2fhBVlqPYWFhgadPnzKhQF94SUkJdHV1IRaLMXnyZHTt2hUNGzZEWFiY3AI7OnAo5QafmoNePyAUMLR/DJ/Xi8YzoqOjGZkm5dQCpJPo1q1bMXbsWHbsyMhIZrqrq6vLpDLyYWVlhdjYWHY8Pv0GPRZFcnIyxo4dCxUVFda2VktLS8ZapBbMy5cvWSYUX8DQD48yJgD/tJRWFCwnhMDQ0BC2trYoLy8HIQShoaHYunUrJkyYoDCFd9CgQSwVOCUlBRzHMa1SR0cHOTk5CA8PF3zoenp6mDBhAoYOHQoXFxc2XmnKq6OjI6tFMDMzw8iRI5GUlIRTp07J9I0RiUQoLy9n1f98UE28srISKSkpcHZ2RlpaGkvNNTExQd++fZm71MbGBuvXr5fb8kBFRQWenp5sXWJiIrp168YSFlRVVdlY09TUlMk6a9iwIUuLdnV1ZZP8q1ev0L17d9YwjVq/1NoRiUR4/fo1vvvuOza+g4KCGDs23adz584YNWoUdHV14eHhgVGjRmHOnDmsqJQKGDc3N7x+/VquJUvfEV/AUPCLo1+9eoX+/fuDEAIrKyvWi0pTU1Nw7+fPn5eJp4WFhcHNzQ2FhYUyrMT839SNXVUg8i1JSj0F/COgqLteVVUVffr0weXLl9m+VGDwIRaL4ebmhszMTJSWliI7Oxtt2rRBTEwMoqOj2XxXtfeThYUFjI2NFTaeo/gqAoYQUvHBBVYPQEuO4xrWsAsf7QkhTQH0AjCF4zgZkiyOx0VGPzjqUmnXrh38/PxkDsqf6DZs2IB169bB09MTK1asUEgPHhsbKwhyJiUlyaQj0/X0Y05ISGAuD35LXbodpWeoagnRwWtnZ4dWrVqhX79+qF+/Pt6/f4/g4GCm/QHCCno6KfHraPiBPL4bydXVlbm5+AHvtLQ0zJ07F35+fvD390efPn2Yu2nx4sWsFoDWcFBaDUBabFddc7KhQ4fir7/+YkSbfK0eAIYPH86eEb8vz7t37+Dk5CRXw6REgPykCX6gk7YU4Mda0tPTYWRkhB49esjNrikoKICrqyv69euHVq1a4dmzZzh37hxWrFiBH3/8USHFi7u7O4u5dOnSRZDUoKOjgxUrVmDjxo0y9+Hq6go3NzfmP6eFmADQqlUrPH36FCUlJTAzM4OLiwtrm101DlJRUYGKigq51rWuri5ycnLw+PFjXLp0CfXr15exUNzd3ZlbuX379vjpp58UMg+bmZmxmE9CQgL69u2LZ8+eMYu1bt26AhcZnxxz2rRpgnRxquXfvHkTw4cPR2ZmpkDAUDg4OEBVVRXOzs4IDQ2FRCLBhQsXGMkiZWowMzODWCyGjY0NNDU1WWEnVSypgKEuWko9xH+OdLxQy4/yiFVFUlISrKys0KtXL1asSAUM1fbfvn2L9u3by2j4NGYoD4WFhUz5oS5PNzc3QWyxd+/euHTpEoB/rEs++N6JHj164Pbt22xuoS6vquBzEnbr1o3NO3yrrEWLFgIly8LCAoaGhv/ZlsmEkBwAdyGNw7TiBfP7V7NP4of/0wCcAyDTUJvPRUYtAVNTU7Rs2VJGQ6agAub06dMYMGAANDQ0WKCdWhx8VFRUIC4uTvDh8l8o7f1AByp9SQkJCSgtLZURWnQ7DQ0NvH//XmYyoLUVs2fPFnywiYmJAk0FAGO55cPa2hoxMTGsiycVMPxrpmSd/GujTAXDhw9HREQEsrKy0KJFC0RGRiI5ORmWlpYsXlO/fn34+/ujbt26zKqoKQ+eWhZ84UEn2/T0dIhEIjZIqZWnrq6OjIwMNrirPkuRSASJRKKw8REVunykp6fD0NAQdnZ2gsw1iuzsbNSpU4dRk1y9epW5R9q3by8IrirCsGHDBEV5lN5GR0eH1V8owvLly5lwoq5Fek0AMHbsWLi7u8vEmfi0K1WFGKUNoVlLpqam1XZ21NHREWQf8QUEhaGhIRvnrVu3xvPnz9l7dXR0ZFp8QUEBfH19FdZc0KLjzMxMmJubo6CgQK6A6dGjByZNmsTGblZWFrKysthz5r/rrKwsZqVRVBUw9BlV1eb5TOPUguGzQPBBXYxbtmxh7lrKt6etrY38/HycOnUKw4YNU/isAdn3RUkm+a5KaoFRi4sKP0XJKgEBAWjWrBn7PW3aNFbaQF2QVUHd0K9evUKzZs1kWi0AUkWEMm4A0rmJfGBUrg5fXMBwHGfEcZzeh7/VAXQHEEoIecYL5l9QsK8mx3Ha9G8APSAlvFQIOllMmjRJptoX+GdysrS0RHR0NJ49e4ZOnTqx9e3atZNblyAWi1FUVITU1FS5xJM0lhAZGckEzPLly1mmWdWAGr91gJ6eHnNLUNSpUwfh4eECuhnqi+dr6oDUlVE1E6du3bpISEhAeno6HBwc5KZlq6qqyhRHaWhoQFVVVVBfQtl/+Q3KACnbwOnTp9GqVauPag3btGlTXLlyhVl/9J28ffsWHh4euH79OgCp28XMzKxWLMLv3r0TWHX84/JBJzvqIpOHiooKZGdnMyGgqqqK7OxslhosjzuuNlBWVoaysjKKioqqrYto0aIF+vTpw7Ry+t4zMzMF+8mLkRQVFaGkpKTaLMnExETk5ubWWHXNB7Vsq1KBUE4v6prNyspik/CyZctYkkZqaiqioqIUuqDbt2+PlStXwtfXl0208hQDIyMjpi1nZGQgMzOTuaAkEgni4+MFAsbJyUnwjKiw4AsvjuPYdwtIlbvExERm6fO9EfxEFL7VLxKJIBKJmEJL47Dl5eU4dOgQKisrBcrG77//jq1btyqM53Ech7S0NBgaGsLGxkbm+6UeEEBKnbN161a5qcj8VgCA1AVvaWmJOXPmKOQbpOObdkGt2qmWPiN+LyllZWVUVlb++0F+AGYA7nLSni4vII3BXKrlviYAHn3gInsO4DIh5FptdlRTUxNQ1NMgGn1ompqaOHv2LMuQoKia4scH9YuKRCIB3xEgFTBxcXFISkqCkZER6tSpg+DgYDb4aU8X+gJoy10AaNOmjQwlBW3VrKjXOR/82ELV+0hJSYGtra3CLLe0tDRB5omWlhaaNm2KwsJCNrisrKwQHR2NN2/eCBii7ezscP78eTRt2pRpwvSjk9cjg6Jfv344ePAgE560+dmVK1fQuXNnNgnRCcbGxkZwjTROxNf4VFVVFbYa5oMKY+oiAyDIJAoLC4Ovr6+M62Lu3LmC1G5+9l9toaqqioyMDBBCFHKQAdLnQ8kd+ajaopgvYFatWgVCCAoLCxESEiJQBOShoqKCKSk1TQrUBcvPGqKgAoa6j5ycnJiAoe9XS0sLf//9N3r37q2wIVWHDh1w+PBhgQtKngXDByEEGRkZLEaYkpKCkJAQZsFlZmbKCBj+mKF/29vb4/nz5+x9m5mZITQ0lAkYWrgor59M1WdH3ZB0eUVFBQ4cOIDvvvsOwD/WQVhYGLp3784KcLW0tAQp09ra2oiOjmYChq+AKikpITw8nAnELl264I8//hAE+JOSkvDkyRNUVlaioqJCcJ2jR4/GunXr4OXlxZYpqtfir6+umVh1hKV8fBEBQwjxJoSs//B3ICHE7QOXWENCiG9t9vvwO4pIecgaE0IaEEJWfMr19O3bl1Xe8tvlTp48mVWV14SqWquNjY3AzWFlZYXr16+zSuA6deqgtLQUmZmZrEeFIh6iLVu2yCzT0dHBgAEDGO04reBVVlaWcelQDaNqRzlKPxMTE4M7d+7IrfrPy8sTmMkaGhro2bMnMjMz0adPH3z33XdQVlaGn58fEhISBJaTiooKzMzMZHps0OtXJBzV1dXRunVrNll17twZ69evZ2R5VVvNuri4yPSTqVpf4uHhIdd9URW0foMmY9Dr6datG6vCp+4ovoCxsLAQPPfvvvuO9T6nqClVvby8nBFiVueakgdNTU3ExcUJrA4+Ffvz589RWFiIoqIiiMXiGhnE+UkbNXUhpPQr8gQMdcVSTJgwQSYBhVqN1MVYm+JDoGYBA4C5uqg1w/9Gs7KyUL9+/RqbtLm5uSEqKkrAzvzu3TsmYGhRadWeNVU7z9Jt+RCLxQLiUBcXF9y4cQN169aFs7Mz67tkaWkpmE90dXVx+vRplmjCp3lxdnbG1atXmQXDcRy2bt0qqEnJy8uDv78/lJWVsWnTJhkXF/861dTUkJiYKFBe+LFa+rs6yqSioiIoKyvLjenw8T9fyS8P9erVY9omX8DIK+xTBDs7O9y/f58FPJ2cnARsvaampjh9+jR++OEHANKPX19fH+np6bCxscHTp09hZmYGjuNw6tQpwbHlmarcByrs3NxcBAcH448//gAgNXEVVeXy6cgB6SRCBUyXLl1YBhEfYrFYZtKgH6yLiwurzs3JyZHLg7Rq1So2WGnHTkD6gVTX93zPnj1s8nB2dkZWVhaz9kaOHImdO3ey42pqasr01qExFApFE2rVyYwfr6LHV1NTQ4MGDeDt7Y3Q0FBYW1uzhmiKUDXlOi0trUb6EPoRqqmp1djfnRCCpUuXst/Ozs7w8/NjAiYvL09AxU7docXFxRg3bpzC1Ovy8nKBlVBYWFgjxTq1lGgHVT6UlZUFSQBOTk4yzBNUoCYnJ8PFxUVhWnpV1CRgdHR0EBMTAzMzM8THxyM7O1sguEtKSmBpacksGEVs6rTpH4W5uTlu3LghEycrKioSKGOmpqY1puWKxWL07t2bxewaNGiA1atXy1DuW1paCib48PBwPHv2DIaGhlBVVRUowm5ubrh9+7Zg/GtpackIt7t376JNmzaIiIhQyHcHSC3UsLAwgfszPDxckIVoa2tbrfCgRcY//fSTwm2A/wMCRlGQiWobfAGjCLQ+hM91ZWxsjN69ezNKckdHR4FWIRKJsHDhQvZhq6ioQEVFBcXFxbCxsYGfnx8Lqi5evFhhmisfurq6yM3NRVRUFBOQAwcOZE2h+CgsLMSqVavQv/8/+RIqKiqIi4tjBV/u7u4yHGzJycky2jT1b2dnZwtYXeVRU/BdORs3bmT3r6Ojg1GjRil0k/G15gsXLggoOaysrCAWixUGhGkCRE3tWTmOQ3p6ukDrp/fG/xiVlJSgq6uLoUOHIjIyEs7Oznj27FmNBZL8CvUDBw4IND55oG49sVhcY+uI9PR0HD16lD1zFxcXPHz4EAYGBigvLxcEWBMSEpi7CICgYV5VZGRkCCwMGkSuDtSCCQgIkMtoXRM0NTWZZdG6dWvWyrgm1CRgxo4di5MnT8LAwADx8fFyLSMVFRWUl5cjISFBYRsKZWVlbN++nf02MzPD69evBUoADazzYWZmxloeUFTNuNPR0cFvv/0GPT095OXlwczMTG7MtWXLlgJ3Pf1O5QXhbW1tZWj8161bJ9Ob6v3792jfvj10dXWrZWbX09NDaGioQNHQ0dERCJghQ4YIek9JJBKBi5jGmmuKTf7PCxhFE3efPn1w6dKlWgkYRf3uXV1dFbphiouLcevWLfY7LS0N5eXlLIYQHBwMbW1tlJSUYPTo0dVq9xTUzRQTE8MoVZ49eyaX8K5///5Ys2aNwIKhvcppfKdx48YCGpjS0lLo6enJBOipn/j8+fMsb15PT0+ui2/9eqlHs6ioCMeOHWNuJ8oOUBvOt5CQEEE7BQCYOnUq+vbtK3d7Q0NDrFu3rsb3qK2tjWHDhgksNHn8Y4QQFsOh2VA3btyo0T3DnywfP36M7t27Izs7WzDZy0NlZWWNsbWoqCh069aN9dCxsbFBfHw8NDQ08OTJE5SUlKC4uBjZ2dkYO3YszMzManQFAf/EJin1f9XsO3mgaeDBwcFyO3lWVFTIxBD5UFdXZ0qMi4tLteSefNREt2JkZISuXbti8uTJNbItPH36lFngtEaND76yoquri9LSUsF1vn//XibOaWZmhiNHjggScbZs2YLY2FimWNFU427duuH27dus6Lmq4kVrVQBpXU2TJk1YETSFRCLBggULcPjwYXh7ewv2DwkJkSlApgXZGhoaMvVSfGhra2PLli0CRWP27NmC79HKykrwPdy5cwd79uxhv2nfrJrikh8lYGrgEUuqDYfYB76xzRzHRXAcF85x3HmO4+rx1h/kOC6N47hajUpF/t0GDRrg9evXLKWwOlhaWuLBgwescyUFTW2W52t/9eqV4AOnGo+Ojg4MDQ1Zj+vc3FyIxWJBzxAArB88H7Q+oLy8HDY2NkhKSsLt27cFFBUU7u7uMhOitbU1oqKi2MeflZUFe3t77Nu3D4QQBAcHs26dgNSloKqqyrT8yMhIREVFgRCCli1bymTPEUKwefNm5OfnIyUlhdXGANIBzz92dRCLxRg6dCicnJzY+1NTU5NhIKbQ19eHn59fjUwMGRkZSExMrNEFVFlZyYo5LSwsYGBgADU1tRon3o4dO+Lu3bsoLi5GQUEB2rZti3fv3iEmJgYDBgxAeXk53r9/L6g10tfXFzRkU4SoqChMnDiR8cw9fPgQYrEYGRkZuH//Pjw8PPDy5UvExMTA0tIStra2iIiIqNH9pKamhtjYWGhpaSElJQX5+fkColZ5MDAwQFJSEsRiMatY58PU1FSu4rVmzRoA/6RHcxzHKPCrWsMvX75k9RwAWPp+TVQrSkpKaNu2LdLT02WK//jg984xNjZWWNsDgCVh8J8lZbjgw8DAAFeuXBEImKysLEa/Awhp+wMCAnDixAksXLgQV69exatXr1iPl4cPHzIq/IsXL2Lo0KHQ0NAQ1LysWrUK48ePR3h4OHr06MGeIeUCrOq9qVu3LnJzc2vkXczIyEBKSorAYq/aKbcqHjx4IPj+iouLWYp2dfgoAVMdjxiAMtSOQ2wlAG0A9QkhDgD+BnCW+2dkHQLwXW2viWYYyUOrVq1w8+bNajXT/Px8HDt2DNu2bRMEggGpgNm3bx9GjBghqDgHpEFWfpwgOTkZ5EN3uocPH7L4B5102rdvzzSkGzduCNhsq2ZIcRwHNzc3vHz5EhzH1cq9BoARGFL/cmpqKn744Qc4Oztjy5YtCAgIQKdOnZgQoHUW1J3IcRwqKiqQmZkJY2Njme6CUVFR6NKlC/z9/ZGSkoJ27dqhpKQE6enpqFevHsrLy+W6gsLCwnDixAnBJKOjowNbW1ukpqYiNTW12p42IpEIxsbGAhZpeUhISICNjY3MxFBRUSEw5Wn/9BcvXmDy5Mk4deoURo4cWe2xAanrJz8/HxcuXIC9vT0aNmyIkJAQ3Lt3D4sWLYKvry+WLVvGeNoAyBCjKkJMTAxcXV2RnZ2N9evX4/3799i2bRv27t2LkpISdOrUCU+fPkV2djYGDhyIvLw8nD17FsHBwdW632hNkba2NlMK5G0/atQolhouFotZp0Y6UdJUbgr6PN+8ecMUsGPHjrFvkd9Xp1OnTrh//z7bNz09HceOHUNMTAzOnz+P6Oho3Lx5E/7+/iz1lR4/OzsbERERgmvlPjS6o60f5KGiooJZ6xUVFcxlVLViHpB6H0xNTQWx0arfJCBVKrkPLQIoxGKxgLuMChgqZFNTUzFs2DDcvHkTBw8eFCRpxMTEgBCC4uJimJubw9zcnAn/yspKlJaWon79+syinDp1Kvz8/BAbG4vmzZsLvk0jIyN07NgRjx49YoKVPsvVq1dj+vTp7NxhYWHQ0NBAdHQ0cnNzMW/ePCxevFjgykxLS8PBgwdx4sQJJpz5bu6ioiJYWFh8WQHzueA4TgPAeACzCCEVAEAI+R1AKYAuH34/AJCl8CBVQDslysOgQYOQl5dXrVb08OFDjB8/Htra2sjNzRWY6Pr6+lixYgVOnDgh06slMzMTFhYWzA+anJwMY2NjtGjRAhs3bsTWrVvx8uVLqKur482bN+jZsycTKHfv3oW3tzf70OUVQLm6uuLw4cNo2rQpa53Lx6xZs7B69WrmogGkGoy2tjbs7e0FdQzt27cHx3G4desWGjRowNw1lNpDLBajpKSEBexpzn2jRo0QGBjI2hwHBARg8uTJePHiBUpLS2Fvb4/MzEw8efIEnTp1QmJiokyGUnBwMI4cOQJ/f38ZS9DW1haRkZHYunWrwCeempoqyNgqKSlBSUmJgL7jr7/+gre3N7Zu3co+AGVlZeTm5spk0KSkpAgUBEqVkpCQgA4dOiAsLAxz586FIpSWlmLz5s04cuQIunbtipMnT8LMzIxVhUdGRqJ3795o0qQJNmzYIJjAraysZCwARedQU1NDv379MHjwYEyePBk//vgjJBIJzMzMGO2QkpIScnJykJKSAnNzc7i7uzO3JcXJkydZPIEqKEZGRuw7oQ2qqPYfEBAAd3d3bNq0iR2D1g01btwYr1+/xokTJ9j6rKwsNrGfOHECN27cYPFOWsGfnZ3NYj/du3dnVrhEIoGvry98fHxYYent27cxduxY6Onp4f79+zhz5gw8PT0BAEePHsWff/6J3bt3C+4xOTkZ1tbWci0TmnxSv359hIWFseSMCxcu4LfffsPKlSsF28fGxsLR0ZGlotNYrK6ursBCevDgAbS1tZkmT1N9+/fvzyZ7vpuvRYsW6NixIziOQ48ePTB37lxWTpCbm4tmzZrh3LlzcHV1ZSztVAl79eoVi4kMHjwYHh4ecHNzw7179/D27Vt06NBBYMHo6emhVatWuHr1KhwdHWFhYYHExESsXr0a3bp1w7Jly+Dp6QmJRMLmrCdPnuDo0aP47bffsGzZMoSFhWHdunUoLy+Hj48POnfuDE1NTfzyyy/sPiiKioqYG7c6fEkBUxsOMXsAcYSQqg5pfwA1NxeQAzqBy4OSkhIuXJBb08kQEBCA9u3bQ01NjQXIKagloaWlxfo/8MGX4Onp6WjQoAG6du2KlStXolevXrh16xajVaE9wGkvcZo/DwhTcKnbSkNDA1FRUejevTtjcg0MDER5eTmKioqgr6+P4cOH4/fff8f48eNBCIFYLEaLFi1gb28PJSUlJCYmMjfXlClT0LFjR6irqzP/LJ+nLCgoiA30kJAQ2NjYoFGjRli6dClOnTqFJ0+esHoLKigMDQ1Zn4927dohISFBkNpLCMH+/fvh7e0NJycnGfeZnZ0dc4uUlZUxIXr+/HlBq4K8vDyUlpayZwgAgYGB8Pb2Rrdu3eDh4YE///wT1tbWSEpKktFqq8aFaByCFsf98ssvAv9yVXh5eaFPnz7IyMhg2UtmZmaCrC6O4zBkyBAYGxsLBCmt5FdSUsKqVavg4+Mj0AqrokOHDoIMp5kzZ2LUqFEApNq8nZ0dXr16hV27dsHR0ZEVyvID1Pv37xdMPq6urrC0tERQUBCMjIzQs2dPbN++Hb/88gtWr16Nv/76C+PHj0ebNm0EnV9p0WRBQQHrVwRIJ3BqJSorK+Ply5d4+vQpunXrhry8PBQWFjIFBJBqvqampjh8+DCWLVuGqVOnMq/CgAEDWKqzsrIyzp07h+fPn7NsteTkZHh6esooWObm5nB0dGTuYL5VIhKJ0KhRI1b9r6ysjIMHDyIpKQnr1q1Dw4YNcfLkSbZ9bGwsli5dim7duuH69esIDw+HpaUlGjVqxNydhBBIJBLW+ZTuZ2Vlha5du7LnTyv6AWGCTp8+fWBpaSngEhs0aBDmzZuHPn36AJDWq1AL69atW6x1tpWVFVq3bo0JEyagqKgI7969Q/v27QUWDMdxsLOzw82bN1nm6dmzZ6Gjo4PmzZtDV1cXkyZNwvHjx6GqqgojIyNkZWUhLi4O1tbWEIlEGD16NJo2bYpBgwZhxowZsLGxQf/+/TF8+HB06tQJysrKzJtSXFwMAwODamM9wJcVMDVyiH0p8LnICgsL2SAAICMEaExBEWiVPC0Oo7T2Va2ecePGYfHixbh06RLLVOILmMrKSmzYsAGGhoZwcXGBrq4uwsLCYG9vL+gISJtm8etG+AKGT6h54MABaGtrw8HBAf7+/rhz5w4OHz6M69ev47vvvoO1tTU8PDzQv39/RqqnpaUFfX191teEpl4qKSlhypQpgvviCxhKEUNz7q2srGBgYIC//voLmzZtwuXLlyGRSKCkpMT+p1Xq5eXl0NTURFZWFnR0dNgEe/fuXXTr1g1KSkoyTZEAqfvo0KFD6Ny5M6ZNm4YdO3YA+Kc1AZ+wk1piT548EbgvXFxcsGXLFmhoaODHH39kVCX8j8/U1FQQwCwrKxM8B3t7e6SlpQmycq5du4bAwEBERETAysoKDg4OmD59Op4+fYqFCxeyltlZWVkC2h/+cQkhMDAwgKWlJebPn49Zs2bB09MTDg4OmDlzpkIKfj5o8SsgTexwd3dHRESEgHSVTyVfVFTEKO4pevXqhZ49e+LmzZto2rQpmjRpAiUlJezduxcdO3aEi4sLlJWVMXDgQFy7dg0JCQlQUlJi501OTka/fv2goaGB/Px8GYoeQgj8/f1ZCwNatMuPVcyYMQPNmjVD79695XZ/pXGwRo0aYcaMGejSpQuOHz/OjkF58Oi3PHXqVNStW5cFyvk8Xi1atEDbtm1hY2ODiIgIKCkpoU6dOpg8eTK0tLQwYMAAxMfHs3hHbGwsHBwc4OjoiPfv3yMkJASNGzdG9+7d8ezZM+Tm5mLhwoUYOHAgRowYwd4bJWQ1MDAQZOpV5zFp3bo1zp8/DxMTE9SpUwebN29mY7NHjx4YMGAAVq9ezQrEKaZNmwaO46Crq4uEhARYWVkJLHpKvEkIgYqKCpydnXHw4EFMmvSPru/m5gY/Pz84OjrCxsYGpaWlMhmq1ELnZ3l2794dysrKAiZ0yklYU8zsiwkYeRxiHMdZ8JIAJgOIBGBJ6WB4aAagelpO4bkYF5mJiQlSUlKQnp4OHx8feHh4MIumsLAQ3t7e+Pvvv1FcXAwvLy/MmTOHuSzKysqYW8je3h7Ozs5o1KiRXJI7CwsLbN26FZqamli0aBHat2/Pqvkpqla2Ojg4oHHjxowbSE1NDX5+fmjWrJmAQSA3N5cNJkII02Bpv3qO47B9+3bMnDkT4eHhePTokSAo17t3bwFrKiA1mbOzs6sNXPMFTLNmzWBubg4XFxf4+/szgWdqagplZWVBrYODgwPq1q3L4jbUd52fn48GDRowbrGnT58yLUxeIaaKigokEgk6deoEbW1tmJqaIigoCBoaGujXrx+rMykoKED9+vVZu+GqPFLUTWFnZwc7OztMmTIFPj4+zB1A/dsUZWVlLCGDYuzYsQI36N27d3HgwAEBk7SSkhL27duHHj16sPibvb29gHqoKjiOw4oVK6Cqqsoyupo3b47169djzZo1SElJQVlZWbVZWRQ9e/aEo6OjIMbEfWgXQN2vDx48QN++fQXWopGREZydnZGcnIwmTZqA4zjMnz8fSkpKaNOmDcaMGQNAqvnr6uriwoULsLCwYNl4q1atQseOHdGmTRscOHCAtQWg2jp1oxkZGTEB4+joKDP2GjZsqLDQ2cDAANra2pgwYQLq1q2LTp06Ye3atRg0aBAAsHdPj9msWTPo6uoKElroWO7fvz/rdxMYGCi386KHhwcOHz6MwsJCAUWNlZUVbty4gSlTpsDd3R15eXnYuXMnPDw80LJlS0yePJm5GmmLBI7jatU+GJDOIxcuXGDMC1UzJ5s3b442bdrIFK9SdOnShbX7qGoFq6iosLIFAwMDXLp0SWZOWrhwIfr164dGjRph2bJlcseuokw+PkVVcXFxtewUFF9EwCjiECOExPP4x3YTQgoBHAawkeM48YftxwDQAHDnU88/bNgw/PHHHxg+fDj27t2LEydOICQkBEePHsWWLVvw+PFjzJ8/H5MnT8aIESMYM+7Lly/ZJL5w4UKmHSlKl+Q4Dp07d8a+ffvQokULGYr8qpg5cybatm2LtWvXApA2GIuOjpYptORbMLq6utWyE//888/Q1NSUqcytrKzEo0ePmHtIXtVxVfA/ys2bNzMzWx732ogRI5jWPnLkSDRr1gypqanIz89nky3HcWjRogXTDPmCmpIAVrUm//rrLxa3+fnnn/Hbb7+hW7duAhp7QMoZR7Ps+DT9fHAch169ekFXVxe//fYbli9fjufPn8tMaqWlpQgNDRX0Y3d0dERERAQqKytZBbq3tzfat29fberszJkzZVJ5q96jvLoTNTU1rFmzBsuWLUNQUJDcPkPyYGxsLNBs+bxYEokET58+Rffu3Zkw51+Lu7u73DoLPoYNG4bt27fD2dmZCRhag9G6dWvs2LEDbdq0gbq6OoKCguDg4IAePXqgWbNm7B0XFBRg3LhxtbofCj09PUGho1gsxu+//84SBRo1aoQHDx4IttHW1maKD63wrwpCCDp27CizXCQSYeLEiaxLK8UPP/yA58+fM1fv/PnzsXDhQvYO+YqhPO60msBxHOzt7attcdGpUydBgzU+3NzcWN2TPBocPntH1dobQJoIZGhoiGXLltWqQVrVfamAoRbMv8VF9jEcYgsBlAAI4zguHMBQAIPIhyvlOO4EgCcA6nMcl8BxnOIqsg9o1aoVZsyYgfr160MkEmHFihX4/fffERoaCgcHB8ydOxczZ86Eubk5GjZsyFxqfn5+rLWouro6y2Sqmq6sCFWrmqtCXV0dIpGITaAtW7aUW+vBN4f79OlTbb2Ho6MjfH1l2XfGjh2LjIwM+Pj4MBdFTWm9KSkpbPKkmqFYLJYb8HZwcGD8SioqKtDR0UFqaipat27NnqGuri4cHR3lBv6oBVPVOuSnu2poaGDZsmVo2bIlOI4T9IKZM2cOAOkzf/36tUJ2gylTpgCQVsJ37twZ8+fPlxEwlZWVePPmjcwxBg4ciP379+PSpUvo27cv9PX1GVODInzMB1oVGhoa8PHxwbx586pVKvgwNjaWS+ExYMAA1gHVwMBAbt1NdXEmCltbW6xZswYNGjSQ6X2krq6Oli1bMobtCxcuwNnZGXp6eli4cCETMIWFhR898YrFYhk+Nj6/mpWVFQICAgRCxMrKCvXr12esvvLIPFesWCHDXEFBrW3+OzQ0NMSBAwdqdc3yCpFrMx4OHTokw35QW4hEImbVyUNtx+OnjFs+Hx91k8tjJudDPr1mLUAI8eb9HQVAsUgW7lcKYNqHf/LWj/jUa6IQi8VYtWoVC3TyNXI+x5iiGpna9tem4PeSqA4mJiYYPXq0zPKcnBxmwfAr8z8GDg4OcHBwQEVFBYYMGYJhw4YprNguKCjApk2b8PDhQxw7doy5SCiq0lrIA017Xb16NftY9PX1oa2tDY7jmIbD3z4/P7/Gam2+yU5p8/lwc3PD3r17a0W017FjR5w4cULmfMrKyoJmShTt2rVDfHw8jh07JsOF9jGgRW+K2Gv5MDQ0xMGDB2usrqfQ1NRkGqxYLGZB1+bNmzP6HNqOtyoUdUWtin79+ilcd/ToUXAch/r162P58uVYuHAhW0ffsaqq6kcLGADVWj0cxyEnJ0egfKmqqsLY2BhlZWXIyMiQoRcCoFARoaD1RHzw6e4VISkpSTCv1JZvDcAnC5f/NPh9fChoR1lF+J+v5FcE2rFPHjiOU9gbAai9BUNx6NAhhVXoNaGsrEzA9MtHRkYGjh07hg0bNmDTpk2YNWtWjUVyu3fvho+PD548eSJ30lq7di3evn2LAQMG4LvvvmNN1SiKi4vx8uVLeHh4KGzTC0gnk4yMDEHsoG7duhCLxdDX18fjx48FLXypBVPdc68KNzc3PHr0SPAuWrVqVSuSSwp5loFIJIKTk5Nc0sfhw4fj+PHjn2WZAMKgc02wsrKq9eTPcRyjTTc0NJR7nbTpFT/G+KVAFSl7e3sUFhbKVSI+VkGrLaytrWUUQmrlVteOoToMGzYMPXr0+Oj9Ll68WK0g/v8F1G2uCJ9swfwvw8LCAgcPHpRbOU4p0Gv7gdBugvL4oMrLy3Hz5k2UlZUJqN8BqRCjOe329vYCU7OiogK7d+9GZmYmvv/+e1hYWKC8vBxaWlqYM2cOtmzZgoyMDBw6dAhisRjTpk3DvXv3cOvWLTRp0gRNmzbF7du3ZSyThw8fwsTEBK1atWIT77x58zBnzhxMmzYN+/fvh76+Puzs7ODp6YnNmzfLuOPKysqwfft2aGpq4vr16/Dz80N6ejqaNGmCvXv3ApBmymzevJlVdgMQ+Odrq91yHAdVVVVBfMLY2BibN2+u1f588LPfaNaTItTEMVYbfIwg/VT8+uuvcpdraWkhLy+vVuzEnwo1NTUMHz5csIy+Y01Nza9y7x07dpRRLqiA4ccTPwa6urro1q3bR+2jr6+P169f45dffvno830N1ES9/5/E/5cCplmzZpg0aZKgvS3wT6OhmhpE8fHdd9/JzVIBpNQZHTp0gL+/P9q0acMsqtDQUGzfvh1ubm5YsGCBoPNdaGgoduzYgQkTJsgNBA4bNgw///wzHB0dMW7cOOTm5mLBggXo1q0bVq9ezQbamDFjsHTpUgwfPhzW1ta4c+cOEhISsGTJEvj4+LDjqaqqYv369Vi1ahVmzJgh+IDV1dURGRmJvXv3ws3NDZaWljh58iSmTZuG7OxszJ49G506dYKVlRWOHDmC+vXrM5bfW7duCTK3VFVVWftnmllWG/z8888yGVY1+X3lgfKtKbJqvyREIhFyc3O/uoBRBBqI/poCBoCM8kH70cvrd/8lUFWgAf8IGHndN78W6tWrJ0PTUh1tzdeCiooKSktLUVZW9lWetzxUx5wiDzUKGI7jKgAE8RYNBGAN4DyAaACqAP4khPhwHNcdwGoAKpBSx8wlhMhkh3Ec14m3PwBkEEK6cRxnCWmWmR4AMYAFhJArtb6bWsLV1RXdu3eXiZvQtOPCwsJqeyEAUkvn4cOHrL9DVdBGUx07dkSjRo2wadMm+Pr64u7du7h37x42b96MZcuWwcTEBPr6+tizZw+cnJxw+/ZtbNq0SaH/vl27dmjbti0TJKampozTiA8TExPs2LEDN2/exL1799C0aVMBtTafMkNVVVWGTA+QTu5z587Fxo0b8fbtW0RHR7NsM0DIX+Tm5oabN2+iQ4cOMDU1ZbUDI0aMQIsWLXD9+nWkpqZiypQpePjwIebNm4fBgwejdevWTAOTp4XJq5n4FBgaGiI9Pf2rCpiioiLExMRAJBIhKSnpPyZgAGkH1Z07d9YqnlBblJeX4/Tp0/j+++/lut7o5PO1XGTywE8E+bfQpk0bmedKmdD/TdD21QC+qiLBx8feZ20smOIPXGMMHMdZA3hICOn7IS35NcdxFwFkAOhHCEniOK4hgOsAFDnMHxJCqgYuPAGcIoTs4jjOBcAVSIXZF4WKigpWr14ts5y2Vf7rr7/g7OyM58+fQ09PD127dpXpFfH777/j2rVraNSoEVt38+ZNuLu7Q1VVFXv27GEmtL6+Pho3bgxvb29YWFgwC0JVVRWlpaVo3LgxWrVqhefPn8PHx6dGc7e25rBYLGaZX3yoqakhKyurxknA2NgYhw8fBgCFgpQPvstx165dqKysZNl7Dx48QOvWrVFWVobRo0ejYcOG2LNnD06ePAkVFRUoKSlBJBLBxMREpiAUkN8f/mNgZGRUK/bhT0VZWRlmzZqFzp07482bN3j16pWgyI2iuLgYkydPhrOzM2bOnPlJ1pg80JR0bW1trFmzBpmZmazzYUhICLp3716jv7w6REREYPPmzejfvz9mz56N1atXK4xTfmwMs7aQSCSIjIyESCRiqeH/CQEjLwb4nxAwlCtQTU3tXxMwtJVDbfHZLjJCSCHHcQEA7Akh/M5abwGocxyn+iFzrFaHA0Cr33QBVN+YvQbk5OTg5s2baN26NcsJP3jwIKKiotCsWTMMGjQIxcXFiIyMRIMGDWBlZYVNmzbB0tIS33//PXR1dZGeno69e/ciJycHysrKMDY2hpGREeLi4rBp0ybs27cPc+fOxfHjx5GVlYULFy6gbt26sLe3FwTZhwwZIujpAQgHZZMmTVgP+K8NbW1tREZG1jpz6VMhEonw008/YcyYMTh//jzWr1+P/Px81ixp8uTJMkWG58+fx4MHDwS1CwEBAVi0aBEjU3zw4IGgN09tYGRkxOpqPsVfTQhhfGEUJSUl7PemTZswb9482NnZQVVVFY8fP8aBAwcQGBiI/Px8WFtbo2XLljh58iSWL1+OkpISbNq0SZCF9TGYP38+BgwYgLZt2+LBgwf4+++/oaenh6SkJEybNo3xj82fPx9t27bF4sWLUa9ePZnMOYqqMaPMzEw8fPgQaWlp4DgO0dHR2LRpE5SVleHq6op58+bh119/lXEPcx+6QYrFYgQFBUFbW1vhOWsCVSrS0tKwZ88elJSUwNnZGQkJCXBwcMCQIUOgpaVVI3X/x+JTLDDK7/ZvglowOjo6/5q1/DUEjDrHca8//B1NCBEkYXMcZwCgNYBlVfYbAuBlNcKlA++4f31oj+wNKZ/ZNACaAD4u+sbDlStX8OTJEwwcOBB///03cnJy8MMPPyArKwvLly/H2bNnsWLFCiQlJaFVq1Y4duwYdHV1ERcXBzc3N9YPwcLCghX1VVZWIj09HYmJiejfvz/U1NRQXl4OT09PuLq6Ytq0aUhNTUVeXp7cPhpVoauri6ysrFqlOH9JaGtrIyIi4l+JRzRp0gSXL19mE3HVIH/V+EqfPn3g5eXFBExISAiOHz+OU6dOYcGCBVBSUkL79u2xefNmzJgxQyAsMjMzsXDhQri5ucHd3R3FxcW4cOECDA0NWYvkmiCPRffNmzc4cOAADAwMUFZWBl1dXUZFo6uri6KiIjRp0oS1sNXT00NhYSEWLlwIOzs7aGtrIyYmBs+ePUOPHj2YslNeXl5tcPrixYt48eIFmjRpgsGDB7Pl586dQ6dOnfDo0SOcOnUKrVq1woYNG2SuOz8/n8XBKIvFrFmzoK6ujkOHDqG4uBhOTk6Ma6xly5YYP348MjMz4eXlhZ9//hnNmzdHYWEhJkyYwI5vZmaGzZs34+DBgzhy5Ahat26NQYMGIT09nT0/iUSCPXv2QE1NTYaMsya8f/+eJbAAUot72rRpAi/CgQMHcPPmTVhZWTHuMorPsXZTU1MxatQoLF68uFqGhqrQ1dVFWlraJ6cgE0Jk+lHFxsbi0KFDqKiowOjRo2XmFAMDA7x79w4cx/2rFkx13TKr4pNcZB/QgeO4VwAqAawmhDCqF47jGgBYA2lFvyLIc5GNAHCIELKB47g2AI5yHNeQECJIvv5ApjkJkLq1ACkRoIqKCjQ1NfHw4UMEBgZi2TKpzGvWrBkCAwOxYsUK7N+/H4CUoZQ2VKKDIi0tjaVZyjPxqQuHPzEvWrRIsE3V9dVBV1cXkZGRNTbS+tLQ1tZGcHAwevfu/a+cj6/1UwtGEZSUlKChoYGgoCDs378fTZo0wYoVK6Curo6FCxfCyMgI6urqePDgARYuXIilS5eyVNn169dj9erVyM3NxfPnzyESieDp6YnMzEz4+vrCwMAA2dnZiImJwdmzZzFgwADBRLR161a8e/cOv/zyC9LS0lBcXIzw8HCoqqpi06ZNbNvc3FxG/ZKcnAw9PT1Buq6uri4SExNhaGjI6ptsbGxkWtD+8ssv2L59O7y8vGSew4sXLxAXFwcfHx9cunQJHh4eaNq0KVJSUlBUVAQvLy+5nU754Af5VVVVsWHDBsYqMX36dDYOysrKMGnSJJw5cwZLlixBYWEhVq5cWW02nZKSEnMBXrx4EXPmzIGxsTGuX78OW1tbrFy5Er/88gtCQ0Nx7949wWSdlZWFGzduIDQ0FEpKSpgzZw5UVVVx584d3L59G6ampvDx8amWPufnn3/GokWLkJWVJeBmCw8Px/z58zF9+nR06tRJ0Na7Nti6dStOnz6N/fv34+7duwCkLr+uXbvKdTdT6Orq4vXr11BWVkZYWJhC6picnBxs3LhRIDBOnDiBoKAgpKWlYf369dDR0WFek1mzZkFJSQlbt25lVhuFiYkJ7t69C3V1dbnNAb8GTExMBK0XasLnuMjkCQhw0uZh5wCMIYREflg2CABtOD6hmmP+jA+9YAghTziOUwNgCEDAd04I2QtgLwC4urqSuXPnwsjICGVlZSgsLISrqyvmz58vOHCjRo1w5MgRwbKGDRsKflP+Imrif23o6enB399fLqXD14SOjk61LrKMjAzo6enVqlDwY0HZoqvDiBEjsGvXLqxdu1awLVUmAGlMyNbWFvPnz0efPn0QEBCA5s2bo06dOqhTp45gMjczM4OXlxf69u2LyspKxnu2aNEiqKurQ1lZGSNGjEB+fj42b96MkydPwsbGBoaGhnB1dZWppeFPvPKqxPX09JCYmFij28LExARNmjTB8uXLMX78eGhqaiI+Ph4xMTG4efMmS6jo168f+vTpg/DwcBgZGdU6w7FqFpmKigqjwadwdXVlf8tz49YG/fr1YzUheXl5SElJQZ8+feDq6oqGDRti5syZ6NChA8RiMW7cuIG7d+9ixIgRGDZsGBITEzFnzhwoKSmhR48e8PX1rfW4W7JkCWJiYnDs2DE8evQIV69exbNnz/Dnn39i0aJFaNOmDUaMGIExY8bIlAnIw5s3b2BlZQVdXV3Mnj0bgNRrIRKJcOjQIcyfPx+5ubkYNWoUi2e9efMG1tbW0NXVRXJyMt69e4eoqCgMGTIE9+/fh5ubG6u8P3/+PB4/fgwPDw/s3bsXmpqa0NPTg0gkwsqVK5GVlQVPT0/GbMxPolmwYAF+//133Lhxg9Xt0LiioaEh4y6jrTY+Funp6dDR0anx26xTp47CNvXy8EVnEI7j9ABchjT76zFdTgg5B6nQodt1UnCIOABdARziOM4ZgBqAav0amZmZWLZs2RcLltYGeXl5TNP+HOjq6iI8PJxVYP9bUFNTw8uXL+UWpgUGBmL//v0wMjKCRCJBWVkZOnXqhB49enyRXHtF2WJ82NnZ1cqtUq9ePWzevBnXrl3DxIkTqy20MzMzQ9++fTF+/HjcvXsXbdu2ZRQ3MTEx8PX1xdatW6GqqipTP/SxoAKmNn78/v37o0GDBrhy5QoKCgpgaWkJKysrrF69WuA6FYlEH51R97XTlOVBSUkJ9erVY1lWHMdh1KhROHbsGGsrsGrVKrZ9vXr1sGLFCqioqNS62JRCXV0djo6OiI2NRfv27ZGZmcmyIZ2dnfHrr79iw4YNOHv2LM6ePYtBgwax/jh3794VWCSEEBw8eFAmI5O+A8oyQAjB8uXLce/ePUgkEujr6yMiIgILFy5EQkICcnNzcfToURw5cgQzZszArl27oK+vjwsXLqB79+7MgvTy8kJ6ejprRghIJ+/Zs2fDxMRE7twybtw4eHh4wN3dXcYroK2tjRs3bmD9+vU4ceKEXIaSzMxMpKenw9bWVsY69Pb2hoGBARo2bFgtPZK8av7q8KVV1KmQ9nzx4jiO2v09PjAs1wazAezjOG4WpAH/cZSjTBHMzc2/qHChvcspiouL4evri65du6JNmzY4duwY4uLiUFFRAVVVVUgkEmhqamLMmDE1pjZXBRUwXzvYDkg1sZ07d2LIkCE4dOgQYmNjBTxqUVFRKC0txb59+7B582ZmwVVWVuLq1atYsGABvLy8PqoAlW8Fvnz5EmlpaZ9UbV0dRCJRrV19paWlAmJRCmtraxw8ePCLXRMN+NaGIRkAY4H+0qgtS/PXRosWLXDy5Em4uLjILUj+nMJWmgQwZswYQUX+yJEjUbduXdjY2MDDwwN37tyBh4cHOnTogPv378PBwQHHjh1jvXYuXryI3r1712g9cRyHJUuWoKSkBMXFxdDX10dkZCR8fX1x//59jBkzBhzHMQbu+fPnY9++fVi2bJnMt2NkZCTzPVR1o1Y997Rp07Bw4UJ4e3uzlPDc3Fzk5ubi5s2bOHHiBLZt2yZTdnDx4kU8e/YMzs7O2L59O+bMmYOTJ0/ip59+YoS1v/zyC+bMmYPBgwd/Me9FjUchhMjY+YSQewDuyVm+HMDyWhxT0f4hANrVtD8fNTW8+VhYWFiw3hplZWWYO3cuFi5ciMePH2P9+vWsBTHwTxZRTk4OfH19MW3aNGae1kbbpz1j5MVsCCF4/vw57O3t5WojtQEhBGPGjMHgwYMRHR2NZs2a4eDBg+jXrx9u3ryJvXv3wsPDA6mpqdiyZQtatmyJBQsWCASDSCRCnz590KRJE6xfvx7l5eVQUVFBy5Yt0a5dO8TExMDBwQG5ubmYP38+GjVqBH19fZw9exbnzp2DkpIS/P39ceXKFaSmpgoYkv9ttGnTBpcvX/7qFmN1NEX/FtTU1P71rKbqsG7duq9WbU7dRHyoqakxC4XjOHTt2hVdu3bFw4cPMWfOHFhYWGDbtm14+fIlGjZsiLt37wo6etYENTU1ptja2dlh586daN68uYCgE5AWYP7222+feYf/wNbWlrF50HbYV69ehVgshpeXF7S1tWFsbIwXL16gRYsWKCgowObNm2FtbY3ly6VTc69evbB3714MHDgQW7Zsga6uLmNvHjZsGH7//Xfk5+ejtLQUzZs3x9u3b2FmZoYePXpAX18fEomk9ooLLbj7X/1naWlJFixYQDIzM8mXwN27d4m7uzshhJAdO3aQkJCQWu1XVlZGlixZQpYsWULmzZtHKisra9ynoqKCqKurkz179pB9+/axfeLj48msWbPIiRMnyLp168i8efPI33//zfZLTEwkI0eOJH/88YfgeKWlpeT06dPs9+3bt8mFCxfI8ePHyalTp9jy3Nxc0rZtW7J69Wpy6tQpMnfuXJKTk1Or+6T3eu/ePbJq1Sry559/knnz5pHJkyeTgoICEhQURB4+fEgePXpEzp49S9LS0sjs2bNJZWUl2bhxI+nSpQsJDAys9bm+JCoqKkjbtm3JkydPvvq52rZt+9XPUR22b99Ofv3113/9vMuXLycLFy78V89pZ2dH4uLiPno/iURCpk6dSrZs2VLr77w6tGjRgjx9+vSzj/MxePv2Lalfv75gWWVlJZk/fz7ZvXs3mTNnDklISFC4/+7du8mkSZMEy3bs2EFiYmJIVlYWuXPnDklPTydv3rwhU6ZMIdnZ2cTDw4OsXbuWbQ/AnyiYn//jAuJz/zVr1oxkZWWRefPmkX379pGCggKFDzM2NlbhuqrIzc0lixYtqvX2fDx58oRs2LBBZrlEIiHx8fGCZX5+fmTPnj3k0aNHZM6cOWTevHnE19dX5j4uX75MFi9eTLZv306mT59OioqKyMmTJ4mvry/Jzc0lhBCyYsUKMmvWLPL+/XtCCCGzZs2qUdA9ePCAPHz48JPuszpUVlaSOXPmkDlz5giEV3l5OZk6dSqRSCRf/Jzf8A0fi5cvXxJPT8//9GV8cZSVlZFnz57VuF15eTkJDw+v1TGzs7PJr7/+SiIiIgTLqxMwHPkIXpn/RjRv3pxQ4kLK8eXh4SGT+fPXX3/h9evXKCkpwYgRI6p1k9C+KgsXLhTwaX0M/v77b2RlZQnoWY4dO4b379+jrKwMlpaWKCgoQGlpKZYsWVIr9wHtS86/puTkZOzbt49lz/3www/w8PCAhoYG+vfv/1nV25+LP/74A3p6ejIxkuDgYJw7dw5Lliz5rOOnpaUhKioKrVu3/qzjfMOnIzo6GlFRUWjQoMG/lir7Df85lJSUYM+ePUhLS0PdunXRoEEDdOrUKYAQIndC/SwBo4CnLBHAfgBNIY3xHCGErOLt0xPSGhlAmhCQCKAYQCAhZMyHbSwBhADwJoRUm07EFzCAtHht6dKlcHZ2hqOjI/7++2+oqKjA1NQUv/76K8rKyvD333/j9evXWLFihczEXl5ejqlTp2Lt2rWfzap75swZBAYGIj09Hb6+vli9ejXLjkpOToaamhr09fU/6xzyEBYWBmNjYxl6m/8m3Lp1C/fu3YNYLGYcVvXr11fYhyU6Oho7duyAkpIS3N3d4eTkhA0bNqBt27Z48+YNVFRUMHDgwH89I+//Z6SkpGDNmjUYNGgQnj9/joyMDBZ/mjZNbrunT8aDBw/QokULlmlGCMHTp08hFotl4h5fEpWVlTh8+DC+//77fz0j778dSUlJePfuHbp16/bVBEwBqZIEwHHcjwD6E0KGcxynAamg6EQIiZGz/z0Acwgh/lWWn4Y0i+zZxwoYipcvXyI8PBxDhgyRmxFx+/ZtpKenyzC0/vnnn7CzsxPkoH8usrOzMXr0aCxfvvxfo4P5X4SXlxfmzZsHsViM48ePIykpCW3btkVwcDBKS0sxY8YMKCsr48mTJ/D398eECRNYrQkhBHPnzsXs2bMVdjD8hi+HmJgYrF27FuvWrWPZUbQdwp07d+Dn54f58+d/kX40586dYyzdVCGsrKxEkyZNEBkZiWbNmn0UQ3dVEDnsDQcOHEBMTAzy8vLQp08f3L9/HytWrPis+/i/Co7j/lUBMwLAjwAGQcon9gRAa0JIlpz976GKgOE4biCkmWSFAAo+VcDUBp6envDw8BAUrs2ZM+ejqS1qA3mD+BuEiIyMxPXr1xEXF4cxY8bAzs4Ojx8/hrm5OZycnGrcv6ioCAsWLMDIkSNl2iR/w+ehoqIC/v7+uHz5MjiOg4qKCmbPnq2wRODt27fYu3cvxo0bBzc3N/j5+cHZ2fmjLfbIyEgcOnSIsXLIw549e1BcXIzhw4cjJSUFV69ehZKSEpo1a4a6devi+vXryMvLQ7NmzXDlyhW4u7tj6NChAKSK5unTp1GnTh0YGhpi8ODByM3NxZ07dzBz5kx2jrNnz+LBgwfMiuncuTO6dOnyUffy34Ts7GzExcWhQYMGn52S/DUFDN9FFk0IGcRxnDKAo5AWTGoAmEWklffy9r8HnoDhOE4LwE0A3QHMwVcWMGlpadi7dy+rbvbz80NiYiIbfN/w72Py5MkYOnToJ2ukhBAcO3YMERERKCkpwbx58z45zfsbpNQrW7ZsgZGRERo2bIgBAwbUekIihGDFihXIz8+HlZUVgoOD4ePjo7AWKiEhAStXrkTDhg0xceJEXL58GQEBAViyZEmNabHBwcF4+PAhDA0N0bNnT1RWVuLVq1dISEhAp06doKenh6dPn6Jz585YvHgxPD09oaKigvnz52PTpk3gOA6pqanMWvLx8ZFh86BKIiEEf/75J16+fAlXV1f07dv3k5qd/VsICgpi9W3FxcW4ePEi3r17B2dnZzx+/BhLliz5rFq86gTMZ2VwQSoAqi5rB+A4AGUAxgDeA7BVsP89AM15v9cD+OHD396QCh95+00C4A/A39LSslYZEIqwcuVKkpSURCQSCZk2bRqpqKj4rON9w+ehNundtQVNqbx79y7Jzs4mly5d+mLH/v8Bp0+fJsuWLSNlZWWfdRyaJpuXl0dmzJhBnj9/LlhfXFxMtm/fTry8vEhRURHx8/MjixYtIrdu3fqs8ypCUlIS+emnn8i0adNqnUElDxKJhISGhhIfHx+yfv16Ul5e/gWv8sth7dq15MGDB6Rt27akXbt2pFu3biQ9PZ0QQkh+fj6ZMmUKycrK+uTj42tlkSlwke0A8JQQcvTD74MArgEwAjDxw2a9ibRnzD0ILZiHACgxlx6kRJpehJDtiq7hcywYQEpc6Ovri4KCAkyZMgWNGjX65GN9w38fCCE4cuQIYmNjYWdnh5KSErnV5J8DmrBAC9k+FkFBQTA3N/+PWFqEEAQFBeHly5coKytDamoqysrKQAhBixYtMGDAgC9+voMHDyIiIgJqampQVVVFTk4OfvrpJ4UEkf8LeP/+PbZv347vvvsO33333b/WXbM2WLRoEWMTHzZsGPLy8rBixQq4ublhyJAhKCwsxKJFi7BmzRpoa2sjOztbxpWZl5eHiIgIxizPx78dg5kPwIkQMv5DM7IXAIYTQgLl7H8PcoL8H9Z54yu7yPhITEyU20joG/67QAhBSkoKTE1NPymmdejQIWhoaFTLt6QI79+/x+XLl+Hu7o5Xr17h3bt3EIvFMDU1hbm5OczNzQV9bGqD4OBgHD58GGKxWG4TvK+JvLw8+Pr6ws3NDa1bt4a6ujrq1Knzr/H6SSQS5OXl/Ve7lz4GhBDcv38fDx8+/OwUfEUoKSnB9u3bYWBggLFjx9bY6qOgoAAbNmxgLM78b+bx48e4efMmAKlretmyZdDX10diYiJmzZrFlO2cnBwsWrQIDRs2RFFRESZOnAiJRMIUon/bRaYF4C9IG46FQNo2WdH+98BzkVVZ5w0FLjL+v2bNmn2yafcN/1tIT08nM2fOJJs2bSKTJk36qMJZPk6ePEl27dpV43aZmZlky5YtJCYmhixevJjs2bOHpKSkkFOnTjE3Dy0YraysJDNnziSpqakfdS3Tpk0jEomEnD59mvz111+f7Y6qLQoKCshvv/1G0tLS/pXz/f+EdevWCZgF0tPTyZQpU8jixYvJli1bPsoNX1paSkpKStjvRYsWkYiICHLhwgVy8eLFGve/ePEi+fHHH2UKvPl4+/YtmTdvHsnPzyfp6emM4SAzM5OUlJSQrl27krlz55KNGzeSixcvEnd3dzJ9+nTy+vVrQsj/R4WW3/B/F4QQTJ8+HStWrICOjg4L4M+cORNHjx6Fl5dXtRZNSUkJCgsLmdZ15coVvH//Hs2bN0dMTAy0tLQYrTogLbZdunQpZs6cicuXL2PIkCE1tlUoKCjAokWL4OTkhPT0dDRs2FDQbjsuLg6hoaGMlDEqKgq3b9/GxIkTQQjB+fPnERAQAGVlZfz4448wNjaWIeakyM7OxtOnT5GZmYn69euztHpCCBITE6Gmpia3z1BcXBxu3brF2nP/JzjT9u7di9GjR380e/L/CvLz8zFz5kxYWFiAEILy8nIsWLAAOjo6CAwMxN69e9k4LC0tRY8ePaCjo4NXr16hQ4cOcHJyYtaljo4OCCGM2bx79+7o1q0bCCGYM2eODPtzVfTs2ROLFy+useX506dPERQUhIkTpVGM69evY926dcjMzMSsWbMwZswYREVFYefOnbCwsEBSUhJevHiBtm3bYsWKFV/HRfbfgH9LwBBCWG8IX19f5OfnY8yYMd9iNv8SDh48CBcXF0HV/uvXr3Ht2jU0aNCAkXJWBSEEa9euRVlZGeLi4rBq1So28T5//hy5ubmwsbHBhQsX0LdvXxYHWLhwIRYuXKhwglcEiUTCXHiBgYG4ceMGsrKy0L17d5w/f17Q4XHHjh0YMGCADAt3eno6rly5gpiYGBgYGGDKlCkC4XnhwgU8ffoUffv2haGhIZ4+fYqUlBQYGhoiNDQU9vb2KCkpQVhYGFavXs1qhUJDQ7Fv3z5Mnz4dJiYmX8UVVllZKSBDJITgypUruHHjBsaNGwcNDQ0cPHgQurq6Ms36/i8hLS0NderUqTHjjhCCS5cuoaysDE2bNsX9+/fx9u1b5OfnY/ny5dU2I/zzzz9hY2OjMCX/3r172LBhAy5evFira16zZg2cnJygra2Np0+f4qeffkJ6erqgZxAf58+fR506deDu7v51XGT/Df/+DRfZw4cPyaxZs8iCBQvIhAkTSEBAACkvLyezZs1i5mtYWBhZunQpiYyMVHic6Ohocvjw4a9+vf/XEB8fT3x8fBSur6ysJDNmzCCxsbHkwYMHbHlSUhKZM2cOefz4MSFE6vLi807xXRX5+flk6dKlhBBCwsPDydatW7/Y9UskEnLu3DmSm5tLtm3bxtwVtSGF9PPzY9dSXFxMvLy8yJkzZ2S2e/XqFXnx4oVgWWpqKvn1119JUFAQuX79OlmyZMlX5YArLi4ms2bNItOmTSOnTp0ihw8fJtOnTye3bt0iEomEzJw5k0yePJmUlJSQHTt2kKCgoK92Lf/tyM3NJaGhoYQQ+ZmT1WVT0nXl5eVk+vTpCvdv3749iY6OrvU1SSQScv/+fXLs2LFaZXNKJBIyd+7cr0N2CcAAwOsP/1IgpXyhv1UAiAG8AnDpI/fTA3AaQCiAdwDaVHcdX1vAUNJGeQ/83bt3ZNeuXeT48eNk/fr1JCsriyxbtoycP39e7rFWrlxJpk2b9lWv9/8aqPAoLCysdruXL1+Sbdu2kaNHjxIfHx/i5eVF1qxZI5N++ccff5AlS5YQLy8vMnv2bHLkyBG2bunSpSQoKIhMnTqVFBUVfZX7SUxMJFu2bCGFhYXE19e3VvssX76chIaGkt9+++2jJgxCCCkpKSH79++XYd7+GpgzZw6Ji4sjlZWVxM/Pj4SFhQmEeF5eHmOyLikpIV5eXl/9mr4E6JhZtWrVF0uj37t3L5kxYwbZuHEjmTJlilxy3Ddv3sicLzg4mAwcOJApCjdv3iTnzp2T2ff69etk6NChX+Raq8ORI0e+fgxGXsYXx3EeAJoD0CFyWitXs99hSNsx7+c4TgWABiEkR9G5v7aL7MWLF4iNjcX3338vd/3cuXPh4uLC+ikAwK5du6Cnp4eGDRvi3LlzSExMxObNm+Hr6wtdXV389ttvH+16+f8Vt27dQllZWa2bigHS2IahoWGtnvGxY8egrq6OIUOGICkpCdevX0enTp1gY2ODyspK5OXlfXFOt19++QU6OjqYPHlyrRqNFRYW4tdff8X69ev/leZ0tQW/3/2lS5cAAH37yv3U5WLRokVYvnw5RCIRCCHIz8//j34XERERSE9PR5s2bXDu3Dnk5OSwrpXff/89/Pz8cOXKFZibm8PExAT9+vX75IZuCxcuxKpVq/Du3Ts4OTnh1KlTSEpKgr6+PoyMjBAYGIiSkhJYWVkxwtzKykrMmDEDP//8M+7fv48ZM2YAkLKPLFq0SJCN16lTJxw5ckTQZvxr4aulKfNO4A2eoOA4rh6AwwBWAPCorYDhOE4XUkvGltTywr6GgNm9ezeio6PRuHFjvHv3Dp6engp7VRMinwLmzp07yMzMhLu7O4qLizF16lTMmjULenp6iI2NxeDBgz/5+goKCmrs9/5/Bb6+vpg/f36NvcI/B5s2bULbtm0FvuwLFy7gyZMnKC8vR69evT6L66oqqnb7/F9Efn4+hg4d+v/Y++qwKNP27fOhuwQEQQQUsXttXdd2XWvDXnNXXQsVFJRWbEWxu7vXDkQUxURQUVG6u2MYYOb6/hif+51hhnJ1331/357HwaHz5P3UffV5Yfz48TAwMMCDBw/qTLF07do16OvrQ19fH/v374eOjg5UVFRQXFwMkUiEdevW1ZnGJCYmBvv27UPjxo0xdepUKCkpIT8/Hzt37kRkZCQcHR3RokULdg06OjrgOA4fP37E7t270aJFCwQHB2PEiBGws7NDcnIy+vfvz44fFxcHDQ0NxMfH48CBA9i0aVO1rdOJCN7e3hCLxfjpp5/Qtm1bZGVl4dChQ3BycpLZNiIiAmpqasjKyoKhoSHs7Ozg6+uLvn37ol27djh48CBatmyJzp07w8fHB7NmzYKxsTHy8vLg4eGBTZs2QVlZGW/fvsWiRYtw69atOt27z8VXS1Pm/1AppRgSF1dHAH1QyUVWw37tADwDcAgS99o+ANrVnftLu8jCwsLo0KFDRET0559/yjTW+St49eoViUQiEolE5OrqWuV2ubm5tG/fPgoMDGTLxGIxnTlzhoRCIW3dupVcXV1pzpw5MumL/1dR3b36UhCLxeTo6MhSdhMTE2XcNydOnCBXV1fauHEjFRQUyO37/wPev39Px44dY7937txJkZGR9PDhQ3r06NFnMWAIhUIaNmwYrVq1iu2fm5tLIpGIPnz4QI6OjhQVFUX5+fkUFRVFQqGQ7Xv9+nUqLCyUOV5sbCw5OjpScXExPX/+nBYvXkzu7u7k7OxMqampVFFRQU5OTvT06VPKyMigcePG0aFDhyg/P5/mzZtX50r85ORkcnd3r3aboKAgunz5MlVUVNDOnTtp2bJl5OLiUmsGAZFIRHPmzKGEhASZ+GFcXBxt27aN/X779i0tXryYUlJSqE+fPnLxuK8JfO2GY9KCAsAPAHZ8+n9dBUwnABUAunz67QdghYL9qqWKEYvFFBERwYJodYGzs7PMi/w14OfnR1euXCGBQEAxMTFsub+/Py1ZsoQ+fPhAixYtIoFAQERER48epUOHDtHcuXPpwoULRCQRhP/XEwZKSkpoxYoVf8u58vLyaMGCBRQXF0czZsxQGPNJSEigxYsX0/Xr19myZcuW0fLly6m8vFyuhiUyMrLK7pmBgYHk5eX1RTopfk2IxWJ69+4dLVy4kK5du0Zubm5UUFBATk5OX+T41SXFpKSk0IEDB2j9+vV06NAhWr58OTk7O7MkgtmzZ1NaWhob5/z589k3w6PycxSJRLR3716aOXMmFRQUkI+PD02fPv2z64H8/f3Jw8ODHBwc6OLFi3Tnzh3y9fUlLy8vEggE5OLiIiO4BAIB3b17t07niI2NpV69esl1nV2yZInM76ioKJo+ffoXeza1RXUC5ou7yDiOWw3g10+CQgOAHoALALYC2P1pFw8iuqzARWYGCc2M9affvQC4EJF8/uknSLvIxGIxzp8/jydPnqBdu3ZISEhAkyZNIBAIEB8fD0NDQ/Tt2xctW7ZU6NZKSEjAxYsXmW/za+L8+fMIDw9HQUEBfvvtNyQkJCAmJgZ//PEHAAmL7OnTpzFw4EBcvHhRIVW4k5NTjb3OIyIicPbsWZSXl0NZWRmWlpYYN24ctLS0EBMTA6FQCHt7+xorgv8buH//PqsT+DsQHByMJ0+eYObMmYyCXhFOnTqFzMxM9OnTB48fP8a3336LI0eOAAC0tLSwZMkSVFRUYMmSJfj222/x5MkTtG/fHkOGDIGhoSGePHkCf39/LFq0CM7OztiyZcs/8v7zpI8dOnTA9OnToaamhqSkJGzbtg2DBg3Cd999918ZF98WoKioCGvWrIGBgQFSU1Pxyy+/1Ln5XFlZGWJiYmrF1l0TAgMDoaSkhFatWqG4uBirV6+GlZUVXFxc/vKxFblVjxw5go4dO6Jly5Zs2ZIlS7Bs2bK/tRfU3+4ik1reB3WwYD4tCwJgL7V+fXXn7tixI61evZrc3Nxo4cKF9PDhQxnpeufOHfrw4QOJxWLKyMigXbt2yZj60ti8eXOdK7H/KsrLy2nGjBkKM4ru3LlD58+fl3PL8Lh48aKMK60yRCIRzZ8/n7VfLi8vp+fPn9O2bduYxnf8+HFydnb+MhfzhbF69eoqr/2/jRs3btCIESPk3CofP34kZ2dnmjBhgkz1dGhoKK1atYomTZpEhw4dYi6hy5cvU0BAAIWEhND9+/e/ONnq6tWrydPTk5YuXUr37t2rktRw9+7drDKbx+LFi6ttQf5PQUJCwj+SpDYmJuarMiXwbAy8ZXPo0KGvRhBaHfDfyCL7tLzPJwFSlyyydpDEXtQAxACYSkS5VZ27Xbt2NHHiRLmAWXVwdXXFwoULYWxsDIFAgKioKLRu3Rqurq7/laZChYWF0NLSqnPgVywWY8GCBVi3bh1CQ0NRWlqKXr164datW+jduzcePHgAbW1t9OnTR2a/JUuWYMiQISgoKMCIESNw8eJFqKuro2HDhjA2NmYNu3JycnDy5EkEBQVh3bp1f0tGivS1LV68uMZK5f8m+MJbRSCST/5YunQp7OzsEBsbi+XLl4PjOGRlZWHw4MFwdXWFuro6/P39MWTIEAwYMOAvjy8iIgKBgYGYNWsWysvLERAQgFevXkFZWRnfffcdmjZtCh0dHdy7dw9JSUkoLS1FaWkp5s2bB39/f+Tk5HwWZ9u/+PuQk5OD5cuXQ0NDAyYmJnB0dPzbx/DVs8j+m7CxsaHr16+jefPmtd4nNzcXXl5e8PX1RUBAAPbt24fffvsNT58+Zb1h/lcQGxuLxYsXo2/fvrC0tMSjR4/w3Xff4cqVK1BRUcHmzZvlJrrg4GC4urri7t27bILcsGEDzM3N8eLFC3z33Xd4+PAhTExM8OOPP8LExAQbN26Et7f333Zdhw4dQsuWLb9oZ9H/BkQiES5fvozg4GAMGDAAAwcOxO3bt1FeXo4BAwZg4cKFUFdXx5AhQ1BWVoahQ4fi5MmTyMjIgL6+PoYPHw5dXV1ERUXJveNJSUnYs2cPjIyM4ODgwJ7z/v37IRQKERsbixUrVkBDQwNEhJcvX6JDhw5wdXXFmzdv0KlTJxQXF6OsrIz1RLl8+TI+fPiA3NxchS3F/8U/D0FBQTh//jzq1av31Ug2q8P/aQFjbm5OKSkpdf4QIiIicOTIEWhpaWHRokWYOHEiHBwc6syG+0+AorTl9PR0REZGomfPnnLbExGioqJgZ2cnt04kEuHGjRsYOHCgTI7/mjVrYGlpiZCQEFhbW2PSpEl17k5YWxQXF8PHxwerV6/+KsevCvn5+Thw4ABUVVUxd+7czz6OWCzGrVu3kJ2djadPn2LcuHFo3769TD/5hQsXwsjICBMmTICSkhJiYmLw/v17tG3bFqqqqvD29sa3336LwsJCVFRUoKSkBEuXLkWDBg2Y8HF0dMSGDRsQHByMrKwsDBgwAIWFhThw4AB+/PFHpKWlYeDAgRAKhfD09ISlpSViYmKgpaWFiRMn4uTJkxCJROjduzeLcwmFQnTv3h3BwcFfNTX8X3wZZGVlYdOmTfDx8YGfnx+GDh2q8Lv+mvjqMZj/5p+5uXmNPsKgoCCWfSWNCxcu0K+//kpERMOHD6f3798r3H/ChAkyFd//dOTl5cmkz3p6ejIalMoQi8W1inPk5uaSv78/icViSkhIIB8fH1q9ejWJRCKKi4sjZ2dnWrZsGTk7O/9lCpAbN27IUL58Dt6+fUtz5syRW75hwwZ6+vSpwn1++eUXmjBhAnl7e9e6kr/yvU1OTqa5c+fS3bt3KSIiokp25KdPn9K5c+dklonFYvL09KT9+/eTWCymPXv20N69e9kzcnZ2Jj8/P1qxYgW1adOG3rx5QyKRiLy8vGjgwIHUuXNn+vbbb2ndunXsvCUlJTR37lyKi4sjIqKMjAy5a3NycmKZk2vWrKFt27Z9sTTX9evX065duz4ro7M6jBw5Uu7+rV69ms6ePSvX0KwqLFy4kMLDw7/ouP5uuLq6srhaaWkpzZ8/nxYtWkTJycl/2xhQTQzmn5e6UkfUppdEUVERMjIy5JZ///33iIqKQkREBJo1a4YnT54o3F9HRwdFRUV/eaxfE0FBQUhKSgIAbNmyBcXFxbXaLyEhAbt27apxOwMDA/Tr1w8cx6Fhw4ZwdXXF0KFDsWjRImzatAne3t5YuXIlVq1ahT179qCkpERm/8zMTD6Jg4GIcPnyZXh4eODt27ds+bNnz9C5c+dajb8q5OfnK3xmmZmZEAgECvfJyspCgwYNMGDAAPj7+3/Webdv345Vq1ahb9++sLe3Z5XuldG5c2f89NNPMss4joOXlxemTZsGjuPw+++/o0mTJnB3d4e6ujrS0tLw9OlTqKmpYfbs2fjw4QOEQiHU1NTQrFkzWFlZwcHBAf369YOPjw88PDzg6ekJFxcXNGrUCABgYmIix2I8bdo07N27FydPnoSenh4mT578xYr0iouLYWpqWuv3sbbQ19dHfn6+zLLS0lKYm5sjLy+vVscoKiqq9ba1AR8H5ZGWlobCwsK/fNzy8nJs2rQJ/v7+SE1NZcujo6PRoEED5klQV1eHn58fli5diuPHj//l834J1EnAcBxXj+O4sE9/aRzHJUv9NuU47hzHcREcx73nOK5bFcdQ4zhuM8dxURzHRXIc9+enyn9wHNeQ47h7HMe94zjuLcdxNeYL14YRtqioCJmZmXLLX716ha5du2LlypXw8fFBVFSUwv3/6QJmx44dePv2LbZu3QoAKCkpgVAorNW+OTk5SEtL+6zztm7dGk5OTli3bh1zpygpKcHFxUWmeZZQKISjoyN8fX3ZsszMTDg4OEBfXx9ubm44dOgQu/9lZWUK3TNnzpxBcnJyrcZWUFBQpYCpLPwAiUBSUlKChoYGunTpgqdPn8qsLy8vR26uJNfkzp072LJlC5s8iAgJCQmIjIyEmZkZdHV1azXG2qBPnz6YOHEiBg0ahMWLF8PX1xc9e/bEjBkz8OLFCwiFQlZt3rJlS4waNQodOnSAt7c3li9fjnXr1tXYSK958+aMluSPP/6Ajo7OFxMIRARdXd0v/v0YGBjICRgAMDQ0ZM+pJhQXF38xAfPq1SucPn0aTk5OePz4MY4dOwY/Pz+sW7fuLx97zZo1KCkpwY0bN5CSksKWnz17FuPHj5fb3tjYGNnZ2RCLxX/53H8VdRIwRJRNRO2IqB2AXQA2Sf1eD+AmETUD0BYSokpFWAVAF5JUZDsAlwBc4CRBlAoAjkTUAkBXAHM4jmtR98uSRVUWTFBQEKtDqErTBABtbe0vroEpgrR2QkTIyMjAw4cPFX5IPEJCQqCuro5Zs2ahZcuWePbsGQQCgYwmVRlEhJCQEAASASN93rrC0tJSjo+pQYMGaNu2LW7cuAEA8PPzg6enJywsLLB582bk5+fj2LFjcHV1xbfffgs1NTWsWrUKfn5+yM/Pr5J6IzY2FqGhobUaV35+vsK4XH5+vkIL5ubNm2jSpAk4jmOJDyKRCIBEQC5evBje3t7Ys2cPXr58iREjRmDVqlUIDQ3F3bt3cfbsWezZs4f10/iS4DgOQqEQLVu2RP369dG9e3dwHAcNDQ2kpqbi1atXdeJqU4QPHz6ge/fu7HfLli1x8+bNvzp0AKhWYD179gwVFRXsd2Urtyro6uqioKBAbrmBgUGthQYRITc3V6HyWRfExMTg4MGDWLVqFVatWoWsrCy0aNGC1cGEhYXJbB8YGIiysjKFx0pMTGT3Izs7G/7+/mjatClcXFzw9OlTdm1EhLy8vCrrXb777jsEBgbWOHahUIiLFy/W9lJlsH79+hq3+SIusk8cYr0B7AcAIiojBQSVHMdpAZgKYCERiT5texCAEEBfIkolopeflhdCIqT+ch/joqIiNlnwKCkpQVpaGurXr89MzAYNGshoCJ/GAY7jav3ify7KysqwdOlSiMVibN68GW5ubjh79izy8/OrbKUrFotx6NAhRrQ5ceJE+Pv7IygoCGvWrMHChQtlPl4ez549w4IFCyAQCJCTk4OysjLEx8d/0ev56aefcP/+fSxevBjNmzdH48aNMXbsWAwdOhQLFy5ESkqKTLMrVVVVzJw5E87OzujWTaHxC4FAgPDwcLnlisaen58PfX19ueXq6uoyFkxmZiY8PT0RFBSE+vXrM6E0ZswYuLm5ITY2Fo6Ojli4cCE2bdoEGxsbLFmyBI0aNcLq1athamqKsWPH4scff8T69eu/So+VK1euKOyFPnToULi4uGDUqFFQVlYGx3HVaq3Hjh2rcl1oaKjMOz5hwgQkJSVh3759f2nsRARtbW2FFsz79+9x7tw5ODk5ISwsDGVlZRg+fDjevXtX43GVlZXZtUpPpLwFIxKJ4O/vj/Ly8iqPYWBggICAAPj4+GDjxo1yc0RtcO/ePRw6dAjr1q2DkpIS9PT0MGzYMPa8pk2bhn379rHvMCUlBWfPnoWHh4fcnBIYGAg/Pz8sW7YMYrEY7u7uuHr1KkaPHg1lZWWYmJggODgYgISEtzo3cv/+/XHv3r0ax5+ZmSlnrVcHacF44cKFGoXzl4rB2ADIBHCQ47hQjuP2cRynqBS6CYAEIqqserwA0FJ6Acdx1gDaA6j26msz8RcXF8tlWW3btk0uU2jw4MGMFZZHZXfN3Llz/7KwEYlE2LhxI1xcXHD8+HEcO3YMf/zxB968eYOlS5eiT58+WLlyJebMmYOhQ4eidevW2LVrF2bPng0nJydER0ejoqICrq6umDFjBtO4lZSUsGzZMrRs2RKzZs3CzJkz4eLigoiICJkP/MqVK9i9ezcOHDiAnJwc6OjoYObMmbh27Vq14yYixMXFyS3Py8vDnj17AEhiOg8fPgQArFy5EmvXrsWwYcPYtnZ2dvj+++8VarStWrXCn3/+WSXDMMdxCvebPHmy3DMpKChQKGA0NTWZBSMQCODl5QUnJyds27ZNxuJp3bo1pk+fjhMnTmD9+vVo1KgROI7DgAEDZLazsLBA48aNkZ6ernDMXwLZ2dkwMTGRmwA7deqE9evXM0Gtq6tbrc//7NmzCpcTEaKjo+Xu7W+//YZGjRrB29v7s955PtDLWzBlZWW4cOECW79v3z74+PjA19cXly5dwuzZs7F27VqcOHGixmPzzyA1NRWOjo6Ijo4GIHGZZ2dn48iRI5g2bRp+++03NilXhp6eHj5+/Ag/Pz8MGTIECxYsQHZ2do3XxOPOnTsICwvD8uXLq2RVVlZWxpw5c7B582YQEfz8/LB27Vr89NNPcHNzw5IlS/D7779jwYIFiIyMxIYNG/Drr7/CyckJV69exdSpU9m1mpub48GDByAiHD9+vEqrtbi4mDFU14TMzEyFlmBVWLp0Kft/bGwslixZUu32X0rAqADoAGAnEbUHUAzgs/kROI7TAXAewAIFwggcx83gOO4Fx3EvYmJiajyeQCCQ0Szz8vIgEAhY4JOHra0te1F5lJaWyuwbEhKCv8re7OrqimbNmmHixIlo3749OnXqhHnz5sHIyAhr165Fu3btZLYfN24czMzMsHXrVnh7e8Pf3x/Ozs6YMmWKwm5zvIusWbNmWLBgAfT19REUFITU1FQUFxdDVVUVLVq0QEpKCj58+IDY2FgcPnwYjx49QkJCgsIx5+TkYOHChfD29mbJBIBk8nv8+DE+fvwIQGLi8/dnzZo18PLywsKFC2WOFRcXp9Al6e/vDz09vWonwsrgLdHK70FVjNNaWlooKSlBXFwcozmvHDPhz9OkSRO4urrW2Nq3fv36X03AJCUloWHDhqhfv75CN69QKGTvZ03xh/fv3yt0zeTl5cHCwgI5OTly6wYMGIABAwbg4MGDVR63rKxMLikiMjISDg4OePDgAdzc3JCRkQE/Pz/MnDkThYWFOHbsGL777juoqalBSUkJnp6eWL58OVq0aAFNTU1kZWXh+fPn1bqHAUnNz/nz51nK9erVqxESEoKcnBx069YNy5cvx5kzZ5jwPHfuHM6dOwciwtOnT9m31qJFC7i7u2PNmjU4d+6cwnMlJiZi6tSpWLJkCZydnZGamir3bitC8+bN0ahRI3h5eWHYsGHQ0dHBN998g5UrV2LdunUoLi7Gt99+y9yrrVu3hq+vL5o1aybzDmtoaMDS0hKTJk3CpEmTqrSW9+7di/DwcJibm8t5ZCojMzOzTokI799LIh9EBBUVFQwfPrza7b+UgEkCkEREvLVxDkCHT0F7PglgFoBoAFYcx1WOgnYE8BYAOI5ThUS4HCeiC1AAItpDRJ2IqJO6unqtglnSWuepU6fw66+/KtyuadOm+PDhAwCJpVFQUCDzIHv16oXr16/L7FNeXs60dh6Vtc3bt28jIyMDDx48QMeOHVFcXIyYmBi0aNECzZo1Q05OTpXmPMdxGDlyJJSVlaGtrY2ZM2di48aNsLe3V7h9SUkJi8GYm5vDwsICAwYMwK5du+Du7o6xY8cCALy8vBAeHg59fX3o6ekxyu/g4GDcu3cP27Ztw5kzZwAAmzdvhru7O/z8/LB3714AwOvXr+Hl5YUVK1awsRcUFCA5ORl79+5F165dsXz5cvTq1Qv3798HIHmhc3JyYGZmJjN5hIeH4969e9DW1lboBuOhpqYmk8DA9xF//PixzHa8a1Ma5eXl0NPTQ3JyMrZu3YqNGzfKBcB5AVQX1K9f/7MTJWpCREQEWrdurdB9C0gUIN7Crin+UF5ezpQDaYEcFxeHDh06VKm9d+/eHSkpKQqtV0Dii1+7di02bNgAIoJAIMDWrVuxYcMG9OnTB+vWrcPp06eRnJyM9u3bY8yYMVBSUpLpHcNxHBo0aAAAmDp1KlauXMkyHF1dXeUETUlJCSIiIiASiWBtbQ2BQICAgAD8+OOP6NWrF5SVleHu7o5Lly4xfq7IyEi8ffsWAoEAkyZNgo2NjUxL4g8fPsDe3h7v37+XE7Y879muXbuwevVqrFy5EpMmTaryXlfGL7/8Am9vb4V1abm5uQpZPEQikUxSi66uLqysrDBv3jx07NixynPl5ubi7du36NOnD/vuqkJmZma1rsF169bBx8eHzbFRUVHM/dixY0cZZVMR6tZsoQoQURrHcYkcx9kT0QcA/QC8I6JESCj4GT41FPPlOG4WEYk4jpsEQAtAwKdA/34A74nIF7WArq4uAgMD0bdv32q34/3TfFGbra2twu1+/vlnzJgxA7a2tlBXV0dKSgoLfpaXl0NXVxclJSUyE1hmZiZu3brFXp6srCw4ODigfv36mDFjBpo2bYpr167h8uXLICJs27YNmzdvZpQs/DFMTExqc8k1QigUMgFTVFQEXV1diEQizJo1S0YjUlVVRffu3WFtbY20tDTY2Nhgw4YNOHPmDMzNzTF69GgEBgbCy8sL5ubmqFevHgBJ0Hbp0qWoV68e/Pz8sHjxYuaGKCgoQFxcHAwMDJhGNmrUKCxYsAAWFhbYuXMnPDw8UFBQgA0bNoDjOFRUVEBdXR2enp4ICQmBlpYW4uPj5SxMQKINRkREoG3btgCAsLAwjB49mgm96pCVlQVzc3McPnwYQUFBCjPV+Em6OrJLHrylY2pqqtC6+BxIN/ECJM/P2NgYWlpaSE5OlptYhEIhu47qLBgigpWVFeLi4tCgQQMsXLgQf/75JwBJDKtDhw4KLRgeTk5OcHZ2xpw5c9C0aVO2nE+bNjc3R8eOHXHo0CEUFBRgwYIFzG3UoEED9OvXD926dcPAgQPx4cMHhdlPPBo0aIBNmzax31lZWXBzc4OjoyOsra0RGhqKBw8eMHonAPjxxx8hEAgYaWVOTg5atWqFY8eOoUGDBliyZAnc3Nywfft2aGlpYfz48VixYoXMebOysvD69Ws4OzvjwIEDMvRTmzZtgqurq5zVwBNvfi4yMjJgZ2en0FIzMTFRmDXZuXNnpKeny8QwK48pMjISY8aMwalTp6o9f2ZmpoyQlYZIJIJAIICJiQkyMjJgZmaGzMxMZGZm4uzZsxgyZEiNFtIXETCfMA/A8U9dKGMgCeYrwlIAGwB85DhODElr5FFERBzH9YSEifkNx3Fhn7ZfRkTXFR9KEne4fft2tQKG4zj28cXExKB9+/ZVbquvr48dO3awydTFxQUCgYDxRpmYmMDKygq3bt3C4MGDAUjcRNIvyKZNm7B161bo6urCyckJAwYMwKhRo9C5c2ekpaWB4zgkJyfLxAi+pIBRV1dnAqagoAC6urooLy+v0m1kZmaG1NRU2NjYQFlZGePGjWPrRo8ejevXr8swGjs6OkIkEkFVVRVEBC0tLVhZWeH27dsoKChAbGwsdu7cybbnOA7z5s1DcHAwJk2axJpM8R84L6zj4+PRsWNHNGjQAFu3blXIFN2mTRs8e/aMCZikpCRYWloqdJ/xSgXHcUx7v337Njp27FhllbqhoSFzGdUEPj6nqqqqMJnic7BgwQJ4eHiwyYN/Ztra2nj+/Lnc9pVdZJVdvNLbNW/enAl/ac0zLi4OHTt2rDabUENDAxs3boSvry/y8vLQrl072NjY4PLlyxg/fjz8/f3x3XffwdfXFzk5OUyB45+tpqYmMjIyMGzYMDx48KBO98TY2BgbN25kjf8MDQ0xePBgiMViNrkbGRmhTZs2bB/+veGFnIWFhYybT5HFkJWVhaKiIlhYWCA7OxtxcXGwtLREaGgojIyMmIUlDU9PT/z++++wtraWWe7n5wexWIzp06dX26UzKCgIw4YNQ0REhNw6CwsLOQHDXxcf31TkvlVVVUV5eXmNSR+AxD1aOVbJPzN+vrO0tERSUhKioqKgrKwMT09PtGrVCoaGhl9PwBCRV6XfYZD0c6lpPyEkwmiegnUPAdSJ86WgoIC5NbS0tJCbmytDYbJ9+3YEBATAyMgIr169gr29PRYsWFDtMXnhAgADBw7EoUOHYGtri4yMDNSvXx9DhgyBk5MTevToAV1dXWRnZ7NA2ePHj9GkSRNWAPrDDz9g06ZNuHbtGjiOYx+eQCCQccXwbqOysrLPbsPKQ1NTkwmYwsJC6OrqoqysrMpUUXNz8yonJgBywUQlJSWWWBAfHw9ra2twHIc7d+4gPDwc6urqclpRkyZN0KRJE4XH5z+a6OhodO/eHe/evcPo0aOxYcMGLF68WGbbxo0b4+TJk3L7a2lpobi4WMby0NbWRklJCU6ePInY2FjExsbi119/rdYFZ2BgUOs6ipKSkhrjM3VFUlISgoODMWrUKAD/ETAmJiYK4zylpaUshsQrUceOHcOIESNkYkv5+flo0aIFkpOToaSkhA4dOrD7lZubi8aNG8sUuyqCiooKC+o+f/4cz549w4oVK/D48WOWRFJV5iIgoS8yNTVFs2bN8PbtWxma+ZqgpqbGakpKSkqwbds2mfc5OztbpuiaVzj4yVZVVRXu7u7Q0NCAg4ODQguV1+aJCAsWLMCVK1eQkpICExMTzJw5U257IsKtW7fw888/w9raGnfv3kX37t2RlpYGFRUVdOjQAf7+/tV2r3316hWWLVumMJOrcv2QtLKVlpaG9PR0OcFWGe3bt8fjx4+rzMwkIhnCVpFIhK5du2LQoEFo0qQJ6tevj8ePHyM2Nhb6+vro3bs3Zs6cCaFQWGN8DPhyMZj/GpSUlNCjRw/cunULgYGBGD9+PNPEnjx5Ah0dHXz33XeYO3cuJk+ejCVLlshM4GKxuMrKbkDikxcKhaioqEB6ejq0tLTAcRwWL16Mbdu2AZC83CUlJSguLsapU6cwZcoUtv+AAQOwb98+OU1cS0tL5rxisRgmJiY1ZrHUBhoaGjICRk9Pr9piUXNz88+uhXn69Ck6d+4MjuOwfv16dOrUCX369PmsrKOYmBi0adMGRUVF6Ny5M9q3b4+VK1fKaGHS6anSPTJat27NBAcR4f379wgODmYJAKtWrcLIkSNrJEWtSx2FQCCotl1uXVFeXo42bdrg1atXbBkvYKSvWxqKXGR+fn5ITEyU2a6goAD16tVDRUUFYmNjMWTIEBZrBCRKVXUussr45ptvMGfOHCgpKSE7O5spdRzHMRefSCSSm7xUVFQwevRoFtv7HPCJN9LlAzk5OUzACAQCJkCkCzJ5wfrq1Su55B1Aci+bNGnCUuh/++03eHh44I8//lDoBnv79i3atWvHjn/9+nVs3rwZR48exa+//op27drJ3OPKEAgEKC8vh4aGRq0sYOlvKjMzUybu9/LlSxnFifdijBw5sk51LidPnkRRURFWrFiBsLAwHDlyBP3790evXr0wbdo02NvbIy8vj5UB8J6EqvA/L2B4t0BwcDAuXryITZs2YcWKFbhy5QqOHz+OX3/9FRzHKfSTl5aWwsHBoVr/vUAgwNChQxEaGooPHz7A3d0doaGhMDMzQ3FxMTZs2ICDBw8iKioKTk5OcHFxYcLk7NmziIiIUGhaa2pqygWT69Wr90UEjCIXWVW1CIDEBZGVlcV+16TJSiM+Pl4mrVhZWRnGxsbIz8+HSCSqk6BJTk6WuVf9+/dHv379sH//foXbx8TEsHNLp1CvWLECampq6NSpE6ZOncqauNXGDVmXSnCBQFCtBRMeHi5zX2vC+/fv0aZNG5nJpri4uFohJu0i09HRwYMHD5grVhr5+fnMVSMWi9GqVSuZehN1dfVasz9URk5ODurVqycnABWVBwBgStrnFC8/ePAAv/zyCzQ0NGQKoKXT0lVUVFicqLLCYGpqiuzs7CrH1rp1a7x+/bpWY7ly5QomTpzIBIyOjg50dXUhFAqhp6cnkxKvCLt27frswlw9PT2ZZ3z69GkZAWNvb48PHz5ARUUFDRs2rDJBA/iPZSQUCvHy5UskJyczZWfLli347rvvkJmZifT0dBkBo6enJ0d3VBn/8wJGQ0MDycnJePr0KUpLS7Fq1SqsWLEC5ubmcHV1ZfngJiYmckVBGzduxJIlS6qdUEpLS2Fvb4/8/HycOXMGFy5cwKFDh7B9+3bcvn0bw4cPR48ePTBw4EDs3LlTJnAfGBio0B3Dm6WVJ19ewJSXl+Pp06fVFonVdE8UWTCVP2j+/EpKSmxyoE9Mv9WBtwwA+UmWiJjvePfu3bh9+3atxy0Wi+V84127dkVkZKTCye/Nmzd48OABli1bhqCgIOzZswdHjx5Fq1at0LhxY7Ro0QJbtmxhfWyktdyqUBcLpjoXWWlpKRYuXCjDPHD06FGZ2BQgWyTI0+lLP7/KLgxF5+EtGI7jEBERgZkzZ8pZpNITMO+qrc4tKo3qJidAYsE3adJE7r7x7llF+Omnn3Dp0qVanb/yuZSUlKCpqSnDR1ZQUMAEqIGBAcuwrPw8jYyMkJOTg6KiImblSH+HrVq1kvlmq6O/Ly4uRsOGDWVcRbNnz2aJB9UhNzcXBQUFVSYbVUbljpZmZmYyAqawsFDGhdqyZUumKE6dOhUbNmxAWVkZysvL5RSB/Px8Ri30008/oX379khOTmaF6PxcVVnAKKozq4w6C5hq+MgiOI57yXHcq088YlU2D+E4rinHcdc/cZG95DjuDMdx9TmO6yx17Fccx42qzZi8vb1x+PBhuLm5wcHBATdu3ECnTp1gZmbGtqmspQOSIG3Dhg2r1bJ5U7pbt26wsrKChYUFfHx8MHLkSHz//fdo2rSpjBYpDU1NTURGRrLf0dHR2LFjB/MXVyVgQkNDcfXqVcyaNUvhmGoyp6VjMLwFo8hFpsjFk5mZifDw8CqDg3v27MG+fftkgpK8BsRfDy9gEhISqixyqwumTZuG9evXs0Ajn1Z59OhR/Pbbb/D29oarqyv69OmD/Px85vOufM28i6Y6fAkXWV5eHjw8PLBs2TIWBD1x4gT09fXlJn5potHo6GjY2tqiU6dOta61knaRAZLgso2Njdx5eI1TSUkJJiYmUFFRgUgkQkxMDExNTas9h7Ozc7V1PoWFhWjSpIncNtUJmMoWlCIoegf5wmANDQ3o6+uzZyUtYKZOnSonYHh3HS9g+PgTH6fjIV2sKhaLcfDgwSpTcZWVleVIN5WUlGTeCRUVFYXf6+PHj6tsBV5SUoK7d+8C+E+iCq8oApI5qWHDhkxhTklJQfPmzZGbmytTwxUQEICCggLo6Ohg0aJFWLRoEdzd3REQEABA8j3wtW+TJ09m7uju3bsjISFBbl7jM95yc3O/noCpio8MQHMAvYmoLSSpyYM5jpNrkM1xnAaAa5AUZdoRUQcAOwCYAAgH0OnT8QYD2M1xXK0SEWxsbNCwYUN07NgRYWFhcpM3/0HVFbyAsbS0RL169cBxHHR1dWFhYVFtlkZpaSkMDQ1lTOTLly/j7du3SE5OVpilxPvBP3z4gMmTJ8Pe3h4FBQUs6AhIKD28vLyqHC8RyVkwVbnIpDV6/n5FRESgb9++CrVW3hr4448/5Kwh6ZgSL2Cq+rhqC35MzZo1w7fffguBQIDg4GDcunUL9+7dQ2lpKeufoqenh4qKCsydO5clStSFpJSfgOoyZkUusujoaCxduhS///47unXrxgTMhw8fMHz4cJlYXHl5udwky3EcOnToIMdfBci6PnlUngSGDBkCHR0dueI5fgK2trZm2VYikQibNm3Cb7/9Vu11pqen482bN1WuJyJWCCoQCNg1FxYWMjdU5bokjuOq/X6ICAMGDJATWtnZ2dDV1YWGhoZMfIVXpACJMslr+7yA4Xm79PT0UFBQwASMIoWCtxgLCgowffp0HDp0SG58fHaiIlZnadja2srUHPHCLDw8HK1atVK4T1xcHO7evQsNDQ2mGPPXp6SkhJSUFDRo0IDNZ7dv32YZrbwgUlVVxerVq+Hi4oLs7GzY2tpi1apVCAsLw9q1a3Hjxg3Mnz8fzZo1k6lHSkpKQo8ePRQWXJeXl8PIyAiFhYVVZqRWxhdzkX1qDcB/zaqf/hSZBuMBPCaiK1L7BhJROBGVEBH/dWtUsX+NMDc3l/nA+Bc7Ly+vzsR2/CSiaLKqLjAaFhYmV5GfmZkJU1NTxMXFMQEF/Odl5S2Y2NhYWFtbo0OHDggNDUVCQgIiIiLw6NEjnD59utrxlpWVQUtLC6WlpQgICGACRtH4pQWMiooKhEIhIiIi8NNPP8nEYfbv3w83Nze0bNkSgwcPViis+A8X+A+lhZ2dHaytrREbGys3zmvXrsmk3Upnz/ETz+jRo1lMqlOnTmjdujUmTZqEiRMn4tKlS2jXrh2bXKUnL15br3zNlZUOvrMk8HkB+8ouMp5VeezYsbCzs5MR9NLgJ9Xk5GQZQc1fg5GRkUIrqrJbBJB1kUkfp3JSCe8iGz9+PHr37g1AQtsze/bsahuLpaWloW/fvjXGJXgB8+jRI1y5Ivm0+RosAHLZnQDQtm3bKo978+ZNzJgxA7t375ZZXlxcDBUVFWbB8JO7dMqyNHgBwp+fTwyoTsDwyMvLg42NDUQikZwVk5ubCyMjI5alVhVatGjBlIj8/HzmPpO+N5WRkJCArKwsaGpqwsLCAklJSUxw6Ovr4+PHjzLemaioKDRp0oSRd/L32cTEBCtXrmRchnp6emjVqhV69+6NiooKuLm5oVmzZjLfbmJiIrp16yYnYHjaH2l3rSIy2cr4ojEYjuOUP9WvZAC4I1XZL41WAEKqOUYXjuPeAngDYJaUwKk1+FoGQCJ1eW3m119/xbJlyxROeFWBt2AUTdDSH3zlCvPnz5/LtPvl/ZnffPMN/vzzTxkLhp/oeSuAd+V06NABL1++xMOHD7Fx40bs3bsXZmZm1bp5eIFYUlKCmzdvsloNPgbz5MkTNmlLC5hOnTohJCSEUb/zHwVf+ezj44N+/foBUMyOK/2SqqurIygoCL169cLgwYPlWHlfvnyJW7duyWjpvPAFJII7MjISdnZ22LJlCwDIpCBbWlrit99+qzKdm59Ma6KJv3HjBrtOPs2dvy/VsVHzkBZK/LPLyMioNpGgYcOGLMOLVzQAyXvKP9eqrCgjIyO5eGFlFxmPysKUF7qqqqpsYpgyZUqNWXVPnz7FkCFDakx8MDU1RXp6OsLCwpjSJZ1YIBKJZOKTANCvX78q++74+/tj9OjRUFNTw4sXL9j94AtzeQumJndmZQHDo7KAUSSoeavH2dkZa9eulbGm+JIFHlW52Zs1a4b379+zOiyeUqk6JCQkMOWFr0HhLVADAwN8+PBB5txKSkrsmVaOMxoaGqJv3774888/kZ6ejkaNGqGiogLDhg1DTk4OTExMZL7d4uJi1KtXD0KhUEaA6OjofBYh7hcVMEQk+uTesgTQmeM4xTZg9cd4SkQtAXwDYOknl5oMpLnIFFkk0rUM0tkiHTt2xIgRI5CVlVVjX5GioiIQERMwvBUgDWkBo6enxwK6RITU1FSYmpqyh3f58mUMGzYMPXv2xJUrV2Q0kMrZTfzLyk8oERERaNGiBX7//XfGnCwNaXcWP1GWlpbKaLu80Dl8+DATsNIvY7du3fD48WPWv6O4uBhEhD179sjFgmqyYADJh8W7LSsXY507dw4bN25k4+MDlLyAMTU1xdGjRzF+/HgYGxsjJiZGRsAo0uSlcefOHWhra0NHR4f5shVVLJeUlLBnJi1gnJycsGjRohonVWkXGa9NZ2RkyMU0eO0PkDAR8HxOfAZeeXk58vLy5BIQpNOVgf9YzPy4BAIBCgsLFRYNVkZFRUW1LSmkx1p5DDWlogKSd5UvOOYVrezsbHbPtbW1Zd55fp/U1FRcvHhRxlV2/fp19OnTBxzHYf78+YiOjsaiRYtkroUXMDU9I95dWJOA4YsKpcELGA0NDaxYsULGVSb9nDmOQ0lJicLaGr4278cff8Tr168hFApllAlFSE1NZee1tbVFbGwsc5EZGBggIiKC3UvpZAVAsaU4ZMgQ3L9/H4GBgejRowdbzs87enp6NfKR8YK+rvgqWWQkoeq/B0kcpotU4H44JJxjVRPp/OcY7wEUQWLxVF7HuMgUaYv8S0NEcr5CQ0NDZGZmwsfHh0lovkiPR0FBAQYNGoS4uDikpaUxC6byxCE90enr62PVqlV4+fIl878DEjdEZGQkPn78CFtbW+jp6aFHjx6sCh6QFTCVs0U+XS84jkOPHj0UBtZmzpzJ3BL8pCcQCGQmYT4TJCIigml90gJG2urjceLECfzyyy9yH4O0BcNfQ2UBs2vXLnZ/K5vSampqrPp94cKF+P333/Hy5Ut2f+vXr4/AwEC0bNkSPXr0wJs3b2otYJ49e4YtW7ZALBZDR0cHoaGhKCoqwuvXr2Uqvfnj8P5xaQHTqFEjLFq0COfPn1d4Dh7SLjJ9fX08evRIYaZaXl4e++h5qhtA4u9u3bo18vPzFU4Mnp6eMhO+kZER4uLi0L9/f8TExGDRokVVBsorJ17UBoommvLycqipqUFZWbnaGKZ0nQ5/zuzsbBl6ocoCBgA2bNiAlJQU5iorKChAQEAAY+DW0tLCmDFjZPqeiMViqKqqsoB9cHBwldfJu8TS0tLkBIyOjo6MgOGFIR/rku63YmBgIJMMUFmRUPT8eKxbtw6///473r9/DxsbG4SHh8vQ7QCSglCeiFQsFkMsFkNTUxOGhobIyclhLjIDAwN8/PiRnVtaAVBWVkZWVpbCTMnp06fDx8dH5hvgr1lRb53KQXwlJaXPiqd+MQHDcZwJx3EGn/6vCWAAgIhPFkm7T3+XAZwA0J3juKFS+/bmOK4Vx3E2fFCf47hGAJoBiKvrWAwNDREbG4sNGzbI5bsbGBggNjYWGRkZ7KWszFS7YsUKzJgxAyEhIXj06BFUVVWho6Mjx/1jZmaGlJQUFuxLS0vDvXv3MGfOHPaB2NnZ4eDBg+jVqxfbr3Jdh7SAqczBxX8EVUEoFKJXr14ICQlBSkoKEzClpaVygiE1NRX29vZM66s8GYrFYhbTUFJSwtu3bxWS81V2BwKSySkvL4/5aC0tLWXWK5oAeGvpt99+Q1xcnIyAad26NTiOY0zF0s+xfv36SEhIUKiRHz9+HD/88AOICGpqaiguLkZUVBRev35drSYuLWAASRZOVR1OeUi7yAwMDLBnzx6Ul5fL+KmVlZURExPDnqm0m6usrAwmJibIy8tTKJjevHkj46rj2SjWrl2LtWvXYtq0aVXWWairq0MgEGD27Nm1FjL8hM1DulCyNvdDWuDm5+fL1PB06tRJYWILx3Fo3bo1c9vu3r1bjr2B346HsrIye758O+HqkJKSgitXrsgIgCtXrshZMLyA4WuhqmvoVVnAVLctIOFXi4mJQc+ePREQECAX4Oct4BcvXkAsFqO8vByamprsuqVdZJmZmVBVVYWBgQHu37/PYr3GxsaIjIxUKOhatmyJnTt3yswJt2/fhpaWFvT09JCdnc1aewASN620S5PnCwRkLfKa8CUtGHMA9ziOew3gOSQxmKuVNyIiAYAfAMz7lKb8DsBsSPrJ9ATw6lMc5yKA2URU+0q1TzAwMEB0dDSjsJA2IQ0MDJCQkCDzIUkXYZaWlkJfXx8tWrTA/fv3UVFRAY7jYG5uLjdB6ejoME4xPgAXFhYm8yHZ2tri7t27MpkavFbHvzzSrgSBQCDDkjxgwAA5qhbp7JsPHz6gWbNm6N27NyIjI2UETOUX/smTJxg5ciSzVIqLi2WC1C1atICdnR0AYOTIkVXWwygK7unp6SElJUVh4FJagEv75UtKSmBiYgJjY2MkJyczIdu4cWO4uEi6PfBEe9LPUUdHBx8/fpSbsIRCIaysrKCkpASRSMQoZCIjI5GTkyPz4fETN38vKwsYQHFqO4/i4mJcvHhRxoJJTk6WswDq16+PZ8+eySgN0h+ngYEB7ty5g4iICDlhz2uvPAwNDfHx40d06dIFu3fvxjfffFOlVWFmZoakpCTcvHkTqamptZoQKhf6vn//nsVoKjMMAJKqb+nYxcePH5mGzFOr8O/K0KFDqyQQlT5vUVGRQhJH6cLkytlnYWFh1WrXBQUFiImJYc9fJBIhMjIS2traMDIyQkpKioySxysB1QmNypZCbQRMXl4eWrVqhRcvXsgxofMCZufOnYw5hH+3iIi5yPT19dm1m5mZsaJvQPKuvXv3rspaL15Z1NTURGpqKm7duoXU1FTo6enh4sWLmDhxInvfrKysZARMaWkpU5JjYmJqXYz9lwQMEXkR0YZP/39NRO2JqA0RtSKi5dXsF0FEgz+lKbcgorFElE5ER4mo5SdrpwMRXfqccRkYGCA+Ph5KSkpyLjIDAwMkJyfDwMCABYml+3nw2V+mpqaIjY1lD9nc3FwhoWZWVhbq1asHfX19GBkZISEhQcbXr6GhgUuXLlXrJ5c2r42MjGRevvbt26NFC9mu0dLurPDwcLRs2ZJpn7xWXVpaCmNjY5kJyNTUFD169JCJT0kLi59//pn1d2jXrl2dyDf19PSQlJSkkNivadOmLLjJc5cBEguqcePGbCLnhZOamhqbkHkt9cmTJzITlKJU7+LiYtjY2ICImLtBEQGkmpoa5s2bB47jmAtTkYAZNWpUlb1BDh48iLy8PGbxGRgYoLy8XE7AWFhYIDg4WEbAqKurs+fHKyWvX7+Wc+FIPytA8i6VlJRUmX0kDXNzc1y4cAFjxozBrVu3ZOqxqoKxsbFMIPvp06fo0qULAIlrT9odV1JSAmdnZ/b+AxLBzxPJhoaG1rqRVWXLSRGkiR95BQL4T9C/unMVFBSw4kxAIsRKSkqgrq4OZWVlqKmpyXy3hoaGuHTpEuLi4qokqpQuCqYa2hcDkm+vqKgITZs2ZRaINPiU6/DwcFYQKZ0hKR2D4QWwmZmZjAVrZmYmM2dVBUtLS6xfvx4DBgzA69evoaOjA6FQCG1tbfYN9O/fX8bKEgqFqFevHoiIVfXXBv/zlfyKoK+vj5SUFHTo0AEpKSkyAkZLS4sFfPmXR9qC4bO/jI2Na0VlwfuZeUJJRZXXVfVtASRknNIN0ebOnVtjtbm0Zs2nKEoLGN6Csbe3l7kGHx8fFj8pLi7GkSNHZF5QdXX1alNWq0N1AsbOzo5xMsXFxTEBU1JSwtoA8IzVikBEOHPmjIyAKSgokHPDFRUVwdTUFEKhkLnwVFVVUVhYKPNBKysrsxbBfKaeIgHTuHFjFBQU4M6dOzLLhUIhEhMToa+vz8asp6cHPT09uZoICwsLvH79WoZAdcqUKdi7dy84joOBgQGysrIQHR0t89zz8/PRs2fPGgkFq7pnZmZmOH36NH7//XfcvXu3VpQ133zzjUz/EOlnVZkx+s2bNxg4cCDu3LnDxv3rr7+iQYMGICI0b968xl4hPPgEgepgYWGB6Oho5jbiBUxZWRlatGhR7X0SCAQy8SWxWIyysjJ270aNGoWDBw8yAW9oaIgXL14gIyND5luWrkOqfN+Tk5OrjMEAEpcT7xJW1PRNX1+fFTDy3HP8OSwsLJCYmAgVFRXo6ekxy8LMzEym4aCZmVmt2kbwWW3NmzdHWloa8vPzoaGhgbdv37L3tGXLljLvLE+3lZmZKZdhVh3+TwoYJSUllJeXo2fPnnj79q3MxMRxHEpLS6GlpcUED++GAf6TfpiSklItzTYPHR0dVthV25vOg4iwZs0aGUtCUYfKypAWMHx2EP+RBgQEQFNTE2KxGFZWVjLZXl26dGHn2bBhA1q2bPmX+pisXbuW/V9dXR2ZmZkK71nDhg2xe/duxMfHy0xaPOW/pqZmtS6O3NxcZGVlyTzH1NRUOWFYWloKVVVVaGhosK6lKioqyMjIkLECy8vLkZmZCW1tbWZdKRIwALBkyRI8e/ZMxgK4ceMGYzvmUVFRARMTE4UChqdOl16WkpICc3NzZvkUFBTIaMCFhYWwsLCQmeCys7Nrzd5sbm4Oc3Nz2NraIj4+vlY8Y6qqqrC0tJQpDJQet3Ts7eXLl3B0dMTZs2fZRDR48GD2ffXs2bPW75a6urrCSVcaDRo0QGRkJDsXX3tSVFSEb775pkZryczMjKXFV+6506ZNGzRs2JBZJLyHoHLSiyL6fEDy7A8ePFitBcOjKlelvr4+3r59CysrK+jp6UFNTY3dE+liTSUlJRb7sbW1lcnwrF+/frXZadevX4eLiwvL7ORdXi9evECDBg0QFhamMBGDH3fDhg2RkJAADQ0NqKur1yro/39SwPBo164dPn78qLDilDeP+f9Lv+A7d+7EmjVrYGNjU+M5eA1cKBRCSUkJOjo6te5uWFBQgEmTJrG01drC2NhYRjssKCiAtrY28vLy4O/vzyYhMzMzhXUgIpEIYrG41hqPIgiFQuzbt0/mhZams5CGkpISBAIB7ty5I8O8q6WlVavzZ2RkwMDAQEbAGBoa4uXLlzLb8cfT0NBAcXExcnNzGV0PX+nMj93c3BwaGhqM4aEqAQNI+t9IU7q8evUKHTt2hLKyMrMAc3NzoaWlJVeZbmxszOJa0nBwcECfPn2gr6+P0tJSuUJB/n2SnghDQkLkakmqgomJCby8vBQWXVaHqVOnYufOnXKxS0CS5s+ndaempqJZs2YoLi6Ws7grKipQv379OmWw1TRGCwsLxMTEwMjICMrKykzQFRUVoXXr1jXWLTVo0IC9LyUlJXLnk27TbWhoCFVVVTkPRsOGDfH8+XOsWLFCxkVUUlKClJSUaqlTeGUnOztb4XvGZyFaWlpCS0tLRpg3btxYhh2Bd1VKu5IBibJblaD9+PEj3r17h9WrV2PKlCl48OAB2rdvD1VVVTx9+hTm5uYQCoUwNjauMvWbr+HS0NCAjY1NreIwn8NFZsZx3CmO46I5jgv5xCn27SdOsbBPPGSKSbQk+3fmOO4Bx3EfOI4L5ThuH8dxWhzHHZRKZw7jOC6O47i/1Oicd1lUJWAUkb7x2WD79++vFdeOra0tjI2NUVBQADU1NZiamtaajbWwsBB9+vSpNfcVD2NjY/j6+uLNmzdQVVXF999/D47jkJubi5ycHCZgeL9vZeTm5qJp06bQ1tb+bAGTlZUFMzMzGQ07NjZWoYDh+/Dw9Tf8x62rq1tjPRLwnyw7aRr4kSNHytGXaGpq4sGDB6zPSE5ODuv5Lj3ZCQQCWFlZobS0FESEsLAw1ulQETQ0NNClSxfWFpu3GnV0dNhEk5qaioqKCrljKCkpYd48udZHsLa2hr29vYxrtfKEnJubK1NM+ubNmyq7GFaGkpJStUkAVUFHRwfDhw/HlClTZAqFAQnxqHRrao7jMHjwYIVcZpqamlBWVq7RMpFGddlJfN+levXqyUz+JSUl0NfXr1ZzV1JSgpqaGnPDSacE85C2PqpqjdCwYUMcOHAAkyZNksmoy8vLg5qaWrVj4BNgoqOjUb9+fTmL0sDAAMHBwRCJRCwtnBeaDRs2ZC705ORkuVYMPAQCAfLz8+XuIRFhx44dmD9/PjiOg4aGBoYOHQpVVVU0a9YMISEh7NtSlC3I1wJaWVnh1atXMDY2RuvWrRU2wKuMOgkYTjIzXAQQSESNiagjJB0qAaDbpyLLLgBcOI6T46jnOK4+gLMAnInInojaA7gJQJeIpkpxnHUAkACgZlpSBZC+weXl5QoFjKqqqszHV1ZWhs2bN6N79+51avi1YMEC6OvrIysrC2KxGHZ2dgoFjCINKz8/H5aWltDX11fI/VMVjI2Noaqqis2bNyMrKwtWVlYQCoXIzc2Fjo4Om+R0dHQU0lhkZ2ejadOm0NXVlREwiYmJtR5HZmYmhg0bJuM7LygoUPhh3r59G3Z2dqioqEBFRQVGjBiBjIwM6OrqIikpSeGkkpaWhqVLl7JJR1NTk7mf4uLiYGtrK/P8srOzYWlpiRs3brCJkS9K7NOnj8xHU1xcDENDQxQXFyM0NJR1jKyOKubHH3+Ev7+/TJ2StIBJTk5GaWmpwkyp/v37yy17+PAhHj9+zISftra2TJxEQ0MDSUlJ0NbWZpNRQUEBUx527drF6qOqEyKRkZEwNjau1TvN3+tevXph48aNcinqfLZXWVkZm0yHDh3KLBi+JXh5eTmEQmGttVweJSUluHLlSpXxGIFAACMjI5Z+DvynrW9VsUM+Gys/P5+9m5qamjKJApXx8eNHhW2Ei4qKoK+vDzMzMxn3EJ+eXZ2ylpSUxLIAmzdvLqdY8awTQ4cORVlZGZSVlVnWXExMDHvPkpKS0KhRI7lWH4AkgaZLly5ysa/r169jyJAhMu/Avn37AEiSiOrVq4eEhAQ0atQIdnZ2iIqKQkpKClasWIG1a9ciOTkZlpaWMDIyQnBwMNq1a4d27drVqrK/rhbMdwDKiYj5C4joFRHdJ0mnSgBQr+a4cwAcJiKmBhHROSKqbKksA5BJRPvqOD4AEpcK/6FXZtDlJzMVFRUZLcbe3h7jx4+HpaVllX5IReAr/rOyspCfnw87OzuFZurcuXPlPrbS0lLo6OjA3t4eV69KMrovXLhQI1+ahoYGlJSUkJSUBKFQiJEjR+Ljx4+MpZl/kSrXwixdKtEFsrKyYGpqCktLS5mP4tKlS7Wm18/Ly8O3337LXnw+uUHRR5aXlwcHBwe8f/8eV69ehZubG1atWgVDQ0OUlpaiuLhY5uXPysqCj48PWrZsicePH0NbW5s1fAMkhJzNmzeXSc4IDw9Hx44dkZOTw9wGOTk5GDp0KMaOHStDm19aWgolJSXk5uYiICAAo0ePrtGtybvSpDsxamtrszGlpaWhsLCwylRcaZSWluLIkSN4+PAhq5upV6+eTHMqXsA0atRIjniUiHDhwgXk5ORAQ0NDoUsjPz8f8+fPx/Pnz9G1a9daJW9cu3YNU6dOhUAgQKNGjeT2uX//Pp48eYIpU6awe+Dm5sZqJw4ePIjk5GQIhULk5OTAysqK3Z/MzMxq2/cSEW7fvg1DQ0M8e/ZMbv3Vq1eRmJgIGxsbGQuGiJCdnV3l9aWmpjJL29LSEomJidDU1ISmpmaV1etv376VyaC8efMmMjIycOPGDdja2rL4HQ91dXXWKqG0tFRugo+JiUFkZCSsra3x5MkTtG3bVm6b8vJyWFpasjICJSUlJkT27NnDGMKTk5PRt29ffPz4EWlpaXB0dGTCKiYmBsOHD5ex7MViMfz9/eWYm/l5oXHjxnBzc0NhYSG++eYb2NjYICYmBuvWrcPChQuhoqKCZ8+ewdLSEhzHISUlBd9//z3js6sJdRUwVfKIcRzX8FMNTCKAtUSkqFlztTxkn47TGcBvAOrciUckEuHcuXOs7zgg0TKlJz3ehcQHI3lMnjwZdnZ2SE1NZX5u3v1TUVGB8vJyhR/y8uXLERcXh8zMzGp7uWtra+PChQsAwASQqqoqy3BJSkpCRUUFAgMD4eXlxbYpKytj2lJ4eDh7gfX19dGsWTNMmzYNLVu2xLt371BWVsZoXgCJC0564j558iSKi4tRVlaG0tJSmJuby2hCaWlpzPx+9+5dtYKOL3TjhTSfmcf7innL6fr16+jatSvMzc0xd+5cdO/eHd988w1atGiBpk2bory8XEYhACT9ZiZPnowxY8bg4sWL0NPTk2EmeP/+PZo1a4Z+/foxnrOAgAD07NmTBZr5Z/3LL7+gadOmMpO3iooK0tPTwXEc8vLy0K1bN2RlZVXpqvTx8WExlvv377PUXel4m0gkYvQlld0fPD06j+3bt2Pp0qUoLCxkk5WJiYlMCwQNDQ0kJiaiadOmMjE6ac6zhIQEaGlpyWj89+7dY+fs1q0btm/fjoEDB7JMPWk8e/ZMRhN/9uwZ6wsCSOJAkydPhlgsxtmzZxETE4NLly5BT08PAwcORHJyMurVq8cC0EKhEGFhYVBSUmL97Pmxbd++vca+MufOncPMmTPlYmsCgQCPHz/GoEGDoKOjI2PBaGpqIi4uDurq6got4cTERFhZWTFOrnv37jFuvqriFXx7YHV1deTn5+POnTvw8vJCbm4uey4NGzZk1re6ujo0NDTw/v17XLx4EW5ubuxY2dnZWLNmDfLy8tC6dWvExcWhcePGcm6uDx8+YPr06SwtX1VVFQUFBaxS39raGgUFBUhJSUHfvn0RERGBGzduYMKECfD29mbjHj58uEw/m4sXL2LUqFFVxriUlJRgbW0NS0tLtGzZEhoaGrh16xZ++OEH6OjoYMqUKVizZg3L2LS1tWX9lRSxe8sdv9q1dQARJRJRGwBNAEz+5A6rEziO0wFwDMB0IqoyMb4qLrIzZ87g/v37OH78OBMwld1PycnJ0NPTYzQylSEtYIyMjCASiVBUVITw8HA5ZldA8lDfvHnD3BcWFhZy1lFsbCzatGmDkpISxMfHY9CgQUhKSoKKigqb4HV1dXH69Gn88ssvWL58OZYtW4bCwkIsWLCAmbNeXl549OgRPnz4ACMjI+jr66Nz586ws7NjdSbSWnVhYSHT7MrLy9GkSRM8efIEHMcp5ObiaTUA4NSpU/Dy8sLr16+xZMkSnD9/Xu4DlrY8IiIi0KxZM2Y2jx49Glu2bEFAQACrreGbsgHAjBkzMGLECDRu3Bi3bt2Cnp4eE0r8R6WqqgotLS3Y29ujsLCQTeY8mWWrVq0QGhqKwsJCcBwHTU1NmYZe0tXxDRo0YMJPVVUVycnJICJoaWmhfv36MDAwUOiaSU9PR2ZmJg4ePIiuXbsiODgYDRs2ZPeaV16ICPr6+mjatKmMdpqYmIj58+cz955IJEJ2djZLIElLS2OdEPkJuLi4GAYGBkhKSmKMw3xVvJGREeLj42Fvb4+EhARoamqycZeVlWHq1KkoKyvDy5cvMWbMGDx69Ajt2rVD3759ZXrEJCUlwcvLSyYtWSQSMculvLwcz549Q6tWreDs7Iy3b99i6tSp0NHRgbu7O1xdXbF//364uroiNjYWRISWLVvizZs3LLHCxsaGjS0zM7Pa9sG5ubnMqq48ad25cwc//PADK7CUtmA0NTURGxvLGBEAYM2aNXB0dMTz58+RmJgIW1tbGBoaws7ODs+fP2e1JHwrDN41GRcXh5MnT7JnamRkxAoZly9fjgkTJiAjIwO3b9/GxIkT8fTpU6Snp8PS0hKmpqZISUnBq1evMGzYMHZfT506BVdXVzg5OaFRo0YoLS1lDMnSCA8PlymoVldXR0FBAQIDAzF48GDY2NggNjYWQqEQLVu2RFRUFKKiotChQwfWICw9PR02NjYy8alHjx7Vytrw9fVlVo2rqytz69arVw+DBg1iirO3tzdzEbdr105hWwlp1FXA1Mgj9slyCQfQi+O4UVJB+0612H8rgD+J6G4N55DjIhOLxXj+/Dm2bNnCgoHl5eXQ1dWV8RXyWldBQYFMfII3y/leC4AkSM4XcWVkZCgke+P9zBzHwdDQEA0aNECzZs1kPqaAgAD07dsXffv2xfz583Hp0iXs2LEDmpqazKIaPHgwdu7ciZ49e6JevXpwdXXFjBkzsHDhQsTExCAhIQFdunRBcHAwIiIiUFBQgGbNmgH4TzEiINGq+YmUTzwAJBPZiBEj8PjxY6iqqsoVhKanp8sEkMViMby9vREYGAhvb2/o6elhx44dACSaqqqqKkuKyMvLQ0REBKZOnYqKigpkZmaiT58+6NWrF5ydnat8jhzHYfLkyTh+/DgsLCxkJkp+3AsWLMDIkSMhEokUFneNHTsWY8aMwZgxYwBAxlUinQkl3QdeRUUFmZmZKCoqYh9f69atFRb77d+/H+7u7sjMzERWVpZMyrGysrLMO2RqaoqmTZsiNjaWWX+3b9/Gzp07GT3Q/fv30adPH7ZPWloatLW1mXAXCAQ4e/Yshg8fjsTERBgZGaG8vFym3olvVpWYmChjwXz8+BGjRo3CtWvXIBaLoaSkxCYDc3NzJmCICOvWrcOpU6dYR820tDTmGu7cuTOePXuGR48e4Y8//sD333/PmBUASUbXsmXLoK6ujiZNmqCgoAC5ubmwsLBgdVgfP36EtbU1s/qVlJSqFTDx8fFo0KABS0OWVmb4gk9jY2NkZmZCWVmZWV68gLG1tWUCOj8/Hxs2bMDly5cRGBiIZs2awdjYmJFSWllZYdy4cSgoKEBWVhYmT54MJycnXLx4Ee3bt4ebmxsKCgpgYWGB3bt3Y9CgQTA2Nka7du2wfft2eHp6okuXLnj16hXevHmDDh06wNDQkLmof/zxR5w9exZ5eXkstsE/AxsbG5kmZ3yfp6ioKJnW47ww5Uk4+VRl3mISCATs2Xbp0gVPnz5l+/HYvHlzjd1peUgXgg8aNEhm3bp161h8ki+kBSR1UzUF+usqYAIAqHMcN4NfwHFcG47jen3iHwPHcYaQUL58IKKLUjxkLwBsg8S66SK1/4+cpJvlzwDaoo6Bff5jWbx4McaMGQOO43D8+HGYmpqy6lppC+bly5ewtbVFfn6+zMOYOXMm02Z4oWVqagptbW3myuA5kHhkZ2ezjwqQPGg1NTW0adMGr1+/Zq1FY2NjYWNjg379+uHAgQOoX78+1NTUYG1tzVgF2rVrh02bNrExmZub4+TJk7Czs8N3332H2bNnY9q0aSgtLUVmZibU1dVlgrA8bbuamhoiIyOhqamJvLw8VmOSnJyMJk2aIDY2FvXr10dUVBT76ABJh71u3brB2NgYcXFx0NbWhrGxMebPnw9NTU0MGDAACQkJICJERkbCwsICGRkZGDRoEM6fP4+kpCT88ssvAIBHjx6hZ8+eaN++fY1sACoqKti0aROaNWvGEiWkYWhoiCZNmkBXVxfl5eVyVlSXLl0wevRoOdp5Ps1T+n7yAkpVVRVCoRBTp05l7q6lS5fKWTAFBQWMEWHs2LF49+4dE+qKMp4WLVqEtm3b4v79+3BxcUFubi5iY2PRq1cv5OTkICEhAXfv3mWMEEZGRnj37h2UlZWho6ODiRMn4siRIwgPD0e3bt2YdaOkpISIiAg0bdoURkZG7P5mZmbKWDBv377F9OnT2XsjDWkBc/z4cYwZMwZ6enoQi8UQiUQy4+rVqxcePHjAWDC+++47uY6tZmZmMsoD/47zzzQlJQWmpqYyzODVVetXVFQgLS0NxsbGMplMfMBbSUkJzZo1k3EjAhKXYWxsLPr374/r168z9xXHcfDw8EBRURE6d+6M8ePHA5AkXDRp0oTFStPS0lhL4YULF6JZs2awsLCAUCiEra0tnj17JlObxrvNVVRU0KRJEwQHB6NXr14wNDRESUkJfv75Z3AchxUrVsDR0ZHFqgBJnQo/Dv7arly5goSEhCr72fDgLRge0dHR6Ny5MwCJcvTmzRv2rquoqMDT0xNNmjRh1vbXQGUOR0Wok4AhydsyCkD/T2nKbwGshoSU8inHca8A3AewgYjkWuB9CuaPBbDhU5ryewCDABQCWAlJV8tnldKVq60sS01NxQ8//ICNGzeyyQKQpP2FhoaiWbNmzNcaHR0NdXV1WFpaIi8vjz0QnqspMTFRhuCvfv360NbWZhZMp06dZHynb968kWEnXbJkCQBJqt/Lly+xbNkybN26laU788FcAFi8eDH69euHlJQU1gipclooj0GDBjE/Op96PWPGDOYLBcDSCIVCId6/fw9dXV1kZmbCxsYGCQkJzDKrX78+yxQxNjZmEwDvlmrVqhUOHjzIXl5p8CbxxYsX0aJFC1bAyBch8vczLCysVhTvPL755htYWVkhKysLHz9+lGM+0NbWZtbVu3fv5NZPmTJF7pg8n5S0u4UnJ1VTU4Oenh569erF0jOlLSgeu3btYpxabdu2haenJ0th5X37ABiPmr29PerVq4cVK1Zg1apV2L59O3uX3NzccOjQIVZ7A0gSSx48eAAVFRUYGhqiefPm8Pf3Z5OUsrIytLW10aJFC1y5cgWNGzeGkZERXrx4wbRdaQHz8eNHNG3aFH369JHTQnkBk5+fj7dv3zLa9l69emHLli3w9/dnxah8SnBdWB14AaOjowMigpGRkVz2ZlVxgMzMTKb0GBoaokuXLrh27RqICOvXr8eIESPYM5B2yYjFYpZ+bGVlhYqKCpw8eRJDh0p4dFVVVXH06FEA/xEM48aNQ/v27Rn7t7TlJg0DAwNYWFhg4cKFVY570qRJ8PT0hIGBAebOnYvNmzfD1tYWgEQx2rNnDyZOnMi2V1ZWlqGbCg8Ph4ODA65fv67w+KmpqcybUrn3Ta9evZglzLMs8N/y1KlT4eDggNGjRys87t+Jz2mZnEJEoz+lKbckoqFEtPcTB1nbT//uqWb/x0TU61OacnMimkmSTpb2RNRQyuLh/xTTxX6Crq6uHFcXIHnA/v7+6NSpE1u2a9cuzJs3T66PxKNHjzBr1iyZ4BggsWD4fhIFBQUYOHAgM0UB4PXr12jdurUMER8AFltZvnw53NzcFLLD8oHdlJSUGiuAlZSUMH/+fADAt99+i8LCQnz33Xcy23Tv3h0tW7ZEQUEB0tPToaenh4yMDDRr1gzR0dFISUmBhYUFZsyYgQ4dOiA5ORlaWlrMFC8rK4OqqipatWqFw4cPywhrHiNHjsSyZctgZ2eHhg0bIj09Hdra2rCxsWHaqampKdLS0qrVxhSBZyd49uyZwnPz9Oa3b9+uspe5NHiNedKkSSzwPWTIEBw7dgxmZmZyxYGVu5PytDuVkzZsbGxw9uxZLFu2jAWjT5w4wVx0POrXr4+ioiL2/mloaMDDwwPu7u5sG3t7e7x58wbGxsZsPIcPH0bXrpJO42ZmZlBTU0OXLl3w4sULFoORzozkffXAf6j1Z8+eLVeQyacYb9u2jbllAEnTrzZt2jDqGh5aWloKn8PTp09x9epVGWHMcRyio6NhY2ODNm3awNjYGE2bNq1VgWdBQQFWrlyJIUOGMC+Bvb09rK2tMXfuXAwePBgdO0q86iYmJjKp3Ly3wdzcHGpqapg6dSouX74sU3xYFWoSMLwiMXfu3BqPBUjez8p1c7zlVRVCQkIwatQovH//XmH2YXx8PGv7AcgyEMyZM0dGgItEIuby5lOK/w7UxIv3P1/JX9UF8oVLvOskLy8PxsbGUFdXh4GBgUyK4ps3bzB27FgWS+FhZGSETp06sWBgq1at8PbtW9y9excfPnxgL3jLli3lqn537typMJdeGlpaWrUSMNLo1KkTZsyYIbd80KBBaNOmDbKzs5GXlwd9fX1kZmaiZcuWiI6OZqSE1tbWaNCgAROwRkZGiImJYR+HqakpmjdvrrB2SFNTEytWrMDYsWNZdp62tjZGjx7N3HV2dnZM61KEqgrpjI2NkZGRgWfPnqFJkyZy61euXAlAvjlbVeB7h7dv3x43btxATEwMmjZtiqCgIFhYWMjdc+meGCUlJfDy8sIff/zB1peVlcHPzw9BQUF48eIFmjZtCmtra+Tn5yM7OxsmJiZy2U/Lly+XYdGujEaNGkFfXx8GBgYy7AY8+MydRo0aMevWyMiIuen4OEttwHEcEhMToaqqKhNrU1VVRb9+/eQUgmnTprGJnUd4eDhu374NU1NTrF69GkFBQQAk1lFkZCR0dXXRvXt3DB06VKbfCd8SvHKjOiKCs7Mzli1bhlatWrH7z3EcRo4cie3bt8uNQfp63r17h+bNmzOrwcrKChcvXqzV/ahJwDx79gx3797FkSNHanW8ukJNTQ1RUVGscl+RktywYUMZwsmMjIwqv62OHTvKxHD+Liiai6RRNzXzfwg9e/ZkldcAcOvWLUYX0q1bNzx69AgeHh4QiUQQiURM6Eh/sEpKSvjxxx9Zmilf/FRYWIhDhw4xjbdNmzYICak2+1ohGjVqJENRURuoqKgwDbcy+vXrh379+qF///4YP348OnbsCLFYzHzvvPDs1KkTmwzr16+P06dPy1CpVPdR8Rr58OHDWXYYIAm2A5J7q6gNb3BwMC5evIiioiJs2rRJzqdfr149bNu2DYcPH1ao+V67dg0ikYhpeqdPn0ZhYSGGDh3KtPWKigomSPi03EGDBsHe3h4HDhxAfHw8rKysWBIEX6gofW8AwMPDA0uXLmUV6mKxGEuXLsWMGTPg4ODAtsvKysLEiRMxe/ZseHp6IjExEQsXLmQ++5qKG5WVlTFgwACZbo3S4FOwOY7DgQMHAEgE0MmTJ+Hk5AQ1NTX89NNPuHjxogxhalXIycmREZpVQSwWY+PGjSyNneM4KCkpITs7G35+flBWVsY333yDgwcPskwzvjkbT/q5bds2djyeLbxRo0aIjIxkgeLbt2/jxx9/hKmpKUxNTeU8CNLgKfWtrKxgamqKsLAwvHjxAr/99psMGWltGcB5zwTfmE4ad+7cwdy5czFixAgcP34c165dY263LwULCwt8/PgRHMdh9uzZMtaPt7c3K0qWFvzGxsZVlkFU5sb7u1CTcvx/VsBIQ0dHB48ePZLzSY4bNw4LFy5kGox0DwYelbu9rVu3DgAwYsQIFohs1KiRjNvhvw2eRBH4TyfLqjRdU1NTVpfBoy40/ZWhq6srZ1USEc6fP4+NGzciKSkJHh4e7D7yUFVVxfLlyxXGoeLj47FlyxY0bdoUEydOxL179yAQCDBgwABs374dNjY2SEtLQ0FBARo3boydO3di5MiREAgEaN++PTiOw7x585CQkABvb29ERERg7ty58Pf3x4ABA+TGqq2tLeNi2rBhAyZPniwX++FdQbdu3cLixYthamqKdevW1YqwlEfl+1AVeNeIWCyGh4cH/vjjD9ja2sLR0REaGhoIDAxUKNilce7cuVq1V963bx8mTZok8ywEAgELuAMSoTdt2jQ8f/4cFy5cgKGhoRyJJA/e6mzatClOnz6N3bt3Y+LEifD396/V9R89ehSJiYms9unAgQMsi7Eu1r80KtMH8YiPj8e1a9dYE7MJEyZg7dq1LGb3VxAbG4u1a9di06ZNsLS0ZGS0lQPxN2/exJUrV7B9+3aIRCLcuHEDCQkJsLe3r9L9V1tL9u9GnQUMx3FmADYD+AZAHoB0ALcASDeLVwHQEkALkrQ+lt5fFcAKAD9BEtwXAlhORDektrkMwJaI5Nolfw6srKyQkJAgpxk3b94cmzdvZoVxYrFYjutJV1dXYcUv96mXCP//6qi6/25IC5iaYGpqCnNz86/6gt65c4fFTSwtLdG2bVu8fPkSHTp0kNnu559/Vrj/pUuXcPToUSxfvhyBgYGoqKiAu7s7OI6Dj48PXr16hSZNmjDrpry8HC4uLizGxMPKygpz5syBubk5zMzM4OTkJCdgpOugAAnVCp8ZqAienp7Q09NjE2tFRQXL6KsN6kJEWVJSAnd3d0ycOJG5Q3r27ImoqChkZWXVqMXWRrjwdC+VBT1f/V4Z33zzDcLDw/H48WMWXJbeV1NTEwkJCTAxMUGTJk1gYmICd3d37Nixgwn/ykhJScHp06dRUlKC4uJidOnSBcuWLWPr9fT0kJuby7T7N2/e1EmoS4M//927dxEUFITy8nKsXbtWZlxLliyBn59fre5xddixYwcWL16MJUuWQENDA1lZWfjjjz/g6+sr0zL95s2bsLa2RlpaGo4dO4Z27dqhqKgIP//8s0Let7rixYsX8Pf3x8SJE+VaXnxx8OmWtfkDwAF4DGCW1LK2AHpV2m4VgGNVHGMNgMMA1D/9rg9gtNT6HyFpqxxemzF17NiRakJERAQ9evSoxu2OHDlCV65ckVvu6elJHh4eNe7/T8GHDx+ooqKC8vPziYjI3d29yvEXFBRQQEDAFz1/ZGQkTZ8+nVauXElXrlyh2bNnk1gsZuuFQiG5uLgQEVFpaSkdOXKE0tLSqjze0qVLiYgoPz+fCgsLazUGsVhMBQUF1W4THBxMCxYsoLdv3xIRkYeHB929e5fu3btHRERlZWXk4OBApaWltTonEdGLFy/o4MGD1Y6rtnj37h3bXiwW04IFCyglJUVmG5FIRLNmzaKMjAxKS0ujY8eOkVgsJqFQyLYtLCys9v7yuHv3Lu3YsaPW45NGQUEBiUQimjdvHlVUVLDle/fuJT8/PwoNDa12/4qKCvL09CR3d3dyd3enrKysKu/7kydP6IcffqBNmzbR4cOHacCAAVRSUlLnMXt6epKnpydFRETQ6tWrZcatCEePHqX169fTpk2bKDIysk7nCg4OpmPHjsktz8nJITc3NyooKKBDhw7RnDlz6Pnz55SZmUnTp0+njRs3EhFRfHw8bd26tU7nrAx/f39atGgRnTx5kjIzM2n16tV05MgRIiKKiYmhlStX0p07d+p8XAAvqIr5maO6UWr3BeBFRFWWhnIc1xvAAQAdiKig0jotSKhkbCqv+7ReBxLyyxkAzlAtLJhOnTqRogLIzwHPAVSZEdjFxQX6+voybqR/Ol68eIG1a9di0KBBKC0tRUlJCRYvXlznnjVVITExEZs2bcK8efNY/cOLFy/w7NkzfPz4EevXr2c1QBYWFnLBSV9fXwgEAhQXF2PYsGH4888/sWbNGgASpSc5ORkikQgJCQl49epVrbN56orS0lKcPHkSL168gJGRERo0aIARI0bg+vXriImJwYQJE2RqGWoDLy8vTJs2jaUxZ2VlYc+ePSgpKUFeXh6+++47PHz4EI0bN8bcuXNx4cIF2Nvby5wnMTERrq6uaNOmDRYsWIBt27ahW7duCjO78vLy4OfnByUlJXTv3h1XrlxhPvxt27ZhzZo14DgOrq5Vl5gVFhbC09MTGzdu/EvvyMuXL3HixAmYmppiyZIluHTpEm7dugU3N7cq4weAhIOvfv366Ny5s0I3mzQqKirQtWtX/PLLL6x4saioCEOGDKnTWL28vEBEyMnJga+vb43nBcDaf+zYsQM+Pj61Og8RYcGCBdi0aZNCT8GxY8fw4cMHTJgwAdbW1iyWdvToUYwdO5aNy8XFBcOHD8eHDx8wdepUuePUNO4LFy7A2dlZ5vmeP38eQUFBsLe3x9ixY+Hj44N169bVytrlwXFcCBF1UriyKsmj6A/AfACbqllvACAGQI8q1rcBEFrN/psgqbOxxhe0YP4qpk+fTnv37v3q5/kSeP36NREReXt7U3FxMR08eJC2bNlCO3fupFGjRpGvry95e3vTjBkzSCAQyO2fnZ1N8+bNIx8fH8rNzVV4jujoaJo/fz7l5eXR/Pnz6c6dO5SVlUUTJkyg1NRUEolENY6zpKRERhs/fvw4PXjwgIiIrl69St7e3rR//366cOFCjZbIl8DTp09p1KhR5O7uTkuWLKmVxVsVSkpKaP78+eTh4UEeHh60Zs0ayszMJCKJJXLnzh0qKSkhT09PioyMpCVLltDChQtljuHo6EjFxcV07949ZlnVFtnZ2VReXk6hoaHk4uJCGzduZFZgZRQVFdGePXto+vTplJqa+tnXXBmnTp2i4OBgevDgAfXp06dGK9DR0bFO1l2nTp3I29ubiIjKy8s/y8OwdOlSGj9+PHvv6oLly5dTXl5erbY9c+YMBQYG1vkclXHz5k06evQorVmzhpKSkmq9n0gkorlz55JQKKxx2ydPntCJEyeovLy81s8D1VgwX1rAnALgXc36KgUMgHYALn/6f7UCBhIL5wWAF1ZWVrW6CX8Fw4YNo0uXLn3189QFxcXFchP5jRs3aMiQIZSWlsZcUOXl5TR//nxydnamjIwM+vjxI6WlpVFCQgItWrSI7ZucnEyZmZk0b948ys3NpaysLPrjjz8oNzeXQkND2QQREBBAkyZNort379LatWtp1apV1KNHD+revTtt2bKFXF1dayVgKkMsFtO8efNIIBDUebL5UujRowd9++23TEh/bWRkZFDnzp0pMzOTLl26RIcOHaITJ06Qo6PjZ016irB9+3YSCAS0fft2SkhIkFn38eNHmjt3LkVFRX3x+11RUUGOjo709u1bsre3r3bb4OBgOnXqVJ2OHxMTI/OeLVu2rMptS0tLKT09nf0WiUT07Nkzmjp1Kg0YMOCzrj06OlrGnahIgKalpdG6devIy8urzsevDvn5+eTm5larbcvKysjZ2ZlevXpV6+P7+fmRl5cXOTg40IsXL4hIoohER0cr3P5LCph+AB5UsW4yJPEZlUrLbwEIA7APgBaAbAB6Cvb/A0AKgDgASQDKIOk781+3YPr06UPBwcF12od/aUtKSujly5f09OnTGn28NaGiooLEYjEFBQXJaMiLFi2ioKAgWrBgAeXm5tKwYcPo4sWLbL8zZ87Qli1b2O+QkBBycnKiX375hSZPnkw3btwgV1dX2rRpE71//55t9+DBA+rZsyft37+ffv/9d+revTuNGjWKTp48Sf7+/pScnExERCkpKXT8+HEiklhQ8+fPp+fPn9f5+mJjY2n8+PF08uTJz7xDfw1OTk40YMCAv/WcfOxALBbTtWvX6M2bN19FuMbFxdHOnTvZb4FAQHPnzqXy8vIvfi4ehw8fptu3b1Pjxo2r3KaoqIjmzZv3WUqJNA4ePEjPnj1TuG7t2rU0f/58unr1KgmFQnJ1daWNGzdS06ZNqxVMNWHx4sVUUlJCjx49oh9++EHmud27d4+WLFlCWVlZn3386nDy5Elav359jVbJ8uXL6xwv4iESiWjr1q20ceNGmj17Ns2fP58tl57LvqSA4QA8BTBDalkbAN8CSIYk86umY6wDcBCA2qffJgB+qbTNX3aRxcfHk6en52fd2Mr44Ycf6vSQAgMDafbs2eTu7k4rVqygCxcu0Pnz52nu3Ll08+ZNunbtGhFJrIslS5bQokWLKCIigoiITp8+TWFhYexYJSUl9ODBA/Lz8yMnJyfy9PSk/fv3y7zMYrGY9u/fT+/evaPs7GwKCAhQ6P6KjY0lDw8P2r59O/ugx4wZwyYe/sURiUR08eJFcnNzo/T0dPLw8KCDBw/WOpBaUVHx2R+Xv7//V530qsPZs2dpxYoV/5Vz/x2YNWsWpaSkkEgkIm9vb4qNjf2q56uoqKA5c+ZQ165dq1zv5OTEFJW/grKyMvL19SU3Nzc6e/Ys+fn50fr16yk0NJTWrVtHRBIL38vLi0JCQoiIaMqUKfT06dPPPmdsbCytWbOG5s2bRw8ePKATJ04QkeT79/X1/epW+MePH2nBggVVnkcoFJK7u/tfPk9YWBiVlJTQ6dOnKTg4mLl9eXwxASM5FhoAOAMgGhJ25GsA7gLI/WSpSP/1UrC/2ichEwUJ6/JTAIMqbfOXBczKlSvpzJkztGfPHrl1ERER5OjoWK1fOC0tjR4/fkxZWVk0btw4lpFVHWJiYmj58uW0bds2hQ+9pKSEAgMD6fjx43Tq1CnaunUrhYeHU2lpKS1ZsoTS0tJo+fLltHPnTlq+fDklJSXR7Nmz6fbt23LuDUW4e/cuDRw4kHJycuTWHTlyhFavXi0Xz/jw4QPNmTOHzpw5Q3PnziVPT09aunQpBQQE/KUPJCMjg/nI/1dw7949Onv27H97GF8Nubm5tHr1anJzc/siMYHa4NGjR9SlSxc56z0+Pp4cHBzozZs3X/R8AoGAwsLCKDU1lZKTk8nb27tKxcjDw6NOsQxF2LRpExNSHh4e5OnpSWvWrPnbXLyPHz+mbdu2KVx3+fJlevjw4Rc7V0VFBQ0ePJhu3bpFa9asYXNSdQKmTllk/0R06tSJHB0d8e233+LOnTswNTVFv3794O3tjZUrV8LDwwMuLi5QU1ODn58fGjRogGfPnmH+/Pnw9fXFhg0b5GoWsrKy4OXlhe+//x4BAQEoLy/H5s2bWXe4W7duwdzcHAsWLICjoyOGDh0KkUiEkJAQLFiwoEZ+HkBSraukpMS4qfbt24fAwEBs3boVhoaGSEpKwq5du+Dk5FRlTUtZWRmCgoJw584ddOvWDQ8ePICrqytWrVqFVq1aITIykvEh9ejRQ67mg0dFRQXjAKtL9khN8PX1hampKRo3bow///wT1tbWmDp1ap1IFP9OiMViENEXvQf/Ati0aRMyMjJgZ2eHvn37YvPmzWjWrBlGjx79t3FmKUJYWBhatWpVZ968fxrWrVuH0aNHw9raGiKRCK9evULDhg3h6+uLlStXftEat5KSEmhpaaG4uBjz58+HhYUFVqxYUWUW2f+8gGnSpAlZWlqifv36WLlyJd6/f88aIfH9ChISEvD8+XNMmjQJpaWlaNGiBTQ0NBAXF4f9+/djxYoV7HhEBAcHB/j4+KC4uBjDhw/HDz/8gJycHLx48QLt27fHpk2b8PDhQzg6OuKHH37Ao0ePMGnSJEyePLnW4+bZT/kUxLKyMgQEBMhQtkjj6dOnrE9Iu3bt4OLiggYNGqBTp04YMGAAgoKC0KpVKxgbGyM0NBRqamp1Tq/90iAivH37Fh8/fsSwYcMQGRmJPXv2YMSIEXJknQCqrAT/F/83EBgYiAcPHsDZ2fkfq2T8L6KkpATe3t748ccfcezYMfTp0wexsbEwNTXFpEmTvvr5q0tT/p8XMHp6erRw4UK8evUKFy9eZG1w9fX1wXEcsrOzMWTIEOzatQuqqqo4fvw462nv4eGB27dvIyEhAb/99huePHmC3bt3QyAQ4NSpU9iwYQOGDRuGLVu2sJqC6Oho7NixAyKRCM7OzrCyskJGRgY2btwIbW1tODg4yLGqKoJAIMDNmzcRGhqK0tJSaGtrY/78+Th8+DAmTJjAuLm0tbURERGBDh064JdffsHmzZvx+vVr+Pr61kim+U8EEWHHjh1o2rSpjEV15swZXL58GXPmzJFhkP0X/+Jf1IzTp08jNjZWrs7l78D/aQFjZmZGbm5uaNGiBQIDA7Fw4UJG2xIbGwtfX19oaWmhbdu2SEtLw9y5c6Gmpsao01VVVXH27FncunULdnZ2yMnJQa9evSAWixEcHIw1a9bA3d0d06dPh7W1NQBJYZuqqqocxXZ2dja8vb3h4OBQLbNpWVkZnJycMHHiRHTo0AEqKiqIiIjA8ePHMXHiRGzduhWqqqqYNm0a9PT0YGxsLHOuyiR4/4vw8PCAWCyGWCxGRUUFGjRoAAcHB3h7e2Ps2LGMMfhf/DMgEolw4sQJhIeHQ01NDdOmTYONjQ1OnTqFrl27sm/j70BiYiLOnTuHCRMmfBHqlH/x1/DFCi2l/wCYQVL3Eg0gBMB1AE0/rdODJNV4W6V9WuM/CQA5AGI//d9fahuF+1b117BhQxaESk9PpzVr1pCHhwe5ubnR0qVLSSgUUlhYGB0+xYWjDgAAsbRJREFUfFgmYOXv70/+/v5ERPT8+XOaNGkSzZs3j9avX09ERBMnTqTbt2/XORBWVlYmU19SGVlZWTR37lyKiYmpcpvi4mI5SpD/axCJRFRWVkZEJBMALisro3nz5v1X6mD+hWJUVFTQ4sWL6cmTJ0QkeUZz586lwMBAWrVqVbWZTNIoLCxkmYVisZgyMzPZ79LSUrpz5w5LQhGLxRQXFyd33OPHj9OqVasoNjaWHBwcZNLq/8V/B/jSQX5OYoMFAzhMRLs+LWsLSX1LEMdxfpCkH+cQkUKOD47jDgG4SkTnKi2vcV9pdOzYkT6HKr+8vBzLly/HlClTsG3bNvj6+jLLREdHByUlJdDU1Pwsc/Ps2bMwMzODtbU1Ll26hOzsbDg4OODBgwd4/PgxnJ2d/1HkmP80PHnyBFevXsXixYtr5W78F18Xq1atwqhRo2TYmnNzc7Fq1SqsXbsW/v7+yM3NxZgxYxjZp7a2NjZv3gxDQ0NMmjQJXl5e0NDQgFAohKamJlJSUtC4cWMIhUKkp6ejvLwc33//PUJDQyEQCJhVy/eqNzY2RlhYGNq3b8+au4lEInh7e6Nv376su+O/+PvxxV1k1XGScRzXEcBiSDjFOtVFwNR2X2n8FS6ypUuXQk9PD4sWLfqiQUciYtxLI0aMgIaGBnx9fdGtW7dqG1D9i/8gJSUFq1evhpOTU606FP6Lr4P09HQcOHCgRh6+HTt2QFlZGa9fv4aGhgZUVVXRuXNnZGRkIDQ0FFOmTGGxtcTERFhYWLDsJiKqUpEjImRkZLD23JUz/IgIrq6uWLRo0f9kTPL/Ar64iwxVUMZA0iEzEIAlgCmoxs0F4BCAnz9nX+m/v6OS/1/8d1BaWkqzZ8+uVQ3SPwkikYhu3rz53x7GF8GKFStqXTD74MEDKioqIiJiLmCxWPzV3ViZmZn/czVX/5eAalxkX7oJyGwA14ko6Wvuy3HcDI7jXnAc9yIzM/MzTvUv/hegrq4Ob29vLF26VKbp2z8ZZWVlcHFxwd27dxESEgIiQmJi4t86htLSUqxbtw4ODg6IiYn57OPEx8dDRUUF9erVq9X2vXr1YskoPMM2x3FfPWHD2NgYGhoaiI+P/6rnAYDdu3cjNDQUSUlJ2Lt3L7Zv3846xn5t0P9iQlZVkqe6P1TBSQbgOIAESPjEsgAUQNL/ZRT+E9zvRIotGIX71jSW2lgwqampVRK1/Yt/PrKysmj27NlfndpEGmVlZbR7925avny5wgB2SkoKzZw5kyUoiMVievr0Kc2ZM4diYmKooqKCHBwcaPXq1bRgwQJGD6QI9+/fp7i4OJllf/75J82fP59cXFyq3bcy8vLy6I8//qCYmBgqLS2lxYsX04cPH2q1b1hYGHl6etKcOXMoLCyMkY/+L0AgENDs2bMpLy+PCgsLq006KCoqouPHj1NUVBSdPn2atm7dWit6ovv379ORI0fo8OHDtHXrVoqLi6Pk5GRycXGhGzdufMnLUYjDhw9/ceaDLwF8pSD/EwD7iWjPp2VtAOgTUdCn31NQxxiM1Lpq95VGbWIwly5dQkpKCmbPnl3T4f7FPxRCoRCrV69Gs2bNMGbMmK+e6+/p6Ymff/4ZhYWFePXqFSZPnoyUlBRERUXB1NQU+/fvx9SpU3Hv3j2YmJjg3bt3rFaJjxM8ePAASkpK6NmzJ7Zt2wY7OzsMGjRI5jzPnj3DzZs3kZ6ejnXr1uHkyZOIiopCz549Wbzuzz//xLNnz+Dp6YmysjLcvn0bffr0YYWpfDV8Xl4eXF1dsWLFCrasvLwcCxcuxIYNG6CiooLt27ejUaNGGDFiBGuhzHEcHj58iI4dO2LkyJHQ0NDAxo0b0a9fP7muo/9kZGdnY9WqVVBVVUXr1q0xYcIEmfVEhDt37uDatWv49ddfERYWhrZt20JbWxs7duzAjBkzFHYuPXPmDJKSkhAfH4/NmzcrfPdOnjyJyMhI/Pbbb3K9j2qDvLw8xMTEVHu/V61aBVtbW4wdO7bOx/+a+Cp1MBzHNYCkdXJHAKWQWB4LiCjy0/op+IcImK1btyI+Ph4bNmyo6XD/KIjF4n9sr+3/FgICAnDlyhU4OjrKtXsViUR48uQJunTpUuc6ocTERFhaWoLjOLx9+xYPHjzAH3/8AQC4cuUK3r9/j/r166NJkyZIS0tD9+7dYW5ujkuXLsHY2Bg9e/as8RyrVq2CtbU1bG1tERMTg/DwcJiamsLBwQHx8fFYs2YNZs+erXCSi4uLY42gxo0bh8ePH0NTUxPFxcXIycmBtbU1Xr9+DR8fH7kMxcTEROzZswelpaWYOnUq3rx5gzt37mDChAnQ09ODQCBAjx49/vYCva+JZcuWwdHREfXq1UNGRgZ2796NoqIifPvttxgyZIjctYpEIuzcuRPFxcWYM2cOjh49CgsLCxgYGODDhw/46aefoKysXG1WY3JyMi5cuACxWAwHB4daj/XcuXN4+/YtSktLMX36dDRp0kThdm5ublBXV2f0UjWBqkme+JL4P11oWRsB4+npCbFYLEMJ87+A0aNH4/Tp0/+nPvy/ghcvXsDW1hYaGhrYunUrCgsLYW5ujv79+yMtLQ3nzp1D7969ERgYiEWLFlVb7CqN6OhorF+/HhoaGmjTpg0ePXrEmB++JIgIISEhSE9Ph62tLZo2bVon3rPi4mJoaGgo3CcmJgbGxsZy3Vj/fwJvZfTo0QM5OTlwc3PD1KlTcejQIaxduxY6Ojo1HiMqKgp79+7FlClTEBcXh9DQUCxdurRO3+Dq1avx66+/IiQkBEVFRRg/fnyV+0dFReH06dNwdXVFWVkZHBwcYGVlBWNjY0yfPl1GwfTy8oJYLMby5cuRkJCA+vXrV5n9GhAQgP3792PixIl17vRZV/wrYDw9QURYvnz53zSqvw6+te6JEydk6g/+f8bKlSuho6Mjox0mJSUhICAA5ubm6NWrF6u1WLp0aa3a/5aVlcHR0REbN25EeXk50tPTYW1tXWvLMTk5GfXr1/+fZ1b4X8fDhw9x69YtFBQUYOPGjVBRUYFQKMT+/fsxYcKEv7WeqqioCOPGjcOECRNgaWmJs2fP4scff0Tbtm2RkJCAW7du4ffff4eysjJcXFywadMmqKmpAZC0rlZWVsa7d+9w5MgRTJo0CS1atEBubi727t0LgUCA8vJy2NraIj09HWZmZpg9ezbEYjH27duHV69eoW/fvnj8+DE2bNiAY8eOQU1NDR07doSPjw969+6NqVOnflGl9V8B4+kJXV1d/P777yAi6Ojo1GlCGDhwIM6cOVMlq/HXwOXLl1kG0ty5cyESiaCsrAwiQmZmphxFhkAggKqqqsLrunHjBrKysvDrr7/+XcP/KvD09ERpaSlWr15dowC4desWSkpKMGrUKLl1IpEIDx8+RO/eveHm5obp06fD1tb2s8bk5eWFn3/+Ga1atfqs/f9/wKJFi+Dr6/tVz3HkyBH07NkTiYmJKC4uRr9+/XDgwAFwHMcm878TZWVlTGiIxWJcvXoV0dHRMDMzQ48ePbB27VoAElb1qup3ysvLce7cOcTGxqKoqAipqanM4uHjPI8ePcKRI0dgYGCAsWPHon379rh27Rq6dOnCjrtz505ERUVhzZo1ePLkCZ49ewZHR0eZc/0Vd1p1Aub/Gwd/8+bNERERATc3NwQGBgKQaL/SKCgoQFFRkcwyf39/xMXFycRvXrx4gefPn3/VtMGQkBAMHToUaWlpiIuLw7BhwwBIKMbnzpUPTW3fvh379+9XeKykpCRUlc4tFouRkZEh83vnzp1f4Aq+DgYOHIjbt2/XuN2gQYPw5s0bvHv3ji3Lzc0FEcHb2xuxsbH4/fff0a9fv88WLoDk3kZERHz2/v/XQUSIjo6GUCj8qt9Leno6TE1N0atXLwQFBTFtvVOnTti0aRPb7s2bN38pdbu24IULACgpKWH48OFYuHAhxo0bBysrK6xfvx4+Pj7VFoeqqqpi3LhxWLZsGVauXInY2Fh06dIFRUVFiIuLw6FDh6CpqYldu3Zh7dq1aN++PQBg6NChMsf9448/sHHjRqiqqqJXr17Q19fHvXv32PoXL15g+PDhiIqKqvG6Tpw4gbNnz+Lx48d4/PgxSktLq92+RgHDcZyI47gwqT9rjuP6cByX/+n3e47jPD9tW4/juHscxxVxHLetmmNK7x/GcZz/p+WzOI5782nZQ47jWtR4xZ8QGhrK8tEjIiIgFosBSIghlZWV0bx5czx79gx6enoIDg4GAMyaNQvv379nx9i0aRNOnTrFfufl5eHOnTuwtraGQCCAu7s7nJ2dERkZiYSEBDg4OEAkEqGiogKxsbEy++3atQsJCQm1HT7Kyspkzi0SiaCiogJlZWX4+flh0KBBiImJwdWrV9GkSRMUFhbK7J+Tk4Po6GiIRCIcP34cQqGQrUtLS0N+fr7C8wYEBGDVqlVwcHBAZmYmDh06hJycHJw/f15u25KSEnh4eNT6mr4G+vbti2vXriE3N7fa7YgICxcuxL59+xAZGYnHjx/D29sby5Ytw6BBgzBlyhTs27cPffv2/UvjMTIywsePH//SMb4mpCeAsrIyrFixAkePHgUgece+NkpKSpCeno7ff/8d587J5fN8MRQVFUFbWxtKSkowNjZG165d0bJlS3Tq1AkGBgZ4+vQpAODUqVP/CAVKS0urTnRRYrEYffv2xbhx4/D06VP4+vqid+/eOHbsWI2TfGVMnz4dcXFx8PDwgJeXF54/f46zZ89i27ZtTAnw9/fHgwcPZPa7c+cORCIR7OzskJ+fj5ycHKxbt67ac9XGTyQgonbSCziOswYQREQ/cBynDSCM47grAD4AcAfQ6tNfdQgiosq8KSfoP9xmwwH4AlDcIOUTeIvj4MGDsLOzw7x58+Do6IjDhw/D2NgYqampaNCgARo1aoStW7fiypUrOHLkCPLy8tCyZUtcuXIFzZs3R2FhIcRiMeLi4tixjx8/jj/++AOzZ89Gnz590L9/f2hqarL1jRs3xrZt25CUlARDQ0OUlZWBiFBRUYFJkybhzz//RGJiIrp27Yr27dvD2toaQqEQx48fx7Rp02RM0oCAAJw/fx5jx45FRkYGc4F99913EAgE+Oabb3Dw4EGUlJRg3LhxuHLlCrp164bs7GyYmJjAysoKbdu2ha+vLy5evIj27dujRQuJfK6oqGDnCgkJwYsXL9CpUyd07NgRAQEB2LhxI0pKSrBkyRIYGRlh5cqVcHNzg6amJgYNGgRlZWXk5+fD3d0dysrKKCwsrFVTta8BjuOwfPlyuLu7w9vbu8oiwEuXLuHSpUvYv38/3N3dkZubCxcXF1y5coUpH18Cmpqadf7A/06MHz8eJ06cgIaGBlxdXTF79my8ePECc+bMgZ6eHjiOg729fZ16GdUFOTk5iI+Ph5+fHy5evAgTExPs3LkTO3fu/EvNxhS5dPjfld0/06ZNw5IlS9C+fXsoKyujXbt2ePz48RdpCyHNbP41s7ays7NRr149NGvWDBMnTsT9+/dhamqK+fPnw8/PDy4uLmxbfu4bOnQoG5dYLGZuQo7jMHXqVLlzjBw5EgcPHsQPP/yAGzduwMrKCklJScjLy0N6ejoqKiqwcuVKmX2GDh0KT0/PKsf9lyOTRFTMcVwIgCZE9BLAQ47jFOfZ1Xws6XJtbQA12tS5ublIT09Hw4YNkZqaivz8fKSlpSE1NRXGxsZISEhAw4YNoaysjN9//x329vYwNDRkAbRjx44BkDyUKVOm4ODBgxCJRFBSUkJ8fDysra1hYmKC7OxsGeECAO3atUNISAgmT56MVq1aIScnB3p6euyFs7e3h1gsxsuXL3H37l1ERUWhtLQUnTp1wrlz5/DLL7+wYz18+BBNmzYFADx//hxdunQBABkSv/DwcAwdOhStW7fG1q1b8fTpU2hoaKCiogKLFy+GmZkZ8vPz8fLlS2zZsgW7du1i+1ZUVGDv3r0oLS3FTz/9hG3btsHAwADq6upQVlaGrq4u1qxZw7Zfvnw5goKCsHz5cojFYujq6mLJkiWIjo7GkydPMGDAgL8tDbIyDA0N4eXlha1bt0IsFoPjOIhEIkyfPh02NjYoKipCcHAwRo0ahcDAQJSXl6NHjx64ffs2W+bv74/FixdDQ0MDIpEI6urqiIyMRElJCdq2bVurcfDnrsr1U15ejoqKCvbelJeXIyEhodbZbX8VZWVlSE1NRUhICDp16gQ9PT3Y2NjAxsYGP//8M3t2V69exbZt2xS6Xv8KiAiHDx+GkpISunTpAjs7O5w9exZ+fn7YsWMH3NzcPvvYnp6eKC8vR7t27Rj5ZVVQUlJCq1at4Ovri/79+6Nnz55YvXo1Tp48CS8vr88WdGKxGNOnT8cvv/yCH374AQsXLoSenh6EQiF+++032NnZfdZxedy/fx/ffvstACAjIwP169eHtrY2bt68yRRQa2trNG7cGH5+fpg/fz44jsO7d+9gaWmJjRs3Qk1NDfHx8dDQ0ADHcZgxYwYaNmwoc57i4mLEx8ejT58+iIqKQrt27TBhwgQIhUKcOXMGPXv2hLe39+ddRFUVmPwfABH+U4V/8dOyPpDUsABAPUhqYFpK7TMF1fOQ9QGQL3VcV6l1cyBpAZAIwK6m8dnb21O/fv0oKSmJ1q1bR9u2baPt27fTrVu3iIjo5MmT9PbtW5nK05CQEOratSuJxWLasWMH7dmzh3x9fYmI6NKlS/T06VMKDAykP//8k4iIFi1aROvWraumlrXuWLRoEV29epUWL15MRUVFtGzZMtqwYQPl5ubSypUrFfYRf/HiBeN6un//PgkEAiotLaU1a9bIbPfjjz/SypUradmyZeTq6kq9e/em3r17U0hICNumsLCQevfuTaGhoXUad0lJCfn4+FBeXh4NGTKETp48SSKRqM7Xv2vXLtYaoSrMmjVLppLcw8Ojym0FAgE5OjoSEZGbmxslJyeTWCymcePG0fPnz+W2T0lJIWdnZ3Jzc2P7XblyhbZv387GV1M/89TUVNqxYwe5u7vL3YOKigqaP38+rVy5khYsWEBCoZA2b95MU6ZMoYyMDCorK6OQkBAKDAxk+5SVldGhQ4fIw8ODrly5Uu25q0NYWBgJBAIKCgqiEydO0IYNGygoKKjaavOdO3d+dpV4YWEhHT9+nIgkPeI9PDwoMTGRnJycyNfXl3r37i1XWb9mzRraunUrubu7f1ZrBv6ee3p6ElH17wYRkVAopB49esg8p9jYWPa8PwcbNmygsLAwWrhwIT158oROnDhBRJJ30cfHh65fv17nY65du5aSkpKovLycrK2t2Xj9/f3p/v37Ve4XFBRE27Zto3fv3tGBAweIiCgxMZHS0tLYNsXFxbRmzRpyc3OjXbt2UUVFBZ06dYpcXV3JxcWFQkND6cKFC3Tq1CmKioqixMREIpKwSmzatKnK54RqKvlrI2CKFCzjBUQoJL1gZlVaXxsBc7WG846HpB2AonUzALwA8MLKyorOnTtHRETh4eHUqVMnioyMZP1f1q1bx3pM8BCJRHT+/HkikkwSu3fvZuvy8/Np9OjRtHTpUkYD4uHhUeMLXFfExsbS9evXKSkpiUaMGEFXr16lmzdvUlBQELm7u/+lY/ft25cePHhAmZmZRFT1+FNTU0kkEjGhVVu4urrSli1bKC4ujgIDA8nd3Z1cXV1p9erVdO/ePSotLSUiiRCMj49n+4nFYkpNTaWYmBhatWoV+fn5UXh4OBFJnklkZCQ9evSIxGIxxcfH09y5c2nHjh1EJPk4Vq9eXe24zpw5Q/PmzaMbN25QaWkpXbp0qVbXc/ToUXry5Ak5ODjQ4MGD6f3797RhwwZatGhRtUSPT548oWvXrtGePXsoISFBZt3y5cvp3bt3REQUFRVFs2bNYu/ilClTyNnZmS5cuEDnzp2jpUuX0oYNG2jx4sX06tUrIiJavHgxu49VIScnh86fP09r1qyhNm3a0JgxY+jixYu0YMEC2rJlC61cuZKKiorI1dWV1q5dWy1paFlZGTk6OjLBkJycXO25KyoqaMeOHSQSiWjVqlW0evVqOnnyJC1cuJBSU1NpxYoVlJmZSefPn6exY8fKKUwlJSX08eNHCg4OpkOHDsmsEwgEMu8FT+OyZs0aioyMJCKikSNHkkgkYu91bb5P6b5DPBYvXqxwW5FIRCkpKZSenq5wfXJyMlM6r1+/Tt9//73c8Xft2kUeHh508+ZNevbsmcz6mzdvMuHIIy8vj+bNm0erV6+mW7du0dixY9l7deLEiRpJQ9euXUvTp0+nvLy8arcjInr9+jX99ttvtH//fiKSPH8nJydasmSJQkFy//598vPzU3is6gTMX3GRKYqhKATHcaMA8I6632p5/FMAFEbjSEJPsweQpCn/9NNPAIAWLVpg9erVMDc3ZwH/oqIiuXiBkpISfvzxRwCAmZkZZsyYwdbp6elh9uzZ6N27N3MhSLtBnjx5gq5du9byEqqGtbU16wK4e/duGBkZITMzE3/++edfPraqqiqKiopgbGwMgUAADQ0NhXECMzMzxMTEYO/evVi9enWtj6+iooLExEQ0atQIjRo1YmZ8YWEhnj59imXLlkFfXx96eno4d+4c/Pz8wHEcNm7cCJFIhLy8PHh5eUFZWZn9CwC2trYQCoVISkpCYmIi3N3dsXHjRgiFQmRnZ9dIx/7zzz9DT08PgwYNQkpKCp48eYIRI0bUeD3jx4/HpEmToKamBg0NDWzevBlbt25FSUkJ1q9fj4yMDDg6OsLe3h7Pnz/HN998A0BCBtmiRQvo6enh/fv3zPUQFBQEGxsbVr/UuHFjzJw5E82bN4e6ujoOHjzIzk1E6N69OziOg5mZGVs+ZcoUHDp0CDNnzgSguIvplStXUFpaijNnzmDbtm149eoVhEIhfH194enpiYKCAkY+WVBQUG0RpqqqKrp168b8+b6+vujevTvz41fG3r17oaOjg/nz58PGxgaOjo7w9fWFm5sbjIyMmPsrNzcXtra2yMvLk3Exa2pqws7ODnZ2drh69SqSk5NhYWEBADhw4AAeP36MAwcOwNfXFykpKZg5cyaSkpLw8OFD6OvrIzMzEwkJCdW6KCujcqry0aNH2TNt2LAhzMzMUFFRAVdXV2hoaMDc3ByvXr3Cli1bkJ+fj+joaOa63r9/P3MpDh48WGHR7MyZMyEUCvH8+XMkJCTg+PHj8PHxgY6ODu7cuYN27drh8uXLyMvLg62tLUJCQuDo6Ig9e/bgzp07mDZtGmt/IB2XrQoLFizA7t27a1Xz07p1a+zdu5f9VlVVRZs2bZCdna3Q7d27d2+8ffsWISEhiI6ORnh4OAwNDWsk+vxbqsOI6CKAi/xvjuP6KNqO4zg7+kQ1A2AogEhF21UFjuPQv39/AJLslU/nrnafwsJCJCQkoGXLlmwZP2Eq2n/WrFl48uQJNDQ06jI0hecVi8XQ19dH/fr1AQDm5uZ48eIFm8A+F7q6uizLLCUlBQ0aNEBSUhKEQqFc5W9aWhqePXtWp+P37dtXYZW7rq4u+vfvj/79+yM+Ph6NGjViOfd822rpuBMA+Pj4yB1n8eLFEIvFMDU1xfDhw+Hv7w9zc3OYmJhUOy6O4xjXV25uLvLy8mp1PUpKSjh27Bi8vb3RoEEDNiZ9fX34+PigvLwcTk5O6NOnDzZv3ow7d+5ATU0NCQkJGDx4MMzMzODt7Q01NTWoq6uzOIM02rVrp/Dcnp6eCguAW7RogfPnz+PBgwdIT09HQEAALC0t4eTkxJ5hREQEVq5cieTkZHTv3h0BAQFs0ps9ezbu3r0LQCK4P3z4UON9+Omnn8AraytXrsS5c+fg6+uLRYsWyWyXmJiInJwczJo1C126dIGVlRUAyG0HSIL8jRs3Rl5eHszNzRWe19XVFe7u7hgzZgzatGmDhIQEuLi4wMHBAa1atcKcOXPg7u6Oo0ePYsWKFXj37h3U1dXx8eNHEBFyc3M/q4Hf27dvMW7cOFy/fh1CoRBt2rRBcnIyJk2axOaDd+/eYceOHYiKigLHcWjRogXKy8sBgJ2T47gq42rq6uqMRqhXr15wdnbGoEGD0LZtW0yYMAEHDx5E586dER4eDoFAgEaNGuGn/8feVYdVeb7h+6NLQMpCMDCxO6ez5tSFc7rQTbdZUwxAUBFEFLtbZ82czi4ssBNEQlFaSrobTjy/Pw7fu/NxAnA6/W3e1+Ul58v3q/fp+xk1CkeOHEGzZs0wZ84cxMXFVesadXR0MGPGjBrfBx7jxo1TO19OmTIFLi4uGDp0KDw9PZGVlQUrKyusXr1a5T5vXMBwHBcHWdtjHY7jvgQwhIieq93pLzhwHDcIgAhADoC3k9oih7NnzyI8PFzpRAfISBb19PRQUlKCsrIymJmZ4d69exg4cODfOu+5c+egq6uLr7/+mi3jOA4vX75kHFivC3kBw2uGZWVlyMzMZFoij9TUVJibm6O4uBgGBgbVOn7btm0Fef4lJSW4dOkSswoBsCZh3bp1Q9OmTaGjo1PtzDMnJyeW9t2uXTts374d2traNWoolZ2drTI1WxWkUim0tbVZUSsPbW1tfPPNN7h58yZcXV0RGBiInj17oqCggFkFP/30E/Lz85GXlwc3N7dqJz/cuXNH5Tp3d3f8/vvvMDAwwPbt2xEXFwdPT08sX76cpbHz59HU1BRkx9WtW5eRPQ4ePJhlFNYEX3/9NXx8fHDw4EFBke6+ffvg6OgIAGjevDnEYjF2796NiRMVnROFhYVo27atWmFvYGCA1atXY//+/di8eTMWLFiAli1bYvDgwfjiiy+goaGBY8eOse2fP3+Ohg0bIiIiAgYGBoiLi2NKWk2Qn5+P7Oxs1kxt48aNkEgkAmWzdevWOHv2LKZPnw5TU1PMmjULJiYm1eYDk4eVlRXWrl0Lb29vuLi4ICMjAz///DMACAp1O3XqhI4dO6K0tBRpaWlIS0sDx3FvPaGmqnNoaGhg7dq17HdVFhVQjToYIlIg8CGim6rcY0TUiIjMiMiIiKyVCRdV+xPRLCKyJ6IORPQxEYVVeQVqwLPNqkNYWJjam8rn1wNAVFQUfvrpJ9y7dw+FhYWCm10ZyvqXlJaWIjQ0FICs4OvVq1eC9atWrWL55a8LiUQCY2NjgYCxtraGpaWl0mLL1NRUfPnll6xOoDrYvn27YPvw8HCmLSckJChMmubm5jVKa65Xrx569eoFQCYsCwsLkZmZWWMBU1JSUu3tedjY2CitX+rVqxfc3NzQp08f3L17V7CuvLwcaWlp6N+/P7NoqoPCwkK1lgWfTspnSTVq1Aiff/45lixZgtu3b1c7zbZhw4bo0aPHaxU6Dhs2DBzHYeHChUhJSUFxcTHEYrHgeSYlJeHixYsqj1G7dm3k5ORAIpEgICBA6TYaGhr46aefcPDgQdY/ZuTIkQqMDUZGRoiKioKNjQ0yMzPRqFEj+Pv7V2uyq4zi4mLBNzhr1iylVtj8+fPRsmVL1K1bF0uWLMG6deteO/NMT08P3t7eCAoKwoEDBwAAkZGRyMrKEmzHcRzOnj371nvp/F2EhISoXf+vruR/+fKl2irtoqIiGBgYqBUwRUVFTMA8f/4cHTp0QFlZGbZu3coquDMzM7Ft2zbBfkOGDFEoBgwJCWGMAFpaWgJBkpSUBCMjIzx+/JiZ7K+DvLw8WFtbK1gwqgRMRkYGPvvsMzx48IAt+/PPP9WeIyAgAJmZmex3WFgYE6hhYWE4depUjcdNRBg+fDjEYrHS9RkZGSpdZPLV+jxycnJei3+qWbNmiIpS7Zk1MTFBXl4eiAjl5eUAZMrC+fPna3yuhIQEmJiYVGvi5+sPevXqhdGjR+O3335D//79Wao0D3XH+u6771BUVKR0nToLY9y4cZgzZw7Wrl2LBQsW4LvvvhOsf/nypUqliOM4mJqaIjc3F0lJSSw2Exsbq1LYqEPXrl3x/PlzJngaNWqER48evZaAsbS0RHJyco32adCgwRuxJF6+fMkKdP/44w+l9yIsLAz169eHrq7uaylL/wSqihn/3wsYdUVzkZGRrLYE+Csuw+Py5cv49NNPoaOjg7KyMla3II+ioiIYGRlBR0cHz549Q/PmzWFhYQGpVAobGxuUl5cjICAAERERmDhxIvMJf/TRR9ixYwdevXrFKph564VnF5B/UR89eoSePXuC4zg4ODhg79697BrOnj3LJo6cnBxcunRJ5TXn5OTAysqKXQef5MALmG3btjHBeObMGUgkEtSqVYvdG5FIBCcnJ5UCLjExEW3bthVoXDExMcwP/+rVqyqr7JWhqKgIderUUYhdADLtNisrCzdu3FCYECQSCb788kuFDzA7O1upz3r37t1qrYaqBAwgc0dt3rwZn3/+OQCZwOWr4ouLi1kHyz/++APBwcGCMT158oT9TkhIQNu2bavs1pmamsqq7wEZ7dHRo0ehr68vKHq1sLBAVlYWIiMjmfCTh56enqA2ikdWVhb69u2rtrLf2NgYq1evxoABAxTIV+Pi4tC0aVOIRCLExsYqUPnwAiY+Ph5SqRS5ubk4ePDgaykitWvXZu8vETEL5nVcZIaGhgpzwj+FxMREViScnJyslL6GF6KmpqZ/O+b7d5CUlKRScVGlEPL4vxcwqampmD9/Pvs4+P8NDAwQFBTEip2OHDmiUJAVEhKCzp07o3nz5oiKisKePXvwxx9/CLbhLRhLS0u8evUKurq6mDhxIhwdHdGyZUuEh4cjODgYurq6ePXqFQoKChAYGIhhw4ZBIpFgw4YNzJ2UmJiI4cOH48SJE2jRooXgoT19+hRt27YFANjZ2TGetD/++AO6urqYOXMm8vLysHr1arUCJjc3l02subm57By8gLl69Sp7mX18fNhEpKmpCYlEgqioKHz22WcCriJ5nD9/Hj/99JNAwPDxAABISUlBkyZNavzh8pNcSUmJgoCys7NDVFQUrly5giNHjgjWPXjwAGPGjIGvr69guaqsqbNnz6rVWq2srJCWlqZ2rL169YKenh5zUb169YoFsIOCgjB37lwAwNWrV5llmJaWhoULFwrGn5CQgE6dOgmsQW9vbwV3yb1799CxY0cFnjxAZrHylpqdnR2io6OxYMECRofEo7S0FC1atEBRUZHC9a1ZswaTJ09WyUV1/vx5FBYWguM4xoknj8TERPTr1w+xsbHw8/MTuE2ISCBgpk2bhjNnzjAySGWCsCrwXgl9fX3UqlULSUlJKhkd1FWZv47L8E2BV+yKiopgaWkpeCalpaXs+RkbGyMkJOS1khjeFDw9PV/bbf9aAkYFP1k3ud8hFanJqvb/lOO4xxzHPec4LojjuLUVy2vMRVa/fn18//332Lx5M44dO8ZSjuvWrYuIiAiYmprixo0bEIlE+PrrrwXcY3xQq3Xr1nj+/Dni4+MF64G/YjCWlpbM7VSrVi3o6emhffv2CAkJQUlJCQwMDJCbm4uUlBQEBQWhY8eOmD9/PlatWgUzMzM2OQwaNAgrV65Ely5C8tHKaaiGhoYoLCxEaWkphg4dCi8vL0ybNg0dO3ZE/fr1FbTeP//8E8HBwcjJyYGpqSkKCgoE3fdMTU3x8uVLNG7cmMUYUlNTmebfunVrvHjxAk+fPsXUqVMV4gw84uPj0bhxY5ZJw0NDQwNSqRRisRi9evWqcWZaZmYmzM3NMXz4cBbP4WFvb4+goCB8+umnyMjIEEwMfn5+cHNzw8OHDxWOWdmVkZeXB1NTU8GErmwfZZq8RCJhgu+TTz4RpLbLIyEhARYWFvjzzz8xePBglsa5bds2rFy5EpaWluw4KSkpaNOmDRtPYGAgq36XR2hoKMaMGaOUVFNewDRt2hS3b99Gly5dFOJgCQkJsLGxgaOjI7y9vdk1RkVFoXHjxhgwYACCgoIE5+RdqufPn8fWrVtV3jOJRII2bdogPDwc8fHxCoJQV1cX5eXlSExMxKeffordu3fjiy++wMCBAxWetTycnJwUlIGCggKmNTdr1gzR0dGMAgaQBer5lPzMzEzs2rXrtd3Nfxe+vr7Ma6EM7dq1w5kzZxQajCUkJODSpUssO01LS0tB6aiMoqIile7Pvwv5eLG8QpCamlql5fi6FkxJRSCe/xcH4BlkXSg7QMYftpPjOIUsNY7j2gDYAmAcEbUG0AUArzodIaK2FcdYBRkXWZVo27Yt44Rq0qQJCgsLUa9ePfbhXr58GT/88AM+++wzXLhwQX4sAGQv6v3792Fubg4NDQ3BBCNvwVRORWzatCmio6NZUZGOjg5SUlKQn58PExMT5gbr0aMHHj58CCKCubk5LCwsYGdnx84vEokUahwGDRqEjRs3suwSMzMz7N+/H6NHj8agQYMUNHY/Pz88e/aMpTPm5uYiNTWVrdfQ0ICfnx/Gjx/PlqelpbGPsVu3bvD390dERARat24NiUSi4H589uyZgnukuLgY+vr6sLS0ZPe7e/fuNUoaAMDqXNq3by9wK12+fBmbN29Gfn4+RowYoRBkLysrY9lv8s+NiJhVJn+scePGKRUw8kKL74Ioj6CgIKV0GfIxOqpor+Dh4YEVK1YIsuokEgkMDQ3xxRdf4MyZMwBk7t06deqw8Rw8eBALFixAenq6wPUgkUjQtm1bpbEmeQHTqFEjbN68GT///LPCpMqnjdeqVQtTp07Fpk2bAMiEx8iRI9GiRQuBADt16hQOHDiAxMRExtLLu/6UoUWLFoiIiFDIROL/JiKWkbls2TJ07doVvXv3xpEjR+Du7s7eyQcPHkAikSArKwsmJiZYtmyZQJkpLCyEgYEBtLW10bx5c0RERODLL78EIIvTJSYmwtnZGSkpKThy5AgmTpyokkm8sgKSnJyM7du3s2dPRBg6dKhaF2ZRURF7dyIiItg3k5WVhUuXLuH48eNs2/LycoHy0LFjR+zYsYPV1vBITExkAqVXr15wdHRkypsq/Pnnn68VB6wKRUVFqFevHvOoyNMJ8Yq0OrwxFxkRFRMRfwf0oJpHzBXAUiIKr9hPQkTbK/6uMRcZjylTpmD8+PEYOnQorly5AktLS5iZmSEhIQHW1tbQ0NCAmZmZwP3Cvxi6urq4ffs2vvjiC3Tt2hWPHz/G8ePH8erVKxaDadSokaA+BpC5lZKSklhvBvkCT3l0794dJ06cYHGKEydOQENDA0ZGRigoKMCzZ8+Ye4xHly5dcODAAUGhGy+EOnXqJPDl826Ily9fMgGTl5enwLjcqFEjtG/fnl03n37Nr3v58iXEYjG0tbXx7bffwt3dXeD7P3bsGHMz8h/nixcv0KpVK9SvX59pm7Vq1UJaWlqNSCV5C0ZDQ0OesQEBAQHYsmULpk+fDm1tbXz66adM642Li0Pjxo3Z/ZK/J/w45CeH4OBgfPzxx0q1Qd4KBWTpuZWZf8PCwpCSkqJwTU+ePEHnzp3Zu8W7PO7evQs9PT1oaWkxXjwAaNmypSAGZGFhgczMTJSUlKBOnTqM2p3PyiooKIChoSEaN24sYOzmIS9gdHR04OzsDEtLS5ibmwsEKS9gAJlFmJuby7LzLC0toaWlJRDGEokE6enpOHv2LD777DM4ODhgzZo1Kt1KRkZGiI6OFmi0IpFIkO7NvzN8EbOmpibWr1+PcePG4cqVKwBkKdBpaWk4deoUxo4di5kzZwro9gsKCqCnp4datWqhVatWePbsGWbPng1Axt01duxYrFq1CqtXr0Z0dDQ6d+6soCwAQoWCf6Z//PEHunfvzkoWsrOz0a1bN7i5ual05bm5ueHZs2cAgA0bNuDgwYOse66Hhwe0tLSYuzg1NZW5Gw0NDVG/fn2kp6ejRYsWgjElJSWx79LKygrNmjXDJ598wu4RAIVrioqKeius3sHBwRgxYgSzYB4+fMjmlZCQEKXtveXxugJGX84dJl9A2Z3juDAATyGjj1EmcttARi+jFBzHTec4LgYyC2ZmTQfWqVMnBAYG4sSJEygsLMS0adMwbtw4tr5u3boCzZ6Ho6MjmjVrhgEDBuDatWvw9fXFpUuXmIZqbW2NoUMViZ01NDTQpUsXaGhooG7duoiOjlbwlxoYGCAyMpI9DH5CaNCgAZKTk3H//n2FlFMNDQ0cOXJEaZMzDQ0NcBzHXrIXL16gXbt2EIlEAgFTOV12//797COXSqUwMjJiadyVtbn27dtj2bJl0NDQwMWLFxEaGgptbW1Wjc1/DGFhYbC3t0e9evUE7owffvhBQJ7J76OKeVg+Ddne3p5p6+Xl5TAwMMCCBQsAyIQsf+5nz54xYsoOHTrg6dOn7Hgcx7GMLwCMAFBHR4dpxAcPHmRuBfmkAD5VuaSkhL0rsbGx+PbbbxUss8ePH6Nz586oW7euQLnghVWrVq2wY8cOgXJSv3595qbkBYy8sOzatStzrTx58gRdunRRsMZ48G4/HvxkW9nK5QtueYwfPx5r1qxRSP3mhTvHcRg8eDAuXboEa2trGBoa4vvvv8fOnTsF28s31oqPj2dFhYAwHsgfuzIsLCzQokULFv+Ji4tDYmIiYmJiYGdnh+bNm8PY2BiBgbIpo7CwELq6ujA2Noa2trZAqw8NDUX79u1haGiItWvXwtPTE1ZWVoLJeOXKlXj+/DkKCwthZGTEEiMAmdXRqVMnNmbeepszZw7c3NwUlAuRSISXL18yhcHS0hKRkZGYN28efvnlF5iammLkyJE4fPgwfHx8kJiYiMTEROaq5jgOmzdvhoaGBiPUBWQxPV7o8/joo48Ebs8FCxYIUqw1NTXZvUhMTKx2DJSIFOIr8sI0ICAAI0aMQGpqKogIEomEKTq88q0Ob8JFxmItRPSIiOwBdAUwn+O4Gqc+ENFWImoKYC4ApXSrHMdNrojhPK5s/vITZffu3XHu3DmcPHlS8JK3bt0aUVFRLJOLB19IVqtWLdja2uLJkyeIiIgQuECUYfLkyWjfvj2MjIxgZGSEmJgYBWsEkNUTyBdwAWBaf+WPn0fnzp1Vnnfu3LlYvHgxXr58CT8/P9bXhHdZ8W43+UC3fO4+n20mXyekq6ur8MKMHTsWiYmJCA0Nhaurq8I4+Imxfv36iIyMZPt37NgRPXv2xKJFi/Drr79CIpHg+PHjmDRpktKJMjc3l02UQ4YMgY+Pj0IKbmWEh4cz7c/W1lbQagGQxZ34lOLffvtNIW5y69YtJjAqV0p37doVK1euZLVORIRPP/1UoEVmZWUhNzcXZmZmKq3XTp064ejRowKG5h9//BH79u2DpqYmjIyMkJ+fj5iYGBa85ifOzMxMvHz5Ui37srwFI482bdoIXI3ydO2ALFD+4sULjBjxVzlaw4YNkZiYiKSkJDRs2BADBgxggh2QfVM8u8GjR4/w+PFjFtsBZHUrbdu2FWQ88u+cuoC6/DM2MjLCw4cP2TEB2TfGs54XFBQI3mtra2vmupNKpSzziuM4mJubCwTMoUOHUFxcjJiYGHbfGjRogFevXiEpKQnW1tYAwLJKeSb2Ro0aYdy4cXB1dRWUI1y7dg3Tpk1DVFQUu745c+bg22+/ZXMAr/jdunULT58+ZQWi/LMeMmQIex588g3v3pRXHPjr4YVQTk6OIIFEPoV/165dmD9/vkKcVBkiIyMVisx/+eUXzJs3Dz4+PsjKykK9evUgFouRlZWF7t27IyYmRuG5qcJbySIjohcACgG0qbBIeGunPoAwAKpnzr9wFMCXKo7/GxF1IaIuymojli5dylJIK1Oj2NraIj4+nrkGlKFLly7o3bs3q8xWJ2C6du0KHR0dGBoaQlNTE9nZ2YLUaB5z5sxRmLzr16+P+Pj412rnamRkhDVr1uDUqVMICAhAvXr1BNxpHMehuLhYaXGihoYGXr16BXNzc8G5e/XqpVSoTZ06FePGjVOaKsknJ9StWxePHz8WMAV8/PHHWLRoEaZNm4YVK1YgMDAQc+bMwbJly7B8+XJBUFl+AuS1+hcvXrBCs7Cwv2putbS0IBKJWKyLv6bK4C2YoKAg9OzZU6Ho1tTUlCUHyE+GgIw2ZdGiRdDX12cCUU9PD+Xl5RCLxSgqKsKUKVPYxMILmMoTaZMmTfDxxx8LxmdqaorCwkLUrVuXPbPY2FgFQTJlyhQkJiayiU9fX19BM1UlYDiOE2QnKZvgDx48KHhX+/Tpg2vXriEwMBCdOnUCx3EKBZTfffcdfvjhB2RmZuL69es4cOAA49SbOnUqNDU12fPJzs5m95TvW6QKfE2Kra0tTpw4IWAF0NDQQIcOHfDs2TMUFhay9hKAbIK+du0a0tPTlR5fXsBERERg8uTJLE5qbGzMlLyzZ88y3jobGxtmbfCCrkOHDlizZg1ycnLYM7hz5w6GDBmCkpISRqdfu3ZtdOrUSTCGadOmYfDgwYiKisKAAQPw8OFDhfo8eQEDyFy2lZ9rnz59WPJMixYtmMV+79499OnTBwYGBigqKoJUKsXMmTPh6OiIe/fuqbzngEzJkneli0Qi2NnZYcWKFUhOTha4WV++fIkBAwYgNjYW+fn51SqefmMChuO4xnxQn+M4WwAtAcRVWCS8tZMMYDUAN47jmldsq8Fx3NSKv+UbKNSYi0xuLCrX2djYID4+HmlpaSozIG7fvo2BAweifv36iImJURBSyqCvrw8iQn5+PpsQqkL9+vVx9uzZ1+Ye09PTg7OzM6sIruwO0NDQUEr/Ur9+fTx//hz6+vqCiW/AgAHVpsDR1tYWmNLa2tqIi4tTeu1t27ZFnTp14OTkhPbt22PAgAH4/PPPcefOHeTl5SmN1QwcOBDLly9H9+7dQUSCdFNV8QgevOVjYmKC3NxcREVFKViPgCxTLzc3Fzdu3FBZN8M3ZeM15uHDh+PixYu4du0aSktLmVCsV68eYmJiFO43x3FKOyhOnz4dH330EfudlZWF+Ph4wTYhISHIyspiLqg2bdoI3ICALKVVVY0E32wsKChIYT9A2NYXkFn3ERER8Pf3R5s2bVBcXIzTp08r7Gdra4vhw4fDxcUFeXl5Cn1P6tSpg4yMDGRkZAjSh/kYkDL06dMH586dQ0ZGBqMWkgcfF+Ob5/Gu2qZNm+LevXvw9vZmwX558HFOQPY91KlTB2lpaQILZteuXSgqKmLKUaNGjRAXF6e0uJeP0fKuQf77qVxzVxkNGjRAQkICBgwYgJiYGIV3jY+B8igrK1Nwj7dr1w4hISHIzs6GpaUlU3z4WIi9vT0uX74Ma2tr1iMmNjYW69atE1iV8tlmCQkJAo443jUJABMnTmTJIIDMW9GhQwfk5eUhJCSkWn2T3qQF0wdACMdxwZARW04jIoV0HSIKBTAbwB8cx72ALPuMF+cOHMeFVRzDCW+Bi4xPmeR7eCtDUlISunTpgtq1ayM+Pr5apiDPYcVnL1UHhoaG8Pf3Z03FXqcmAABzhTRv3pyZr0SkkibHxsYGL168gFgsrtKHqgrm5uYKvtuioiKVwnXixIlMoPfu3RutW7dGZmYmpk+fzni85DFo0CBERkaiSZMmzG/No0WLFkoDmrxA4eMSvAUTFxfHtGx5cByH3NxcHD16VCWZYP/+/bFt2zYmoHr16oV79+4hICAAtra27GM0NDREeHi4QjMn/jyV0ahRIwENSEFBAaufAWSaZPv27QX1EZ07d2axiI0bNzLBrOr95K2qkJCQahN/Tp8+Hffv34euri7TXlUVznIch40bNyrE+urUqYPU1FQ8f/6cZR2ampqqFTDt2rXD4cOH0alTJ6XbGRoasvbkAATxiZkzZ2LdunVK9+PvTW5uLkxMTKClpQWxWMwETL169bBgwQKB+5f3cvCxKHl0794dDx8+xL1799C7d2+2PCIigrlrlaFBgwbIzc1Fs2bNlNaU6OnpCb4BqVSq0OCQLwyNiIhAy5Ytoaenh4SEBBktvpYW2rRpg/Xr12Pw4MEAZHGZH374Ad26dcOKFStARPDw8MCWLbJu9vJJTnxslI+p8pCfQ16+fMm+o6CgIJUErvJ4LQGjgp/soByPWCciOqNm/wtE1JmIWhFRayJyrVj+xrjISkpKFCqKeUgkEuzfv1+lBaOhoQErKyvk5ORUOxNKQ0PjtQTEt99+i1q1aiE7O1tAKFgT8PxJzZo1g5aWFnJzc1GrVi2Ul5crHb+NjQ1iYmKQk5OjoClWFxYWFoiLixMIqAYNGiiNJSnL2uI4DmKxGC1btsTo0aMVMt40NDRw7do1cByHsLAwgSbcrFkzPHz4UEEgtGnTBmFhYcwa4WMwyoKRxcXF0NPTg4mJCaKiohRcZDxMTEyQnp7OPjqO42BjY4OcnBxkZmYK0rZDQkIEsYOaICkpCbq6uux5iUQiDB48WJBiW79+fRbn2bdvH0sdVYcFCxZg586d1aY3sbW1ZVZLZmYmRowYUeOaprp16yItLU1w3zt06KBUyPPQ0tLC+PHjBeSvldGpUydWByUvYNq3b6+Q5l8ZlWmjLl26xEoJKtek1a9fXxBAl/+uTUxMUFBQgDt37jAL1MrKCk+ePFHruTA2NkZ5eTk0NTVVxqPq1q2LyMhI6OvrC5JZKoOPPXbu3BlTpkxhLaJtbW1RUFCg4Grt06cPOnXqhNGjR2PcuHEoKytDTk4OuyfNmzdnSRbh4eFK+c/4QnL+eWZkZLwZssv/V7x8+RIeHh5KH1JOTg6ePn2qUsDwKZQ1SbOVSqUoLS0VpCWqw8OHD3HhwgUWRL5//z7y8/Or3d+dv67k5GRERERAIpGwnha82VtQUCA43oYNGwDIgrl+fn748ccfX5tXydzcHAEBAYKP9rPPPlNw1xQUFGDYsGEKleWA7Dk0bdoUtWvXVsq1xPugnz9/LmADNjU1xbFjxxAXFyd4Rvb29ggNDcWqVatgaGgoyCKTh46ODl6+fAlra2sYGBigrKwMeXl5Kn3K8+fPF1gmbdq0QXp6OkpLSwVCLjExUWnWH4/k5GRs2rRJgd5cKpUiPT0do0ePZhlJUqkUFhYWSgO16enpaNq0abXSUk1MTDB48GCFWovKyMnJQWxsLMRiMbumzMxMDB06FIGBgcjJyRHEwdShTp06WLZsmeDdGz16tNp+NIBMyFZm+5ZH48aNkZubq8B2XR3wmVuATPm8ffu2QoyjoKAAqampCinbHh4eCuwH8q5JvgZIWRywMionrsjTEv3444/Yvn07rK2tVWYNmpiYIDQ0FDY2NujTpw8WLFggiENWLtLl8cknn2DDhg3o0aMHpkyZAicnJ3h7e6Nfv36CGii+VqkyOI7DzZs32XnU0QrJ418rYBITEzFkyBCllCeZmZkoKytTOqG8Ln1EQUEBcnJy0LBhQ5VNeLKzs3H9+nUAstRieQsrMDAQLi4ubL0yXLp0ibk6Jk+ejPz8fJZGmJycDE1NTSxZsgTx8fGwtrZGUVER2z4rK4uZxkZGRujSpQtjLH4dmJubw9/fX6At8c2x5HH37l2sXbsWx44dUxCehYWFsLGxQe3atdUK1ry8PNSrV0/gOy4vL0fv3r2xe/dutqxBgwbYv38/a5qkra2ttLrZ3NwcoaGhbDKzsbHBo0ePlE4QKSkp2LJli8AKCw4ORp8+fZgVA8iEB0/9oQzHjh3DgQMHmMUqz9isoaEBQ0ND9O7dm2W1lZSUIC0tTSHBRFdXF1evXsXkyZOr1eMFALsX6rBkyRL4+PgIJqjMzEw0bNgQxcXF8PLyYplcqsDHAuvUqYOCgoIqmXYrg0/0UEUh07hxY8bKXNPvNDY2lgmY9PR0FBUVKQi8s2fPssZ7EomEvQ+VeyY1b95cIAhbtGhRLSoXjuOQmpoKExMTpjiMHz+ePcfatWsjPT2dxUSUKRcdOnRAaGgoS3SQTwvn17948UKpwsZbWHXq1MHWrVuxfv16NG3aFM2aNatSWcnPz2cMDQ0bNqzSYuTx2gKG47i6HMcd5TguhuO4QI7jfDiO68dx3JOKjLEwPnivZN/+HMflVWz3guM4z4rl1aabqQoJCQmYNGkSLl++rLCOl9LKtPfS0lIF32d1kJubi4SEBLRu3VqlgLl48SIbz6tXr6Cnp8c+FJFIhH79+uHBgwfw8/NTyje2f/9+3Lx5E0SEtLQ0XLp0CaGhofjiiy9YjKJBgwaIj4+HjY0NysrKmL/3xo0b6Nq1K3NFVc50qSksLCwULBhlCAgIQLdu3dC1a1eWTipfL8NxHHR1davUiOSZAgDZxzJq1ChBYDw0NBS2trbMXw+AUW5UHntISAibJBwcHJRmYhERFi1ahHXr1uHkyZNseXZ2NhwcHNCvXz92Lb6+vpgzZ44gEyg+Pp65dJ48eYJ58+bBysoKn3zyiUC5MDU1hYWFBZo2bcpiaHp6enj48CEsLS0Fwtfe3h5LlizBw4cPldZzqYK2trbatFUjIyNMnz5dkOrN1yZpa2tj7NixLH6hCtu2bUNubi709PSYdVo5cUEZUlNTBe4+PnW4MkxMTFBWVgZtbW3BPVFHx8JDvndPWloaTExMmLuHv6aIiAjY2tqyOhzeLVuvXj1ByveoUaMwfvxf4WFra2vWe0cVeEs7NjYWzZo1YwSSffv2xa5du/Dq1SscP36cWQ9EpNQT0rFjxyrbVmzbtg2PHz9Wu42BgQF75/X19RnZryrBkZ+fz1xibdq0qXariNflIuMgC+TfJKKmRNQZwPyK1T0rqF66A5hXkZqsDHcqtusCYBzHcZ1QTboZeajiGUpJSUGDBg2UCgsDAwMUFhYqdYHJ12PUBKWlpdDQ0EDnzp2V9hMBZP5N/gUSiURo1aoVYmJiUFJSAl1dXWhqakJDQwOJiYnw9fUVaGn5+flo06YNgoKC8PLlS3z55ZcIDg5GeXk5WrRoIQiCZ2RkMMp+/hghISH45ptvqq31Pn/+XOBeKigoENxrvlK8Kkp8kUgEHR0dFjgFZJZOdnY2DAwMkJiYKNAWK4MPtFpYWAjiEYMGDWJuEv4aT58+jW3btuHu3bts0khLS1Mw+S0sLBAcHMwETLt27ZSmZ2dlZaFNmzZo3bq1Qo2NlpYWpk2bxpSJiIgIzJgxQyBgDhw4gPXr18Pf3x/dunVjyxs3biw4npmZGQYNGiQQhIaGhggICECXLl0Erqm4uDjUq1cP7du3r7JdrTz4Ghdl4OtHuErth/nAuKenJ7p27Yq+ffsqcJzxWYDl5eUoKSlBQkICsrOzUVpaitGjR1c5+efn58Pb2xsnT55kLuuGDRsqfEPywrSyZaqqWSAPY2NjQQCdf6c4jkN2djZ++eUXtm7ixIlwcHDAs2fPmEDmE4N4GBgYMOFUXFwMjuMwcqR6XTgzMxMGBgaIjY1Fhw4dkJCQgNzcXNStWxdDhgzB0aNH0bBhQ2RlZSE/Px8GBgZKkwHMzMyUdkCVh1gsZskglXHo0CGBsMzKysJvv/2G0tJSuLm5qTymsbExo63q3r07Pv30U7Vj4PG6FszHAERExLi/iSiEiG4RET8L6Vbn+ERUBFllv10N6GYY0tLSlGpVvJ+WzyySh6mpKfT19ZUGn/mPCgDr9Fhd2NjYoHfv3kwLlUd5eTm0tbUFk8jgwYNx9epVpuUDgJeXFyZMmIBevXoJerRcvnwZw4cPh0Qiwd27d9G3b19mASlrkmVsbCwI4EulUrRu3Rrh4eECKhZAuVvwxIkTrGp7/vz52LRpk6DITE9PjxWTicVibN68WSGlVT6uwaeHA7IP9MKFCzAzM0N0dDQKCwuVunBOnDiB27dvs4ZpvAUjr2nxVf8ikQgikQjm5ubYvn07mxyUKSDm5uZITEyEvr4+OI5jTc0qQz77rF69enj16hVyc3OZJswzL/MTljxLACBzczVt2hSrVq1SYCGWr7x+9eoVK3i0s7PDyZMnWRJEz549mfuirKwMycnJ2LVrF4YMGaKS/VgZ+NRbZUhOTmbCVr5glYgEgr9///7MD89j/fr1uH79OkJDQ/HZZ58hPj4eSUlJaNOmDdq0aVOlBePt7Q1PT0/MmjUL06dPB/BXHQqPoqIi/Pjjj+y3tra24LsMDg5W+51aWFjg8ePHmDVrFmOw4JWvtLQ0hIWFISAgADY2NjA2NsahQ4cwZcoUQZyHJ3OtHEvcvn270vhiZaSmpqJevXoIDAxE586dER8fz+h7hgwZAmdnZ/To0QN79+5FfHw89PX1maCunACjLlutsLAQtra2SoVTTk4Orly5IhA+Pj4+uHv3LoufKvsO+IzU+vXr19g1+boCRiXdC8dxDTmOCwWQCGBlRe2LSnAcZw6gB2QFmNWlm2GwtLQUpN3JV1oDijUTfBCzbt26ePXqFYhIoA3JU280bNgQYrG42s1+Fi9eDD09PaWuiNu3b7OsE/4hWVtbIzY2VrCOxxdffIGdO3di4cKFWL9+Pe7du4cOHTrA3NwcDx8+hJ2dHYYPH44OHToIKDN4vzdPgyGVSnHjxg00aNAAjRs3RmxsLIKDg5lwMDQ0ZNdfUFDAXjCxWIzCwkIcPHgQH330ERYsWMDSVfPy8nD27Fmm9T99+hQmJiZ4+vSpwI11+/Zt9O3bF8Bfbg+xWAx7e3u8ePECWlpayM/PZ9qdPB48eIC0tDSEhoaiX79+AgsmNTWVpcbyk97evXtZoVy3bt3YByZ/fTwsLCzAcZxgYlUG+bTM0aNH48CBA4x7DPirTfGzZ88ELW8BsALJCRMmYPz48QrZet26dcPdu3dRWlqK4uJi5sMfP348NDQ0WNtce3t79v7++eef+PHHH9GsWTMYGBgoTaOtjIKCAhgZGSl8BzzhJgBER0ezWFq/fv1w69YtAIqKh46ODgwMDAQMyOXl5bh58yb8/f0xevRoJmAWL17MCmYBWb8j3q3Ff09PnjxB27ZtFWpNGjVqJIgJXLx4UWCFVk6k0dTUVFsXlZWVBVNTU3z55Zc4f/48jI2NUVJSwuJczs7OmDJlCj7++GMAMjaP8ePHo7y8nCmGLVu2xNatWzF79myB5yMrKwu3b99mvzMyMhSEMCDzqDRt2pT1zklMTBTww/EwMzNDdnY2NDU1IRKJcOzYMQEXW1Xw9/dXmdCxdu1arF27VqCMvnjxAk2bNmX1ZsqySnlFq3JpgjJ278p440F+IkokonYA7ACM5zhOFZ9zX47jggBcBbCCT0muDt2MPFVMYWEhMjIyIJVKldIeVP6woqOj0bp1a0ycOBHJyckICgpi/cUBoYvM2toatWrVQlZWFoqLi9mDiY6Oxpo1axQo4tWlYd69exd9+vRhgo3XDNesWQN3d3cFV56WlhbWr18PT09PjB49GiNGjADHcejXrx8yMjLAcRy6dOkiSOsUiUTw8vJCw4YNWZOxrl27Ij8/Hz///DOr1bl69SqjqODb2aalpWHKlCmCiWfy5Ml48OCBgjl85MgRQYLE/fv3MWjQIHz22WeCj+vRo0fMMuMzc3hqEV1dXVhaWmLIkCFYt26dQMCIRCIcPXoU06ZNw4wZM9C8eXOBBcO3gQZkKaU+Pj4wMTFh5+KtVqlUqrRjpLm5ORPufOCX11DlUdmC0dfXZ7Ua8vDz8xMUqBIRfHx8MGzYMGhqajJWCXkMHToUZ86cwebNmxX6FI0cORJffvklFi5cyFjCAVnGkbwg44sh1YHvaCof10hMTMTJkydZQFu+uK6qhmuurq4IDw9nkypvSSYkJKBdu3bIyMhAUlIS49ri7/2BAwdYXODXX3/FH3/8gaNHj+Lbb79VOAdv6fPXHRQUhB49eqCkpARGRkYs9RyQuajatGmjtGEXj8zMTHz00Ufo378/jh49Cnt7e2hrayM7Oxvp6elo164dfvrpJ0HCSq1atVBQUIC0tDTUrVsXvXr1wvPnzzF58mTcv3+fWY/a2toCrT84OFihIyxfN9WqVSsUFRVBV1cXZWVlSgUMD15xiIiIYPGR6uDRo0fo2rUra/fB48SJE+jSpQusrKzYM+GFZ8eOHZnbrHLBJ/AXa7K8m/Xq1atwcXGpcjyvK2CqpHupsFyeQSZIRsoF7/mk8ztE1LGiHkahzZ483YySdQKqmC5duiAwMBBXrlxB+/btBQHAygImMDAQbdq0QZ8+ffDq1Ss8fvwY2traTDuWFzANGzaEqakpsrKyEBgYyNodHz58GOPHjxcEfuWhLI1PLBZDR0cHTZs2xd27dwXVs6pgZmYGTU1NWFtbs+Kp9u3bY/78+Uq3T0hIQHx8PNq1a8eqlD///HN88cUXAg1QnmKFFzDLly/Hzp07ERUVxXzy1tbWArcYx3GQSqVITk7GgAEDYGNjg9TUVKSkpKB+/fqsPw7wV1CzcjppTEwMmjZtim+//Rb9+/fHwIEDcfHiRUENCm+yy2vn8q5OftLksX//fsFExe+XnZ2Nvn37KgQudXR0oKenJ6iNsLa2Vggs891AeUyfPh0aGhoKcSd52iHelRYWFqZW4dDU1IS3tzcKCwuVctcBYMvl74P836NHjxYEx4kIK1aswK5duwTutwYNGgjSXq9fvw4PDw/Uq1cPT58+FfBw8bGJyueSP/+kSZNw/fp15k4eNGgQ4uLi2PbK+oRoamri0aNHkEgksLGxQWlpKdq2basyu+2LL77AuXPnmAXWqFEjREdHw9zcHPn5+UywpqWloVevXmoFjKamJmbOnAmO4zBlyhR8+umnMDY2RlZWFqN4mTFjhtLr5a1lW1tbbN++Ha1atcLp06cFFDoGBgZsPPKU/fy95oVLx44d2TvBcRyysrJUNkrjiWF1dXXZveChrmEeX3vUoUMHJjR8fHwQGxurwHRw584d9O3bF7169cK+ffvQrFkzpT16Hj16BHt7e+aKz8/Px9WrV6uVKPS6AuY6AF2O4xh7IMdx7TiO68txnH7F79qQVfdHENFpOboYlekNquhmqhrM4MGDce3aNaSlpWHYsGG4evUqy7QwMTFhAb7IyEiEhYWhXbt2rNo4KSkJHh4e2LdvHwBhDMbKygp9+/ZFVlYWYmNjmb+9tLQUlpaWaN++vdLaAFtbWyQkJGDfvn24f/++oD+8nZ0drl+/rnbyUQdNTU2lD1ZbWxsvXrxAQUEB7O3tYWJiwgqw5MFVkObxqF27Nvz9/WFvb49atWpBKpUqTOCVr4tH5WwoeSvg0aNH6NGjh8IxoqOjYWdnh5YtWzJ2aT65gQdv7VUeN4/K41OWVUNESE9PZywJ8uDpRh4+fMjqW5o3b15lqqa2tjZ27dolWMYnMfBo3rw5pk6dil9//VXtsQCZG9PLywtRUVEKfvbK16IM/fv3ZxYYILtvrVq1gr6+Pguuy9+rsrIyZuk3a9YMX331Fc6dOycgiQSEbRyUgY818ezFffv2FbxrlYk1gb/aJvOtKX766Se1hcUdO3bExYsX4enpiR9//BGNGzfGo0ePUL9+fZiamjILJjU1Fa1atVLbcZHPVOTvWevWrdGwYUNkZ2cjKytLaYEtj5SUFAFTAd8iQJ6SSb5HUXp6OmxtbVFcXIzS0lKcO3cOs2bNwqhRo2BtbY3Ro0ez/VS5OPnK+mfPnmHgwIHo2rUri5vk5+cLMtjkIf8cO3XqhM2bN2POnDkoLy8XMBXwx7916xY++ugjWFhY4ObNm+jbty9zo/O4c+cO2rVrBx0dHSZgjhw5gmnTpqm8Z/J43Up+AjASwKCKNOUwAMshEwiPOI4LAXALwBoiUiRBUo1q0c1UhpGREbKzs6Grq4sePXrg+PHjSik7tmzZgsWLF7O6AF7Lq1u3LsuYkrdgNDQ0MHToUGRlZSEhIQEjR47EoUOHWNHfZ599prTJD99K+fnz57hw4YKg6tfGxgZ37txRS5vxOrC1tcWdO3dgbGzMaieUvbw9evQQMOjWrl0bO3fuFPR5kWcplkebNm1w69Yt9kE2b94cN2/eFFTvN2jQAElJSfD19VXgNdPQ0EBycrICtQggnETV8WsBEJAoqkN6ejqsrKxgbGwsyIjLzMzEo0eP4OTkxDToqlxDqqCnp8fqiYgI3bp1w9q1axUas6nDuXPn1BYx6ujoICcnRymvnLxguHDhAkaMGMEIFQGhgPn8889ZnxuO42BsbCzINOTRtm1bpdxl8rCyssK1a9fQvn17aGpqquTT09HRYWnBgDAupw4cx2HTpk1Yt24dGjZsiCZNmuDQoUMoKChA7dq1WfKGfDyOiDBr1ixs3boVR48eRVBQkMpiaUdHR2RnZyskMlSG/PEBmVehpKQEmpqarK9Ljx49BAk5PKXPzp07BZaRlpYWPvnkE7adKsXBzs4OpaWl6N69O3r27MkKv4kIoaGhkEgkSguIX7x4weYmS0tLbNiwAWvWrFGwXJo3b47w8HBIJBKmHBkZGbFvqn79+oiIiEBhYSFOnDiB77//HgBYHDQuLg5NmjQRUMyowmvHYIgomYjGVKQp2xPRcCLaRUTtiKh9xf+/qdj3JhGNULK82nQzlWFnZ4ePP/4YZmZmiIiIUBAwkZGR6Nixo8BdUlZWxm4w/wArT248RbZYLMaIESPg6enJmoDxleKVX5QWLVrg8uXLaNq0KQwNDXH9+nVmdfC1BK9LKaIKY8aMqVYXyaFDhwpI+czMzNC2bVuWGWVnZwcfHx+lxH2tW7fGvn37mGXCC2p5TqbPP/8cmzdvRuPGjRXiSnzPGHWBaVWcYPKoTnCbq+iXY2VlpdDki2cAkCdprNzPpbrZMt9//z2bMGfOnImioiK1WT7K8PLlS7Vuj8aNG+Pq1atKj8uTjiYmJjJXmDylTFFREXsOvXr1wqVLlwTPtkOHDgpxnI4dO+LmzZtq0/UHDRqEs2fPKgToK086DRs2hK+vL1q1aoVGjRrh0aNHShUMZZB3RfJErq9evRIQn6ampsLY2JhZpB9//DG++OILdOjQAQcPHhRU8MvDzs6uyj7z+vr6iIuLU0qJoq+vj/DwcNja2grSmDmOQ7du3XDjxg2kpaWpbLUg34K9Mpo1awZTU1N4eHgwS7BRo0aIj49HcHAwXF1dldJg3bt3T1A8rcoN37JlS+zatUsg6E1NTVmMbPLkySzByM3NTeAylScJrkyuqwz/mkr+KVOmsBvG+wt5cByH8+fPCzR3QFb0xLtpTE1NmStNfvKS78FgZGSE9evXC7Tnr7/+Gh4eHgKXl5mZGS5evIivv/4a33zzDaKjowW+5l69er1WMac66Orqol+/fhg6dGiNUgkbNmyIdev+6kzdqVMnXLlyRSmNjpGREVJTUwUuOm9vb0EMwdraGitXrhQ0eeNha2urVPMC/qLgv3HjButt83fBC5jWrVuzroOALA4nH+wEFK09de0c5GFnZ8fcLxKJhLlaawKJRKK2pqVJkya4ePGiUo6oVq1aITw8HEeOHFG452KxWEGDnzt3ruA7GDFihAL/l7W1NYKDg9UW9LVu3ZrFBeVhY2MjCEjb2NjgypUraNWqFXr16lUtZnJl4DgO5eXlMDIyEiiAUVFRrMjx0qVL+PTTT2FtbY2WLVuyBBJlXRfNzMzU9rkPDg6GsbExYmNjBS5QkUgEDQ0NtG/fHrdv32aeCENDQyQnJ0NPTw+mpqbw8fERtByoDFtbW5WCtkWLFgpZpXycOT09HZ988omg1QUP+fYC6tCsWTOcP39e0ASvbdu2TMDo6Ohg+PDh+OGHHxTmgdjYWNYKnGemVod/jYCRnyCWLFki+DisrKzw4sULNmGIxWIsXLgQZmZmjOiOD/IqS82U/2D4VFgenTt3hre3t4JfdNWqVbCwsICdnZ3CpMPzjwGoVqVzTWBiYqKSrkQZNDQ0BJpqy5YtYWlpqdJC8Pb2ZpPErFmzYGlpWS0OJkD2UamKPdWuXRu5ubkICQmpFktrVeA4DpmZmTAzM1OoAXn69Cnatm2rVoNVxcD88OFDLF68GAsXLhTQEJWXl6NevXooLCwUxC+ICEePHlU4TkhICEsHlk/nVYYmTZrA19eXZXrJo0OHDnjy5IkCWSfP1ybvkgFkz1c+BmdkZKQQK+M4DoWFhWoFDMdxgveYh62tLaytrZmLjncJ29jYoEWLFvDy8lJ5THXga6X69evHAuxisRh3797F4MGDYWZmhvz8fIEA++STT/Dw4UMBjx0PfX19tXGmCxcu4MWLFwqEorGxsbCxsYGtrS38/f0ZY4a/vz927drFntHRo0fVslzwQf/K8PLywtmzZxWUrNatWyMsLIxZ71paWmy+unHjRo2USj09PXzzzTf4/PPPkZycDJFIpDBvDBw4UOn4vL29mVCtU6fOf8eCkYe1tbVggmzcuLHAJx4XF4cbN27AxcWFxQ/42IE8pFIp/P39WZfImoCX8gAUNGEPDw/298iRI1Vq9TWBRCIBx3EsK0wVfH19sW7dOpUas5aWFsuWUwZe2y0pKcGNGzdqxDfVpEkTlYFdftzqfOKamppISkqqFkGnqakpcnJyWIW6POLi4tCnTx+Fe6ClpYX09HRMmTIFq1evFggYIsLatWsREREBV1dXLFq0SOCm4CnUx44diz/++ENwro0bNyqM79KlS7h79y67XnXEqlZWVmjQoIFCxpVYLIaVlRX279+voPF269YN27dvr1a8ozLGjRsHGxsbpQLm+++/R3R0NBITE/Hzzz8rxI7atWuHoUOHYurUqawWqHbt2iyRQxXjcEpKCmbMmKFyTE+fPkWzZs3QuXNn5go+ceIE2rZti1atWqFOnToKlhjHcbh8+bLKb1fdeyQSiSAWixX2DQ8PR+/evZGYmMgSAJKSkvDq1SucOHGCuTGrSuKxs7NTEP6vXr2CoaEhtLS0BBmqYrEYv/32G0pKSqCtrY2SkhLMnz8fW7ZswbRp0xAfH4/Zs2cLesSoAx8GmD9/PiIjI5GamsrmQV5QRUREKLXw5Bkp3ooFw3GcpCLd+BnHccc5jjPgOE6P4zj/Cv6wMI7jVKopHMeZcBx3gOO46IoEgQMcx5nIrb/McVwux3EXajo2Vfj4448FRIzh4eEwMjISaBjW1taIiIgQUEIkJCRgz549ClTffxfXrl2DSCSCRCJB586dsWfPnhofw9HREadOnWK/X716xdKqVfX+KCsrw+XLlzF27FjGrCyPqKgoPH/+vFoN0GJjY+Hi4qJUOweUxzB0dHRUNimqXbs2MjMz1VpDzZs3x++//87aE6hDZauAT7EG/qqdqCxgGjdujBkzZmDFihWoU6eOYNI/dOgQunTpgvHjx0NPTw8aGhqoXbs2c6vyTZ9atWoliPfcunULdnZ2CmwThYWFKCsrY3xf6sBxnKBWC5BZTM7Ozti9ezcaNmzI6pp41K1bl5G61gRpaWlo3bo1UlNTFTIJHz9+jE8//RQbNmzAypUrsXnzZuzbt08QP+J7rIwYMQKHDh2Cjo5OlTxdgIw/S0NDg90nIsLFixfZ7+DgYHTq1Am1atVCu3btkJqaioCAAFhbW8POzg4GBgYKmYfAX7EOZYWYJSUlapNJunTpotDmISIiAt999x0uXrzIsrYSExNhZGSEZs2aKTRfqwl27dqFSZMmYcyYMYJq+61bt+L27dsoLCxEw4YNMWHCBOjr62PZsmVYv349JkyYgJ9//hlDhw6tVsuPBw8eoF+/fixzkk9Tb9q0KcsgO378uCA1Whl4Jgt1eB0LpqQiCN8GQDmAqQDKAAwgovYAOgAYynGcYo6qDHsAxBKRHRE1BfASwG659asBvF5jFBXQ09MTvCjh4eEYMmSIwD0VExODffv2CVJVw8LCkJGRgfz8fJUC5tixY2p9uZVRUlICjuPw6tUrpKamomvXrsjKyqo2TT8gs6z45kO8phMZGcmo71VZMDt37sSUKVNQp04daGtrKwiB06dPM0bcqhATE4NWrVqxnvKVoSxNNzw8nKVzyuPIkSM4fvw4/vzzT7UB8m+//Rbu7u5V0r4DsolF/j5U5v+SD4QDMpdIr1694OjoCF9fX3Tr1o0RkxYWFuLZs2cCnzUgy8jjXUF8+jUgs9R4uqDo6GgMGzZM8F7xtR2AzMJRFoQGAE9PT/aM+Eye0tJS/Pjjj3B3d8fs2bORl5eH/fv3K9T6BAQEYMuWLViwYEGNhMytW7cwfPhwTJs2DS9evBCsO3XqFL755ht4e3tj6dKlMDQ0xPfff6+QXPLkyRMMGjQI+fn5EIvFStPl5REbGwsLCwt8+umnuH//PkpLS+Hs7Iz8/HzMmzePxagcHR1ZDdWNGzdYhpWdnZ1a2pyrV68K6rl48DG6yuA9Fl9//bXALVlcXIzY2FgYGxtj6tSpbHJNTEzE4MGDMWfOnNeOrYrFYkgkEpbYwKeKx8bGory8HF999RVat27NMsikUikePHiAn3/+GQBYyUR1Gsvdv38fvXr1Yn1veAHTs2dP1mK5vLxcKeWVPOSLgFXh77rI7kDGIUZExJeNalf8U1BhOY6zg6xAc4nc4sUAunAc1xQAiMgPgOqigDeAgoIC9OnTR5CKee3aNQwfPlyg9T5//hy2trYwNzdXKWBu3bqllmK/vLwcq1evZlW1kZGRGDRoEBITE5GQkICGDRuiT58+LGh3+/ZtlROCPHFlhw4dMG7cODx58gSJiYk4ffo0evbsyQRMcXExpk2bxiYmQPZB8RpW8+bNFdJy8/LyYGxsrNbFxr+AfMFk27ZtFepHcnNzcf78eUF20qVLl3Du3Dn4+PgItn3y5AkyMjLg6uqKCxcuVFm8VVRUVC3qDAsLC0FsiS88Kyoqgo6ODuv2yMPNzQ0NGjRAjx498PjxY/zwww/Mdbllyxal7puuXbsyGnf52o8xY8YIqrnli94A2TvTr18/mJqaIigoSKk7paysDH/88YcCf1hgYCC+++47rFq1igkmZa6eFy9eYODAgXBwcICrq6vSGp/jx4+zOBAPvk6lW7duCAgIAPAXM4GZmRl0dHRYt1BAmNIcFBQEImLdDj/++GOmUBw4cEClEDh48CAmTpzIaH82btwIBwcHfPfdd5g0aRITtCYmJtDQ0ICOjg569OjB4qFVuYVDQkKU9o8pKChgAmbOnDnMvcT3HzIxMWEB/rS0NDg5ObGuo/b29vjuu+9QXFyMpKQkDB8+XDAh15SzKygoSND47OOPP8atW7ewa9cuODg4oHfv3uA4DomJiRg/fjyePXsGX19fjB49GmfPngXwV+1ZVVX/JSUlMDAwgIaGBoiICZjmzZsLrG95q/918Xfo+rUAfAoZZxg4jtOsqF9JB3CNiJTlzLYGEExEzFFY8XcwAMWm6X8DsbGxSt1APOzt7Zn/mCdz4284D57ie+jQoSpTZ83NzdXGIfbv34+OHTvC0dERxcXFzHpKSEhAYmIiGjZsiLZt27LCuKNHjwp89k+fPmUP3dnZGT4+Prh+/TrjTXJ1dcWkSZMwf/586OrqMhdZTEwMPv74Y/Tq1Ys1x5LXrj766CPcvn0bUqkUBQUFzF0wduxY7N27V+lLKpFI8MMPP6C8vJylEyurH+E1K/lMl/v378PV1VVQ9Zyeno4DBw5gxowZMDc3R2pqKuzs7CCVSpVaRYCs8OvixYtVfkQWFhawsrJCeXk5IiMjIRKJEBAQgBcvXsDCwkIwDj44HBERgby8PBYz40kSVcUOeA2u8mRSu3Zt6OnpYdOmTbCxsWGuCJFIhP379+PQoUPo2rUrOnTogDNnzsDW1palG8vfL2dnZwVeq4cPHyotYK0MPhjcpEkTeHl5Ka3XCgoKQlxcHI4dO8aW8W4f+V72S5Ysga6urlJLRL4NgLu7O65fv874/Dp37swE6/PnzxWKVAGZAiYSiWBoaAg9PT2kpqZCT0+PKXQtWrSAt7c3lixZItivcePGKCoqqhbzuVQqRcuWLRWEbO3atWFlZYXS0lLcvHmTjZVPAuG3ycnJwdmzZzFv3jyBtcmzbJeWlqJNmzZMgBIRvvrqK4V4iFQqxYkTJzB58mRBViMge6/lXXw9e/bEwYMHYW1tDX19fZaEJJFIMHDgQNy4cQMlJSUYOXIknj17hl27dqFWrVosnVkeJSUleP78OZKSkhTiyVxF23ATExOmqGRmZsLc3BydOnVSmq0mj6rioa8jYPQrBMljAAmQubxARBKS0exbA+jGcZwCxcubgjwXmTyFuzz++OMP1ulRGeQnGL4Yrby8XKGbnbGxMb744guVN5IP0PKTTG5uLry9veHq6orHjx8jOjoagwYNws8//wxfX19ERUXh448/ZgLGxsZGkGBgbm4OfX19PHnyBCKRCL/99hu2bt2K6OhoNGrUCNeuXUNKSgrLBDIxMcHly5fZBMh/ELzrhdcw+SA0D541d/PmzXB0dMTt27fRu3dv2NrawsbGBitWrMD8+fMFE1NgYCAGDRok8A/Lu4N4PH78GL/++ivTgOUxaNAg+Pn5obCwEF5eXvD29mbxDN6quHnzpkLMgcfDhw/h4eEhoOpQBktLS3Tu3Blz585FQEAAkpKScObMGRw5ckQhthAUFMS0wtDQUJbWOmzYMEybNg0ODg4qz6OlpYXZs2dj1KhRguWOjo5o0qQJhg8fzkgxt23bhubNm+PAgQPQ0tJC+/btERoailq1aqFu3boCSvq7d+9i/PjxCvc2NzdXoOzwbRPkkZaWJnD98K2j5cH3pOevG5ARNconpPCpwWKxGAMHDlQ7mSQkJGDYsGGC/kvy5Ija2tqws7NTKOC8ePGiIG3awcGh2lXiJ0+eVMrUEBMTw1w3OTk5MDU1xaeffsp6LInFYuzcuRNmZmaoU6cObty4IcgKjIuLY5lSAwYMwPXr1wXEpzzkq97lWyEHBQXB3NxcoBxcvnwZzs7OqFu3Lnbs2IG9e/fi+PHjzKLPzs4WZPdpaWmhVatWzAUGyFy15ubmsLKywr1791gb7wULFqB9+/YYP368wF147tw5zJ8/H6tWrUJoaCguXLiAOXPmCNLL+bgX/2xtbGxw5swZdOrUCR9//DGjjUlPT1fgWANQpUvu78RgOhDRDCIStJ4jolwANyCLw3SX4yD7HMBzAB04jmPnrfi7Q8W6aqEyF1llSCQSFBYWYvTo0bh27ZpgHS+d5REWFoY2bdqgpKQEjRo1wosXL1hrU3V9NEQiEftw+Ing1KlTGDNmDJYtWwZ/f39Mnixj0+nWrRsePXoEkUgEU1NTlJaWIj8/nxWJcRyHlJQU1KtXD9OmTcP169fxww8/YMaMGRg7dix+/vlnTJw4ETNmzFDLAsAXf/IfhL29PZ49e4Znz56xFxKQTR55eXnQ1dWFo6Mj5s6dy4q0Ro8eDQ8PDyxfvhwxMTF48uQJABmpo4eHB+7du8deSPkis6VLlyIpKQnl5eWoX78+i00VFhaymEO3bt1w7do1zJ07F4sWLWLLtbW18cMPP8Df3x+3bt1SSWAoEonw0UcfCSqnlUFfXx/Dhw9HvXr1MHbsWIwcORKTJ0/GggULFAK3jx8/xrfffouoqCgEBwezRITmzZvj0KFDSivoecyaNQtr1qxRmrwwYsQIJsxKS0tRUlKCnj17MreLubk5Y76tHBOSb13LT1xUqc0C8BdrBI/79+9j586dClllPEQiEaRSKa5fv67AtHDv3j2BFm1nZ4etW7cqJBBUhp2dHdatW4cvv/wSLVq0UOgUm5+fj1q1amHChAmCrphEhNu3bwvYf1u3bl1l900AzDLlU9p1dHQYFc7SpUtZzIW/pjp16iAhIQFSqRRHjx6Fr68vOnbsiDp16uDBgwcYNmwYmyzLyspYskmHDh1w69YtpXG/Jk2aCN5RDQ0NZGRk4MyZM9i4cSP8/PwgEong4eGB4uJirF+/Hn369IGGhgaWL18OOzs7xMbGquymWpkEt3379hg0aBAAmWty2LBhbF23bt1YwkN0dDTi4+Px4sULLFu2DJ6envj2228xdepUbNu2TZAJ1qhRIwH9U//+/bFx40Z06NCBZWICsm6fypogVtXY7I2kKXMcZ8lxnGnF3/oABgMIr2BG5oXROSKKBhAEwF1ud3cATyrWvRFcuXIFn3zyCfr376/QMllekzc1NUVmZibCwsJgb2+PunXrwt7eHo8fP0Z8fDwaNWrEBExpaamCNskzAw8ePJi1CYiJiUHz5s1ZQyq+kpf3AatLI+R7RWhqamLOnDnYs2cPmjdvju7du+PPP/+EgYEBmjRpojadk7eoeCI9CwsLZGVlCYLQPBYsWIApU6bA3t4ep06dUppRM3PmTBw6dAhxcXEsiyUzM1OpTzs7OxvLly9XmCDka1s0NDTQrVs3eHt7K6Rvz58/H0+fPoVIJMLkyZMVsuv4oCxPc6Ks3kcikcDPzw/FxcU4e/asoG6pb9++uHr1qoLAyM3NhYWFBSQSCTIyMlhxGcdxShkN5FG7du1qTYg//vgjZs+erbCcbzXBsxwAMncSX4XdpEkTbNiwAcuWLUNkZKRCIR1faAnIhNjRo0fxySefKBV4RIQdO3Zg3rx5ePz4MYt38b1p+Ew4Hj179sT+/furbK3dtWtXPHnyBA0aNMCPP/6ISZMmsXU6OjoICAhA+/btoa2tDSsrK0YqumfPHowaNapaaeeVYWZmhqlT/2qY26RJE0REROD48eP45ZdfUFxcjKdPn+LkyZPsOseOHYvNmzcjKCgIK1asQF5eHmMY19LSgo6ODvbs2SMQvLzQ4Nk75CFfhA3IXNh8nY+hoSG0tbUxd+5cjB8/XlC2AMgUs44dO2LatGnYsGGD0lqdypgwYQJz3Xl4eCilS7K0tERGRgauXbuG0aNHV3lv+blK/re5uTlTEuzs7BAVFYXY2FjY29sjKysL2dnZePXqFdLS0tQqX8Cbq4OpB+AGJ+sDEwBZDEZVmvEvAJpXpCjHAGhesQwAwHHcHQDHAQzkOC6J47hPVBxHKVJTU3H58mV89NFH0NDQgJmZmSAAeOnSJfbxjRw5EqdOnWL8Y3yg6+HDh7h58yZjBEhMTMSVK1ewdetWeHl5MY09JiYGTZo0QcOGDVm2h7KJl0f37t2V9hoHZBX1Fy9eFHzg8v3Yq0uvIQ/5l4v/iORRt25dto2qJAZe29q+fTt7ocvLyxWoeJKSkmBnZ4cZM2YwenozMzNkZmYiMDBQULQ1btw4pTEtbW1thIWFoUOHDqxH/fLly3H79m14enpizpw5TIPr1auXQruEpKQkzJgxA/n5+fDw8FDgVOvQoQOuXr0qcB9VpkmpaXC2umjTpo1SAc4LEt6CSUtLw2+//cYmz2+//RbDhg3Djz/+CGdnZwEtDyBLr+fdqwEBARgxYgS6d++uMLHUrVsXaWlpSE1NxXfffQfgLx6zFi1aIDIyEhKJRCAsmzVrhoULF1ZZSNuiRQssXLgQgEygyD/b1q1b4/Dhw+z5T5gwAfv378fx48dRWFioNLW4OpgzZ44gHjJ06FD4+Pjg5cuX6N27N2bOnAkfHx+sWrWKWYydOnWCgYEBRo4ciaZNmyI8PByOjo6MAaF///5ISkpSYChYt26dUsZrjuMEMY1atWph7dq1mDVrFgBZb5+pU6cqLZDlwX9f1e0QWRX4517d0ormzZsLXH8cxwlicl999RX279+PWrVqYfjw4fDx8cGKFSuwYsUKLFu2TMEKrgy17YiVgYiMlCwLBaBY9ql8/xwAijwif62veWUYZGmm/v7+yMnJwYoVK9hH8dVXX+HUqVP45ZdfsHnzZgwcOJBpqDyVP/9RdevWDVpaWmjatCnu3LmDtm3bQkdHB6mpqUhMTMTq1auRkJAAZ2dnrFq1CrGxsUxDHjZsGDw9PVW6JgAZ67Oql61du3Y4cODAG6eQAWQvTXUKsFRBV1cXK1asYBklgwYNEkzS5ubmOHv2LPr37y+I84wZM4YlLChLB1WGbt26YejQoQBk99Ta2hoJCQnw8PCAhoYGe67du3fH+vXr2Quel5eH5cuXY926ddDT00PTpk0VzHctLS3k5uaysfz0009YtWoVE0JGRkY16mD6JmFpaYmzZ88iLi4OS5cuZYqKgYEBG9/58+cVBAcn13Pl/v37KuMXrVq1wtOnT6GpqYmOHTsKBH67du0QEBCgYIlxHKegeSuDpqYmE/yV0aFDB7i5ubF7zlvVVlZWAmbhvwszMzPMmzeP/TY2NmYZX/KQt66mTp2K+vXrM239o48+Uvr9qmutkZqaKmCe0NXVZWwC1a2de11mdVVQ14K8MszNzQWF3wAE9DC1a9fGixcv4O7ujpYtW8LJyQlTpkzBsGHDcObMGXz22WeC+14ZNRYw7yMKCgpw584drFy5UmFds2bNsGfPHty/fx+GhoYs+4pH3bp1Gd2BvDtE3mSVSCQsDbVx48aYPXs2du3ahaysLGZZDBgwgFGIqIK+vj47romJiYCqwt7eXinX1OtCXhNv1KiRIID8OuAZXQEIfL+A7B5v2LBBofalQYMG6Nq1K2PwrQ7mzJkj+N2uXTulXFIGBgbs/h05cgTPnj1jHUXV7de5c2c22TVq1AiLFi1i69q2bauWNv9tQkNDAxs2bFDLwqzK3aGvr4+0tDQUFBQoxD94tG7dGq6urkoFRosWLeDi4lLt4HpN0KhRI4HPHwCLS75r1JSUVBksLS2VMre/S/AF3NVFVcJo8+bNqFevHjiOw8qVK9l3NWbMmCqP/a8QMJs2bWJmqTLUq1cPBw8eVFpsNWbMGIWCssqIi4sTUG40bdqU+cvlmUZ9fX2r5Y8HZC4xeQFjZGTE/PF/F9nZ2QIW1169elXJHPt3wLfwVfaifv7552qtur8DXV1d3L59G8XFxVi2bFm19pkyZYrKQs2aEoW+adSE4l8ekydPxoYNG9S6Z62srHDjxg2ltDU8RU510p9rCg0NDezdu/eNH/d9Qfv27ZUWyvr6+qq06t42Ro4c+UaEJw/5dhzKlDZ1+L/nIpNIJBCJRIKbUBkTJkzAokWLlGqA9erVq5K9VyQSgYgEH8oPP/wgKEoCoFS4PH/+XGm6bsuWLREYGIjp06ezZa/LNFsZxcXFgpe+RYsW6Nmz5xs5tjI0btxYZVoxgGrVKrwOunXrhs2bN+OXX36peuMKWFpaqrzPHMdV27XwPsHMzAza2tpqi1Q5jsPMmTNVPgt3d/cqKWteF5Vjf/8mjB8/XsGCycvLg5OTk9oum28T3bp1U+i6+q5Q5dckxz3G/2vEcVx/juPyKn6/4DjOs2LbwRzHBXIc97Tif6Uzd6X9gzmO8620fhTHccT91V5ZJbKyshRqEOQRHx+PTZs2sWJAiURSpZYqkUjw+++/Y8GCBXBzc4OOjg40NDRQWlrKKrft7e0Vir8qY/369Xj8+DGOHDmicM4//vgDCxYsQN26dRXoFhISErB//361x1aH2rVrq6QfeRvQ0tJSoFH5JzBgwADs3LlTQXFISUlRmUzxb4Wbmxs+++wztdtUdj/Ko3JTqv9npKens+LPjIwMhIeHq2VOrozK7AY1xZ9//ol9+/YJSE/fZ4hEIixYsEDlN5OSkoI1a9Zg4cKF8PDwwPXr15Geno6wsLAqC55Zbr2qfwAKlSzrD+BCxd+GAKIAdIIs0F+/YnkbAK9UHJPtr2RdLQC3ATwE0KWq8RkaGpK3tzedPXuW8vPziYgoOzubpFIp5eTkkIODA+Xk5JCTkxMREc2fP582btxIqiCRSGjq1Kn05MkTtqysrIyIiKRSKc2cOZMkEgklJSVRly5dqLy8nIiIgoODydnZmU6fPk1SqZTS0tJoyZIlRER07tw5unPnDjve/fv3af/+/UREdPnyZbp9+7ZgDNu3b6cpU6ZQfHy8ynGqw969e9m9+Lfh+fPn5ODgQEuXLqXw8HCl27i4uND06dMpKSnpHx7dB1QHb/PdLCwspEmTJtHs2bPp1q1b5OLiQkeOHCEHBwf2rapDYGAgTZ48mTZv3vzaY3B1dSUiIjc3t2qd810hLi6OTp48STNmzKAzZ87Q3r17FbYRiUTk4OBA6enpRCSbH318fGjz5s30xx9/kJeXFwF4TKrkh6oVRNUTMBW/jwIYU2kbDkA2AN2q9q+0bgOA4QBuVkfA2NjYUG5uLj169Ijmz59Pjo6O5OHhQa6uruTi4sJuzLFjx2jLli20Z88eOnjwIK1du5Z+//13OnnyJO3atYvmzZtHIpGIrly5QlevXlX5UG7cuEHnz5+nlStXkp+fH+3du5eOHz9OGzduJJFIRL6+vuTs7Ezff/89ZWdns4fk5uZGoaGh5ObmRt7e3iSRSIhI9rEtX75ccA43NzcqKiqiSZMmUUBAAEmlUrUvyuvi9u3bbBwlJSU0f/58tdf+piGVSunq1avVvr7CwkKaPn06iUQiys/Pp927d9OGDRsE2xQVFZGXlxcVFBTQ2rVrad68ebRjxw4qLi5+G5fwVnHlyhXKzc2t8X7nzp2jnJwctdukpqaSk5MTXbp0iaRSKd29e1fwHHJzc2nPnj30+++/1/j8PCQSicKzlUgkNHToULp+/XqNjycWi8nHx4fc3d1pyZIl7N3lIZVKycXFhVJSUujly5e0ZcsWdv6oqChatGiR2uNLpVKaNWsWicViOn/+PLm5udGff/5JRERBQUE0e/ZsOn78uNpjXL16lY4dO0ZERNevX2ffU1xc3Dt/B4uLi+no0aPk7+9PKSkpNGvWLAoJCWHvmLOzM4nFYsE+mzZtomfPnqk97t8VMDxXWDCA06RowZgDiANgX2m/rwH4qjhmfwB5csddULG8E4CTFX9XS8B06tRJcLH8SxcXF0c3btxgy8ViMU2ePJndwOjoaIqJiaGQkBD2//bt28nFxUXhxZWHVCql2bNn09y5c4mIyMHBQalFVHli2LZtG+3YsUOpRrNgwQL2t0gkIg8PDyKSTZbHjh0jR0fHN671BQQE0ODBgykkJISIZFpXbGwsubu7ExGpvQdvAhKJhBYsWED79u0jJycnpgi8ePGCbt++zX7z265evZpcXV0pOTlZcJxVq1ZRbGwsm0iOHz9OAQEBgm1evHhBXl5eb2TcpaWlNH/+fDp37pxguVgspu3bt9OGDRsoNjb2b5/n8uXLtGnTJpozZw4FBgZWe7/AwEBycXGhdevWqdympKSEJk+ezIS0g4MD7dq1i5YsWUJZWVm0ceNG8vDwoIiICNqwYYPAUrxz5061tHKJREIzZsygffv2CZafOHGC7t69S05OTpSVlVXlcW7evElubm7k4eFBHh4e5OfnRxKJhM6dO0f37t0TbLt79266deuWymPt2rWLQkNDVa7ftm0b+fn5CZYdOnSIfv/9d+a5uHTpEq1Zs4aIiAoKCmj16tXk6+tLRLJ7L/+eFRcXk7e3NxHJPCczZ858ZxbNiRMnyMXFhQIDA2n37t00adIkKiwsFGwTEBBAs2fPpnXr1lFWVhYdO3aMduzYUeWx35YFkwdZVX4ggKmV1tsDiAHQVMUxFSwYyOJBNwE0oioEDIDJkHGhPbaxsXmtG64MHh4eChqxMhw/fpzu3r1LRLKP9e9aGJ6enuzFu3fvHl24cEGwPj09nRwcHAQfek5ODm3cuJEWLlzI/vHaqDqIRCI6fPgwubm5UUpKCm3cuJFKSkrYh+Hm5saEqLybkHcLlpaWvvZ1pqam0tOnT4lI5gbkBUF6ejqtWrWK5s6dS7///jtdu3aNZs+eTREREUREtGzZMiYIK6OkpIR++uknmjdvHs2aNYumTJmi9B6sWbOG4uLi6NmzZxQZGVmjcefl5VF8fDydPXuWZsyYQbGxseTk5MTOk5WVRQ4ODvTs2TPKzMwkJyenap1DKpWSg4MDeXh40MKFC2nTpk0klUopPDycKR1isZhcXFwU9j1w4ICClRIZGUmOjo4kkUho3rx5zLV77do18vLyYkrPoUOHKDg4WOGYt27douXLl9PLly/ZsrKyMnJwcKDAwEDy9vZmAunUqVOUmJhI9+/fp1WrVtHSpUvZhJWXl0eurq4UHBxMTk5OTFmRSCTk6OhIRDI3tpubG23fvl3lO5uTk0POzs5K15eUlAgsknv37ql1fRMRlZeXk7Ozs9J1W7ZsUfjueOzdu5cyMjLYbz8/P/Lw8KBFixZRQkICHTlyhJycnGjbtm0KihmvsLm5uVFMTAy5urrSwoULmcCcO3cunTx5UsFy4HHu3Dn67bffqvyuo6Oj6c6dO4LtUlNTKTY2lpydnenSpUtq95dHSkoKLVmyhE6fPl2t7dUJGE62XjU4jiukSsWVHMf1BzCHiEYo2d4awHUAPxHRvYplIwF4VmwyEYBR5f0rmo7FAOBp/+tC5mL7nIhUEt506dKFquLDqS74YLu6JkRvA5GRkdiyZQt69uyJCxcuYOfOnQp8WWKxGOvWrWP0KIaGhvjmm28YLxkR4dq1a7h16xaKi4vx7bffCjieAFnywpw5czB27FhGDe7u7o6PPvoIOjo66N+/P/744w/Uq1cPPj4+sLCwgKurKwBZwoKGhgYKCgpQXFyM3r1745NPPsHcuXOhr68PjuPQokULRlMjkUgwYcIElpl07tw5PHnyBEVFRRg3bhxOnTqltn2uWCzG+vXrkZ+fj549eyrU3ihDSUkJnj59qlB3Acho/sePH4+PP/4YmpqaiI2NRceOHfHZZ5+xe01EiI+Px8OHD/Hw4UM0aNAAI0eOxIYNG9CxY0c0a9YMffv2BcdxOH36NCwsLNCxY0fMnTsXy5YtY5k7YrEYy5cvB8dx6NixI5o2bcpqnIiIJSVcu3YNUqmUdTYMCAjA77//DmNjYyxZsoRlX23duhVDhw5lqecXL15EQkICnj9/Dnd3d1y4cAHJyckoKSmBl5cXtLW1ERwcjBMnTqB///64d+8epk6disWLF8PDwwPr1q3DqlWrqryfPBISEhAUFITmzZujVatWkEqlCAwMRGBgIGxsbNCzZ0+UlJRg06ZNrBnbTz/9hIYNG+L27dvIycnB559/Dk9PT3zzzTcCTryAgAD8+eefaNq0KZKSkmBmZoahQ4dCR0cHa9asgbe3t8rsNjc3NyxduhT37t3DrVu34ObmViU1yunTp/Hq1StMnDgRN2/eRIsWLfDkyRNIpdI3WvjJw8vLC2PHjsX169eV1v8QEe7fv4+zZ8/C1tYW48ePZ+/jxYsXkZSUhFatWuHEiRMwNjaGhoYGDA0NMXfuXPj7++PIkSNo1qwZ0tLS0KVLF1y9ehWbNm3CgwcPcPbsWTRp0gTffffdW80q4zgukIiUJ2SpkjxEVVowCjEUAKYAQgB8VcUxle5faZubqIaLrHPnztWUy+83RCIRPXnyhGmdfwdSqZScnZ3p+fPnFBcXRxKJhPLz88nV1ZXCwsIE27q7u5O7uzuzoLKysqhly5aUkpJCbm5uRET04MEDBVN5586d9N1339GLFy+ISKadhoeHU1RUFOXk5FB6ejp5enrS6dOn6dWrV0zbLC4upjFjxlTLPfI2IZVKKTg4mJYsWUKLFy+moqIicnFxoV27djHL7dGjRzR37lylbg2xWMy00bS0NKXn4GODW7duJU9PT3JyciIHBwc6d+4cixdU1njT09MVtNWCggIaM2YMubu708KFC5mVHR4eTitWrKCoqCil701UVBQdP36caceFhYU0fvx4+u2332p+w14TUqmU1q5dS05OTnT//n2l2yQnJ1NcXBwREWVmZtKBAwdo69atVFRUpPbYx44dozlz5tDmzZtr5EUIDQ2l+fPnk5+fH23dupV27dpV/QuqIc6dO0dTpkyh6OjoKreNjo4mR0dHevz4MaWkpDBXeWX4+vrSpk2baNasWSSRSOj58+ds3ePHj2nHjh00c+bMtxa7rQy87SC/3HJ3AEX4K7YSDMCquvtX2uY/JWDeNAoLC2nnzp20e/duWrBgAXl6erKPWB7Hjx+nH3/8UbCM9ymvXLmSkpOTVb6slX24yrBjxw4aNWpUtbZ9V4iNjaXJkyerzEp7E0hNTWWC6vLlyzR79uwaTWyqXCg1RWZmJpWUlLyRY71rFBUV1Sg+9S6QmZlJLVq0qPZkL5VKydHRkX799Ve1cdd9+/ZRZmam0nWenp4K8am3CXUCpkoX2fuON+ki+y8iOzsbQUFBSknrnjx5AkdHRxw8eFCBxbcm4NsSfMAH/Bfh4+NTLRcvj8LCQkRFRQn44t5nqHOR/XtLbP8lCA0NRU5ODnr37v1aFdEPHjxAhw4doKenp9B0DJBVgatiRLW1tWUNyP4O3qZwISIcP34choaGrBvi2LFj2fr79+/j8uXL4DgOIpEInp6eb4wx4QM+oDqoiXABZLRR/y/CpSp8sGDeYyxfvhxWVlZo0KABHj58CLFYjNq1a2PYsGEIDAzEmDFjGBW5PA4ePIgOHTpAIpHg1KlTyMvLAxHBzs4OKSkpsLS0hKWlJX744QckJSXh0aNHAjaEBQsWYMmSJdi4cSOMjY1hZGSEb7755m9fj5+fHwICAjBq1Cg0a9asRvsWFRUJ2hcAMpLThQsXYuTIkdDV1YWFhQX27t0Lb29vcByHhw8f4u7du3B0dISmpiYSEhKwZcsWrFy58rV6kHzAfxNpaWkChuEPEOKDBfOe49y5cwgICICGhgYyMzPh4OCAoqIi1sAJAKOwj4uLw82bN9GyZUu4urpi9erVAg60mzdvoqysjGXLbN++HRoaGix7KTMzE0SE9evXQyKR4Pjx43j58iUTMAkJCUhJScGePXuQmpoKR0dHuLu7Y+jQoa+diRIQEIAjR46gf//+mDx5MpYsWQJXV1e1NOjyiI2NxeLFi1G/fn1oa2vDwMAA9vb2uHz5Mjw9PQWNy5o3b47IyEhYWVnh+PHjWLNmjaAd7FdffYXt27e/FebgD/j34cyZM9i5cyc2bdpUY6XoA1B1kF/ZPwiLL4NRUbtSsc4GslTjOWr2/xSyOpbnkNXSrK20fhQAwv9pkF8qldL8+fMVKnfLy8uVZhzx2VpEsmyy6dOn04wZM6oM7EZFRbFCLiJZHYOHhwcLKKoLLF65coX8/Pxo3rx55OHhQSKRiIhkxWrR0dE0f/588vf3JyJZ0eqmTZuquGrluHTpEm3YsEFwLdnZ2VVWVcvD0dFREJjOy8sjPz8/NmZ5JCcn06ZNm2jt2rWUmJio9HibN29m1/YBbw7/luQBIqKEhARydnamM2fOsHqxD1AOqAnyv64FU0JEHVSsWwdAsXlzBTiOawNgC4DhRBTOcZwmZIWT/PpaAGYBePSaY3vrKCoqgoaGhsrmYCdOnEC7du3g7u6OlStXQktLC5GRkdi0aRPq1KkDExMTzJw5E4CsO6S8BaKlpYW5c+ciISFBLf06IGtnWqtWLYSFheHq1aswNjaGl5eXoIWAKgwYMAA//PADBg0aBAsLCzx58gTdunVDbGwsfvnlFwH9va2tLRITE1kjoyNHjiAqKgr9+vVT6K8DyOIe+/fvR+3atWFgYKDQI4dvM8y3QFaHM2fOYMCAAYLaJGNjY5UM2PXq1UNiYiI0NDRgbW2tdJvp06dj1apVePjwIaZOnVrtFgvKkJuby9rj/pdRWFiI8ePH49tvv30r9ST/JMLCwrBnzx4sXbqUfeNpaWn/+DguXbqEkJAQALImYNra2vjyyy8VauTea6iSPOr+QUnqcsXyLwGsBrAIKiwYAAcA/Kzm2BtQAy6yd2HBeHt7k6OjI506dUrBSigvL2fEmi9evKCFCxfSvHnzaPv27awKft++fawyXZ6v6HVQXl5OU6ZMEVTdVxfLli2jrKwsysnJoVWrVjH6FmW4ffs2TZs2jZydnen27dskEoloy5YtLKWZSGYx7dmzh9atW0dSqZTKyspUUs5kZmbS4sWLiYjo6dOnAmoYHrGxsbRw4cIaX5enpycFBQVVuV1YWBjNmDFDaVV7ZYhEIsEYeRLAVatWkaenJ61YsaLKVNSsrKwquaz+n8CTsUqlUpo3bx6lpKTQunXr1NK1vC6UcbLl5eWRl5cXrVy5UuW99/f3F6wTiURKLV8iWQ2Sh4cHrV69WsF7sHTpUiooKHitsUdFRdVo+/Lycpo/fz5duHCBioqKqKioiF6+fEmBgYHsm3ldlJeXk5+fH508efJvHUceeNNpyhzHSQA8rfj5kohGchxnBOAagMEA5lQIoTVK9n0CWZV/iJJ1nSDjJRvFcdzNCiGlNoL/TwT5w8LC0Lp1a9aDe9myZfD29sa1a9dw8eJFmJqaQldXFzY2Nnj06BFmz56ttl1qWVkZFi1ahOXLl8PLywvz5s1755lN06ZNQ+3atdGtWzfWBro6WLVqFYqKikBEKCsrw8iRI6vduMrb2xvjx49nnUjXrVsnSFpwcnLCihUrlCYyvCkQEebMmYMFCxbAzMxM5XZeXl6QSqUwNjaGk5MTjh8/DltbW8aW8OjRI/j5+cHNzU3leVxcXNCtWzc8fvwYlpaW+OSTT2rcwEkeIpEIt27dwt27d1FaWop+/fq9sd7u0dHRMDExEcS35OHr6wsfHx9eKcT333+Prl27goiwceNGWFtb4+uvv34jY0lPT8eMGTNga2uLOXPmMKv3wIED6Nq1KzIzM5GQkICxY8cKAvKXL1/G6dOnMWTIEBZjdHNzQ15eHubOnSvIjkxLS8PixYuxfPlypVmP/v7+iIuLq1YXR3nk5+eje/fuuH//PnJycrBu3ToMHz4cmpqaaNWqldJumMuWLcPXX38t6LDLY+vWrbC3t0dmZia++uqrGvUvevnyJdasWYMvv/wSeXl5KCwsxIQJE9h6XijUtCeSuiD/6woYZfQxawD4E9GfHMctQg0FDMdxGpBRzEwgojh1AobjuMmocKvZ2Nh0jo+Pr/E1VIWTJ0+iUaNGMDc3x6RJk+Dl5YVevXph165d6Nu3r0K6b0lJCaKiotCmTZtqPaD169ejoKAAWlpaKielfxJZWVnQ1dX9R83vjIwMjBgxAidPnoRIJMLhw4fh7u4OQCbU/f398dNPP731ceTm5sLT0xNr165VSAUnIuzZswdWVlb4/PPPce/ePYSGhiImJgZr1ghfbx8fHxQUFLCMuzNnzsDU1BT9+/fHnj170KRJE3z88cfIz88Hx3FYuHAhFixY8FqNvjZs2ICcnBz069cPffv2hba2NpydnbFs2TLo6uqisLAQx44dw88//yxwlUZFRcHMzAzm5uYAZGnwe/bsgbGxMczNzTFmzBgYGBiwPu2jRo2Cv78/iouLoaOjgw4dOkBDQwM3btzAypUrIRaLoampqeCO3b59O+zt7dGjRw9ERkaiTZs2Nb5GHkuXLsWUKVOgr68PFxcXLF26FLVr14abmxtz5c6bNw8SiQRmZmbIycmBnp4e6tevj6lTp7L7cvv2beTm5rI+8k5OTrCxsUFKSgq8vb2xatUqhUxFHkSEVatWwcrKCllZWejZsyd69+5d5djPnj0LTU1NPHnyBBkZGVi9ejUePXoETU1N/Pnnn/D09GTPIiMjA6dPn4aRkRG+//57pccTi8XYu3cvRCIR2rdvjz59+lTrHp49exZPnjyBm5sbU2Y3bdqEAQMGsGdz6NAh3LlzB5s3b4aGhgZ7rhkZGTh69CjS0tJgZmaG7OxstG/fnrlC/xZVjLJ/UF7dfwcyVuU4ALmQ8Yg5AJiOv5IB6gM4CCUuMgAmADLljlEKIBlVuMlUuchSU1OrTdZWGdnZ2eTu7k7e3t70ww8/UFFREbm6ulJGRgbr9fB3UV5eXiWl+n8B8q6PtWvXMiZid3f3f5TePDw8nJycnAS0MHw/ocoMu7t376YrV64oPY63tzf5+PiQn58frV+/nry9vcnd3Z2OHDmisG1eXh5NnTpVQC5ZHZw4cYLOnj2rsDw6Opox/W7atIkOHjxIrq6ujDJo5cqVtGrVKvr1118pNzeXxGIxOTg4MHdQWloarVixgsaNG0eZmZlUWlpKJ0+eZO9pUVER3bt3j+7cuVMljYtUKiVXV1dycHCgqVOnVrvtwOnTp8nNzY3c3d3Jzc2NVq9eLWAozsnJoenTp1NmZiYtW7aMLS8sLFR5Dj5phScTJZKxYjs4ONDChQtp5syZVV4Pj4cPH1JGRga5u7urJDSVd8m5u7uTWCymrVu3KhC25uXl0fTp02nfvn3k4eFBq1atqraru6ysTCWVTGXcunVLKT1QWVkZI1IVi8Xk5OREsbGxNGXKFFqwYAHNmTOHXFxcaNmyZSxhJisri6RSKe3du5e1JcDfoYpRupOKGIzc+kVQHYNpByAaQPOK3xqoxMZcsfxmVcKFiNC8eXMikj3U69ev086dO1kW15w5c+jVq1fVegjy8PT0ZOypPMXJpk2baMKECZSXl1fj431A9VBUVETOzs508eJF1qztn0R0dDRNnz6dsrKySCKR0MyZM2vMmSYSiejatWu0b98+kkqlJJVKGYO0MpSUlNCKFSto4cKFdPjwYXJ0dFRJAXL16lVyd3dX2wxr+/bt5Ofnx9pJZGZm0qFDh2jnzp2CSWLevHn066+/Viv+9Lrgrz85OZmWLl1a5fYJCQkKzz05OVmBMiUqKor69eun9r6+bZSXl9OyZcsYM/Ly5cuprKyM1qxZI2Bkl88QVYXnz5+rfObqsGDBApXxJHmoa0GyY8cO8vf3p61bt9KjR48U1qs7/tmzZ8nR0fH9EjAV60dARvP/ArJU5VVKtqmWgLGysiIiohUrVtD58+fp1q1bNGXKFNqzZw8VFBSopOdWBT8/Pzpw4IDC8sLCQqVcXh/wZnH37l2WRPAukJOTQ4sWLaK5c+e+1cm3MoqLiykkJIQyMjKUaqZpaWnVmqykUilNnz5dbd+Td4Hly5erDHZLpVKKjY0lBweHalsSkZGR/xiZY3UQExNDP//8M127do0lykRHR9OePXve2jl9fX1VthjgERsbq1YhKS0tpY0bN9L58+dfawxisfjNC5j36V/jxo3p8OHDtHr1anbR4eHhzOy/ePEinTlzhuLi4uiHH36gNWvWqMwGSU9PJxcXl/fqxf2A/x62bt0qEG5ZWVk0bdq0/2vruby8nKZNm6ZgjeTn59OsWbNo165dr+VteB/h5eVFJSUltGrVKpVM228CEomEvLy8VLpriYiWLFny1t8bdQLm/54qpnPnzmRra4sjR46o7OPi4uKCoqIirFu3Dmlpadi5cyc6deqkkOWyaNEizJ49G6ampv/AyD/gA5RDJBJh9erVkEgkKC0thZ6eHiZPnvx/T1eSkZGBFStWYM2aNRCLxTh8+DBCQ0Mxf/58ldlq/4/w9fUFIOv3w2dIvk24u7vD0dGRJQtcuXIFXbp0gbm5uSAR4m3hjWeRvU+oTppyVlYWysrKUL9+fbZs9erV+OKLL1gq4KtXr3DkyBG4uLi81fFWBYlEgsLCQqSnpyM5ORk9e/bErVu3cPHiRRgbG6O8vBxjxoxBp06d/va5QkNDYWlpWW3Klg/4Z5GdnQ1TU9Map42+z7h16xaePHmCmJgYTJo0Ce3bt3/XQ3rjKC0txZAhQ+Dl5aW0EPlNIzU1Ffv378fcuXPx6tUrLFmyBPb29vjkk09w7969t56J+Z/nIuMluzxmz56N6dOno06dOuA4DtHR0dixY8c7GJ0M2dnZWLduHQDZeC0sLGBlZYXFixejSZMm2LBhAwCZdnv8+HHs378fy5cvh4GBQZXHfv78OdLS0tC5c2fs2LEDFhYWsLW1xcOHD6Gvr4/09HRMnjwZWlpasLKygp6eHgoKClBYWAgrK6sqGQU+4O1AXV3O/wN8fX0RFRWFiRMnMqaDfv36IS8vDz///PNb7bL4LqGnp4eBAweif//+/8j56tati8LCQly6dAmnT5/Ghg0b4OXlBR8fH3z33Xf/yBhU4bUtGI7j6kJWdd8VsrTkNACziSiS4zhjyIL3Z4jIQcm+/QGcBfASgC6Ao0TkJbfepmL/RaSklkYef6fQsqSkBLq6ugIyyLeJnJwcBAYGYtCgQSgsLIS/vz/y8/MByJiGlyxZUm33XHx8PI4cOYL58+cLlpeWlmL58uXo2LEj+vTpg/Xr1zPa/QcPHmDixInIyMjA48ePMWnSJAAy6pv9+/dDR0cHwcHBmD59OrZs2YK2bdsiJSUFIpEIzZs3h6WlJe7cuYNFixb9422lP+D9h1Qqxblz5yCRSDBw4EAsW7YMEyZMwLZt2+Dq6vq32z58gGqkp6fj6dOn6NOnD3R1dXHixAkcO3YMx48ff+vnfhuFlhyA+wD2E9GOimXtARgT0R2O4zYCsASQrUbAzCGiERzHGUJWI/MNET2pWH8CMrLLR29TwPzTWLBgAczNzSGRSJCYmIivvvoKJiYmEIlE6NixY435rDZs2ABra2vUqVMHly5dgra2NvLz8+Ho6Ijg4GAEBATA2dm5RjGlrKwsbNy4EW5ubgIh8uzZM2RmZqJJkybYsWMHli5dCrFYDC0tLVy6dAkPHjyAhoYGdHV1MXjwYHTt2rVG1/JfABHh4sWLuHnzJgwNDTFgwAD06NHjjbM4xMfHo169egIGhPLycqxatQoNGzbE6NGjq2X5VoXIyEicPHkSpaWl4DgOYrEYQ4YMQWFhIfbu3cus5bKyMnh5eaFdu3YYMGAA/vzzT/Ts2ROdO3dmx5JIJNi3bx9CQkLwxRdfYNCgQQBkhYUcxzErmoiQkZFRJYfdfx3l5eW4fv06Y2F/m3gbAmYAZNbFR0rWdQbgAuAyZGnGagVMxe+jAE6RjAXgSwC9IWu9rJQNQB7vu4DJzMxEUFAQ4uPjYWhoiO+++w7BwcFo27bt33Y9SSQSPHr0CDk5ORg0aNA/Rjdz7949XLlyBTo6OigrK8NHH32EQYMGMSqds2fPIigoCJaWlhg5ciTs7Oze6niKi4uhpaX1VillXhe5ubm4fPkynj9/DpFIhIEDB2LgwIEoKyvD7du3cerUKcydOxeNGzd+rePn5ORg27ZtKC8vh5aWFmrVqoW8vDzk5OTAzc0NFy5cQL169XDt2jXMnDkTxcXF2Lp1K5ydnXH06FGUl5dDIpEgNzcXo0aNUunWiYqKQmFhIWuEdevWLdy5cwczZ86sdkO5u3fv4v79+/jmm29w//59+Pv7o3fv3jA2Nsa5c+cwefJktGvXDitXrkRhYSGICFpaWsjMzMSsWbOQkpKCEydOwNTUFHXq1MFPP/0EAwMDFBcXvxGB+T5BKpVi9+7d+OyzzwQxUiKCVCp97bmjrKwMwcHBEIvF1WIiqA7ehoCZCaAxETlWWs7TvYwDMAjVEDAcx5lDVhMzHEA8qsFnJo/3TcAUFhYiNTUV+fn5OHz4MBo0aICuXbtCT08PXbp0+U81usrJycGff/7JmJgHDx6MAQMGKG0eVh1cunQJ9+/fh0QiQb9+/fDgwQOIxWIYGRmhvLwcUqkUnp6e4DgO6enp8PX1xahRoxAaGoqgoCA0aNAAw4cPf2PXV1BQAAMDA6SlpUEsFjMXUEpKCn777TeIxWIYGhpi+PDhaN26tdJJoby8HM7OzrCwsICWlhZmz56NoqIinDlzBikpKZgwYQKsra0RGxuLJk2asGM8e/YM586dQ1FREZycnGBubo7i4mK8evUKzZo1Q3x8PA4ePIjRo0cjKysLDRo0gK2tLQBZvG/Xrl2YOHGiID65adMmSCQSTJgwAbVr1wYgo+w5cOAAbG1tUVhYCBsbG3Ach6dPn2LJkiV/630mIgQGBqKkpASdO3dmQoKIUFxczN6RkpIS7NmzB02bNsXAgQOho6ODZ8+e4fTp0ygrK4NEIkHjxo1hY2ODGzduQENDA61atWK9lHikpaXh8ePHaNWqlUquwOLiYjx69Ag9evQQsKUXFxejuLj4tWh9aorS0lIsXLgQn3/+Oa5evQqO48BxHF8fCA0NDeTn52P06NHV4v2TSCQIDAxEUFAQoqOj0a9fP2RnZyMzMxO9e/eGnp7e30q2+CcFjAMAAyJaxXHcBKgXMGcBxAKQAthFRDtqwGf2t7jIysvLsWLFCgwbNgwPHjxATk4OJk6cKMgyqwmKioqwYcMG9lFYW1tDW1sbo0aNei+16ncBIsLhw4fx9OlTpKenY968eWjRokW19n358iU2b96MQYMG4dNPP4VEIsH169fRrVs3gfvv8ePH+P3332Fvb4/IyEh89913OHfuHNq1a4devXohODgYQUFB6NOnD0JCQmBhYYFBgwahdu3auHz5MmJiYtC9e3elmh0RISIiAmFhYejatSvOnz+P9PR0aGhowMrKCqWlpcjIyGBtHGbOnIlatWpV6/rEYjEAmR997dq1sLS0xHfffQcLCwts27YNeXl5sLOzQ2xsLKRSKYqLi2Fvb48xY8ZU+xzVRWJiInbu3IkWLVogMTERtWvXxs8//8ysYz8/P1hYWKBt27bvVXbbnTt3kJ+fj2HDhoHjOFy4cAG3bt2CgYEBpFIpOI6DpaUlunTpgkePHiE1NRWampqwsrLCTz/9hLS0NBw5cgQA0L17d9y5cwft27fHl19+iYULF8LExAT6+vpITEzEF198gY8+UnDeVBslJSXQ09MTCOfc3FxcuXIFhYWFCAkJwZw5c9TGrIgI69atQ2ZmJsrLyzF79mxGnPngwQOEhYWhf//+sLOzw5IlS9CyZUt07NhR4E0IDg5GcnIycnNz8eDBAyxfvhxGRkaQSqW4cOECWrRogRYtWiAqKgpHjx6FSCRCeXk5Jk+eLBDQb0PADATgWdlFxnHcYQB9IRMaRgB0AGyDrLeLZ8VmEyvWMReZ3P53APD0oqYVx1lIRFtUjeV1LJgDBw6gWbNmSExMRNeuXWFqaoqtW7eiXr16+PHHHyGVStW6m54/f47z589DKpVi2rRp8PLygqurK+rWrVujcfxXUV5eDldXV6xfv16tBkxE2LVrF3JzczFz5sxqJRYQEeLj42FjY6N0Anz27BlSU1PRsWNHZGRkwMfHBzk5ORgxYgRatmyJs2fPIjIyEtOmTYOlpSXi4uKQkJCA8+fPo2PHjmjbti0ePXqEjh07KmiPpaWl0NXVfetW6j+RkHLnzh3Ur18fTZs2favneduo6l5FRkbi9OnTqFOnDkaOHCnIbDt48CB8fHywfPlyNGrUiB3v8OHDiIyMxJw5c2BsbIy0tDQEBAQgJyeHkd1euHAB9vb2GDBggMCFWFxcjBkzZqBevXrQ0NBglomuri4+++wzGBgYoGnTpjV6vqWlpZg7dy6mTp2KunXrYvny5Zg+fTrOnz+PoKAgfPXVV1Va7qmpqdiyZQsmTJiADRs2YPTo0bhz5w6ysrLQqFEj/PLLL8xTsHz5ckgkEhgZGcHFxQUaGhpvJcj/EMAeIvqtYlk7ACZEdKfi9wRUMwaj4hyL8BZcZEQy2vTKTLiALLZw48YNpKam4ueff2bxk4iICNSrVw9t27ZFUFAQGjVqhB9++AFFRUVYtWoVxo4d+0bqUv5L8PPzg7+/P+bMmaOQ3JCUlISdO3eisLAQo0aNqjZj7JtCbm4u9u7di8LCQjRu3Bj169dHv379FJiWP+C/C75gWywWw9zcHD169ICZmRlCQkJQXl6Ozz//HM+fP8f169dRUFCAWrVqYcCAAfDx8cHEiRNVNsN7XYjFYqxZswZPnjzB9u3bmetTKpVW29I8d+4cHj9+DA8PD/ZN8oW+ynDnzh3ExsZiwoQJb77QkuO4+pClKXeGjPk4DrI05aiK9RPwDgSMOo2lrKwMO3bsQOvWrTF48GCVxyQirF69GnXr1sXBgwcxc+ZM9OvXDxEREdi/fz9atGiBSZMmfUjV/ZsIDw9n6dESiQR16tTBuHHj4O7ujrVr1364vx/wr0F+fj5u3ryJWrVqvdXiy/Ly8n/ULb9y5UrMmzfvzdL1v0//5On6Q0JCaMSIERQTE0NEMiZQf39/kkgk9OLFC5o+fbpaOuxnz57RuXPnSCwWk1QqJRcXF4qJiSFXV1fy9fUld3d3SkxMpMjIyGoRD35AzRATE0OOjo6sU+IHfMAHvP/Av5mLrH79+vTNN9+ga9euePDgAVavXo1ly5aB4zhIpVK0atUKV65cQVlZGbZs2aKQBUJEKCoqQkpKCnbv3o1hw4bB19cXZWVlGD16NOvSd/78eRgbG7M0zosXL+Lx48coKSnB9OnTlXam+4AP+IAP+LfjP8FFdu3aNbRo0UJp5oWjoyMGDx6Mp0+fIicnB82aNYOxsTHi4+ORlpYGS0tLaGhoYPbs2TXys8fGxqJOnTpwdXXFhg0balwo+aYgkUiwZcsWGBoa4ueff36vsns+4AN4HDlyBAEBAWjRogUSEhKgo6MDJyenatfRfMD7if+EgFGFx48f4/nz5ywnXiKR4NWrV8jLy4O1tTXL9/87iImJwebNm2FjY4OBAweiXbt2/1i9S0JCAlatWoUpU6agpKQE58+fx5IlS9Tuk56ejoULF2Ls2LHo27cvABnLgIuLywcm6Qo8ffoUubm5aN++/WtNgHxwtLi4GPfv32eV6f9VbN++HfXr18cXX3yB2NhYNGzYENnZ2di+fTvEYjFat26Nb7/99oNy9H+INypgOI6TAHgKGVHmCwDjiai4Yp0mgMcAXpGKAD7HcSYANgPoBYADcA/ADCLK4ziuA4DtAIwBSAAsJaJj6sbTpUsXWrRoEYYPH64wqYvFYjg6OmLDhg3/CGFjZmYm/Pz8EBQUhOXLl79VIRMeHo4TJ05AIpHA1dWVFYXt2rULvXr1gr29PQAZbYi+vj6jQ+c4Dq6urnBzc8OxY8fQoEED1KpVC5GRkQgLC8PYsWNx5coVjB8/Xqnbj/6BFNl3CYlEAjc3N7Rq1QoNGjTAqVOnsGHDhmqzJGRmZmLVqlXQ0NCAtrY2srOzUbduXXz66afo0kV5HPTfCpFIBJFIBD8/PxQWFqolXnzw4AEuXLgAkUiEvn374rPPPvsHR1pzPHv2DBs2bICNjQ0++ugjdOzY8b0i78zNzcWlS5f+EbLLNy1gConIqOLvwwACiWhdxW8nAF0g4yRTJWBOAHhGRIsqfnsBaE1EozmOaw6AiCiqIkstEEArIspVNZ5OnTpR06ZN0bt3b8yePVuwbu3atRg6dCibbP8p+Pv74+rVq5g3b55Kl5tEIkFCQgI4jmM59jz4AJkqbe7atWsICAjArFmzFCriy8vL4e7uDgcHBxw+fBi6urrQ0dFBZmYmxGIxCgsL0a9fP4wcORIA4ObmxuhGwsLC8OzZMwwZMgT79u1DXl4evv32W9jY2MDIyAhRUVGYPXs21q5di5YtWwKQTaimpqb/mhTenTt3olu3bowSJTY2FocOHcKIESNQp04dNGjQQO3+8+bNw7x582Bqaors7Gzo6+tDT08Ps2fPxpdffom+ffsK7tWFCxdw9+5dDBkyBAMGDHir1/ZPYt++fYiIiEDt2rVZMWN1sXfvXkilUvzyyy8qlZnw8HA0a9bsH2f63r17N9LT05GVlYXVq1ejuLgYDx8+REhICNLS0mBvb48ff/yxRkqYr68vo+r5u8pbSUkJ9PX14eXlheTkZGzZsuWtu+7fpoCZCqAdEU3jOM4awH4ASwE4KRMwHMfZQUYFY0dEkoplmgCiAQwiophK24cA+JoqUp+Vwc7Ojg4cOICMjAw8efJEsK5NmzYYPXp0ja7vTSE0NBS7d+/Gr7/+ilatWgGQuevOnDnDiquaNm2K5ORk2Nvb48svv8STJ09w4MAB1K5dG+np6Zg7dy7u37+PrKws1K9fH3fv3kWtWrXQuHFjjB8/XuW5fX19ERsbi08//bTK5IOioiIkJyejWbNmCuvy8/Nx/vx5JCQkIDc3lxVZubi4YMiQIYiLi0N6ejpycnIwffp0dp3/r4iPj8eBAwfg4eEhWH7z5k3k5OTAz88Pq1evhqamJvsnj1u3biE5OVmp1igSiXDz5k2cO3cOa9euZczVd+/exfTp07Fu3To0a9YMn3322Tu3EAMCAhhZaVZWFpYsWQITExOUl5fDzMwMzs7OAuVHLBajrKyMKTvnzp2DSCTCqFGjXnsMt27dwqVLl7B06VKlQmTSpElo2LAhPDw8kJqa+to9jUpLS7Fnzx5IpdIqSw8iIiLg5+eHn376CTo6OkrHdf36dbx48QLTp0+v1vkjIiJw7Ngx9OrVCxcvXsSwYcPUllCow4EDB/Do0SMYGxsziqrExESFxopvGuoETI3TgiGrTQFkLrKzAH6t+H0CspqY/gAuqNj3cwCnlSw/DeDzSsu6QeaC01A3nrp167L2yO8bxGIxOTo60o0bN8jT05O2bdtGEolEYbvDhw+Tp6cn7d27l60vKiqipUuXkr+/P7169Yru3bv33rRyLiwsJH9/f4qOjiYi2XW6uLhQbGzsOx7Z6yM5OZkcHByopKRE5Tbx8fE0btw4cnZ2JkdHRxKJREQk6yl/6NAhWrJkSZXP6OXLlzRr1iwKDw+nGTNmCN7dCxcu0Ny5c8nd3Z2WL19O+/bt+9vP/MiRI7Rnzx5KTk6u1vb79u2jr776itLT0yk/P59+/fVXQcvdgIAA2rBhA/u9aNEi8vLyouXLl5OHhwctXLiQlixZ8rfGzCMsLIy8vb0VloeHh9OePXvo0qVLNHv2bPrmm2+otLT0tc7h5eVFz58/p+joaJo+fTrl5uaq3NbV1bVa51m4cCFlZ2dTQkICubu706+//qrw3ZeVldGOHTto7ty5gvdo3759dOHChRpfx9mzZ+no0aNERJSUlETl5eUklUppzpw5b33egJo05dcRMBLI6PWDIYul6AAYAWBbxfq/LWAA1AMQAaCHiuNMhizW89jY2Pit3ry/i7KyMjp69KjaF/ffgLKyMnJwcKCcnJzX2v/Fixc0adIkunXr1psdWBXw9fWl6dOn0+LFi6moqKjK7fltIiMjycHBgTw8PMjJyalG405LS6O9e/fSs2fP1J7n3r17tGzZsmofVx5SqZTWrVtHPj4+FBsbSy4uLnT9+nWKioqirVu3krOzM92+fVuwT0BAAK1fv57S0tJo+fLl5OXlpVQw/f7777R8+XJau3Yt+fr6vtb4qotz587RggULaPbs2ewbqtxn/tatW3Tp0iX2+/DhwxQVFVXlsW/cuEEHDx5kv/nrVoa7d+/S/v37qzXm1NRU+vHHH2nu3LlUVFREDx48oAMHDrD1UqmU5s2bR6GhoUr3d3R0VKvoVIZYLKbZs2crXXfnzh1atmzZWxUyb1rAFCpZthxAEmTV/KkAigEcAtBdThh9DsAOsiZjGnL7alQss6v4bQzgCWSusSrHY2dn99Zu3AfUDFlZWTRr1iwKCQkhLy+vKl9qiURCS5cupWvXrpGDgwOVl5fT5s2b6fr162ybU6dOCX6/SYhEIpo5c+bf+viUWaRvEj4+PoJJsDrIyMhQEHpSqZROnjxJ+/fvp5iYGJJIJPTHH3/Q4sWLSSwWU3p6Os2ePZvdi3nz5tHWrVtVniM9PV1BQL1NZGVl0bRp02jbtm00f/58wTqRSETu7u5ERHT58mXauXNnldZIXl4eOTk5KTz7+fPnU3l5ucK2s2bNqtF78vz5c8H2c+fOpSNHjtClS5fIxcVFrUISGxtLHh4eRCR7bryFUxlPnz6l3377jTZv3kwPHjxQebx79+7R2rVrqz32mkKdgPlbMRgV6/tDDQ0Mx3GnAAQT0eKK3wsBtCeiURzH6QC4BOA8EW2oznjeN7r+/zpCQ0Px4MED1K1bF/r6+hgyZIjKbbdv344uXbogPT0dPXr0gLm5OYgITk5OWLp0KRITE3HixAlkZGRUSYz5OuPcvXs3Jk+ejDZt2ryx474NLF++HF999VW12KeJCLNnz8bixYurldUUFhaGI0eOQCQSwd3dnaVkFxcXQ09P771KG87NzUVxcTHq1aun8C4sWLAA/fv3R3BwMFxcXJCVlYUVK1bAwsIC9erVQ/v27dGmTRusX78eOTk5yM7OxuLFi1l2JY9Hjx4pxC3mz58PR0fHv9XkTCwWIyoqCtnZ2WjdunWV5RE3btzA9evXkZeXBwsLCyQkJGD9+vWoVasWHj16hLNnz6JBgwb45JNPEBoaiq+++krt8Q4dOgRLS0t88sknr30NqvBWYjBq1veHChdZxfrakFk3MRX/DgEwrVg3DoAIf1k9wQA6qDufPFXMB7w/kEqlNGvWLDp+/DjNnTuXHB0dBW6MO3fu0KpVq5Tum5iYSG5ubrRkyRISiUR09epVOn/+PGVlZb2ReFt8fDzNnTtX4GZ5nyESicjBwYEkEgnl5+eTm5sbOTs7U0FBgcK2Bw4coLt3776DUb5b+Pr60saNGxWW5+TkUHR0NB04cIBmzJhBz549I5FIRCkpKUqPI5VKaebMmXT58mWSSCR08uTJ14qJvAmEh4cz6yUtLY3mzp1L3t7edPDgQSorK6vx8dzc3CguLu5ND/PfTRXzwYJ5fxEaGoqsrCxG7rdy5UoAstTmdu3aYdy4cdWySoiIWTC5ubkwNjaGs7Pza49r6dKlmDZt2hspsv2n4O/vjxcvXiAmJgbTpk1DWVkZjh8/jjlz5rBtXrx4gRMnTihkwX1AzUBEuHr1Ku7fvw8LCwvMmDHjXQ8JgIzt3cjI6LWbg5WWlsLZ2Rnr1q2Drq4uXr58iaSkJKSkpODu3bvo0aMHGjZsiDNnzkBfXx+//vqr2rR8qVSKrVu3YubMmf8NsssPeL8hlUopPT39bx/nzJkzdPLkyRrvl52dTaWlpf+3RKVOTk50+PBh9tvT05MyMzOJSJZxNXv27Pc2o/ID3g/ExcXRggULKD8/n2bMmEFXr15l8RtfX186fPgwSaVSKioqUht34jPUnjx58u+2YDiOK4As4+wDFGEBIPNdD+I9xYd7oxof7o16fLg/QtgSkaWyFf+G8usIUmWe/cfBcdzjD/dGOT7cG9X4cG/U48P9qT7enxSRD/iAD/iAD/hX4YOA+YAP+IAP+IC3gn+DgPntXQ/gPcaHe6MaH+6Nany4N+rx4f5UE//3Qf4P+IAP+IAPeD/xb7BgPuADPuADPuA9xP+NgOE4bijHcREcx0VzHDdPyXpdjuOOVax/xHFco3cwzHeCatwbJ47jnnMcF8pxnB/HcbbvYpzvAlXdG7ntRnEcRxzH/Weyg6pzbziOG1Px7oRxHHfknx7ju0I1vikbjuNucBwXVPFdDXsX43zvoapA5n36B0ATMlqZJpCxN4dA1qRMfptpAHZU/P0tgGPvetzv0b35GIBBxd+/frg3CtvVAnAbwEMAXd71uN+XewOgGYAgALUrflu963G/R/fmN/zVqqQ1gLh3Pe738d//iwXTDUA0EcUSUTmAowC+qLTNF5A1PANkvWkGcu+6c9M/gyrvDRHdoIq21pBNotb/8BjfFarz3gDAEgArAZT+k4N7x6jOvZkEYCsR5QAAEaX/w2N8V6jOvSHImN8BwARA8j84vv8b/L8ImAYAEuV+J1UsU7oNEYkB5AEw/0dG925RnXsjj18gY6z+L6DKe8NxXCcADYno4j85sPcA1XlvmgNoznHcPY7jHnIcN/QfG927RXXuzSIA4ziOSwLgA+D9ICx7z/BvqOT/gGqC47hxALoA6Peux/I+gOM4DQDrAEx4x0N5X6EFmZusP2RW722O49oSUe67HNR7gu8A/E5EazmO6wngIMdxbYhI+q4H9j7h/8WCeQVAvrm8dcUypdtwHKcFmdma9Y+M7t2iOvcGHMcNArAAss6hZf/Q2N41qro3tQC0AXCT47g4AD0AnPuPBPqr894kAThHRCIiegkgEjKB829Hde7NLwD+BAAiegBADzKOsg+Qw/+LgAkA0IzjuMYVTcm+BXCu0jbnAPyvvTsHrSKI4zj+/anp0qmIVgHFIKKgYqFB8SiNKSS12ggWIqJ4gE0IWHhUCoKFguCFFloISRCMR+sRjQeiCAqiKBZCIEgkf4udwENekheTeTne71Pt2x12ZweW39vZ3ZldabkVuB/pCdwMN2rbSFoFXKAIl1rpR4dR2iYifkXEvIhoiIgGiudTLRFRC/M/VHJN3aG4e0HSPIous49VrONkqaRtPgNbASQtowiYH1Wt5TQwLQImPVPZB3QBb4GbEfFaUrukllTsIjBX0gfgIDDsK6kzSYVtcxqoB25J6pH078UyI1XYNjWpwrbpAn5KegN0A4cjYsb3ClTYNoeAPZJeANeB3TXyh3ZM/CW/mZllMS3uYMzMbPpxwJiZWRYOGDMzy8IBY2ZmWThgzMwsCweM2RhImpte9e6R9E3Sl7TcJ+l8pmMekLRzhO3NktpzHNtsPPyastl/ktQG9EXEmYzHmAM8A1an7zPKlVEq01QyqKnZpPMdjNkEkLRJ0t203CbpsqTHkj5J2iHplKReSZ2S6lK5NZIeSnoqqUvSwjK73gI8GwoXSftL5va5AZA+8HsANFflZM0q5IAxy2MxRTi0AFeA7ohYAfQD21LInANaI2INcAk4UWY/TcDTkt/HgFURsRLYW7L+CbBhws/CbBw8mrJZHh0RMSCpl2ICq860vhdoABopBtq8l6Ytmg18LbOfhRTDlQx5CVyVdIdirLAh34FFE1d9s/FzwJjl8RsgIgYlDZSMUzVIcd0JeB0R60bZTz/FQIpDtgEbge3A8TR8/p9Upn8iT8BsvNxFZjY53gHz01wiSKqTtLxMubfAklRmFsXkaN3AUYopKepTuaXAq+y1NhsDB4zZJEhT8bYCJ9OIvD3A+jJFOyjuWKDoRruSut2eA2dLJv/aDNTarJw2xfk1ZbMpTtJt4EhEvB9m+wLgWkRsrW7NzEbmgDGb4iQ1Agsi4tEw29cCAxHRU9WKmY3CAWNmZln4GYyZmWXhgDEzsywcMGZmloUDxszMsnDAmJlZFg4YMzPL4i9viURPAPOZ1wAAAABJRU5ErkJggg==;" vertex="1" parent="1">
          <mxGeometry x="-50" y="110" width="408" height="283" as="geometry" />
        </mxCell>
        <mxCell id="mzXIlhKpgWSKDu0hdf_g-2" value="" style="shape=image;verticalLabelPosition=bottom;labelBackgroundColor=#ffffff;verticalAlign=top;aspect=fixed;imageAspect=0;image=data:image/png,iVBORw0KGgoAAAANSUhEUgAAARUAAAEKCAYAAAA8bsGsAAAAOXRFWHRTb2Z0d2FyZQBNYXRwbG90bGliIHZlcnNpb24zLjMuNCwgaHR0cHM6Ly9tYXRwbG90bGliLm9yZy8QVMy6AAAACXBIWXMAAAsTAAALEwEAmpwYAAAViUlEQVR4nO3de7hVdZ3H8feHyxFBkJsSAgkqmqiViopZ08V68hZamqNPmjlOzHRxsnomtXrSmnzGrmZNNVFaVGqaXXQq72HlPInhLQNCGRQFAbmIgHLnO3/shR7pHFhn/357r7NPn9fznOestfb67v3lcPjwW2uv9duKCMzMculVdQNm1rM4VMwsK4eKmWXlUDGzrBwqZpaVQ8XMsmpYqEi6WtIzkv7SbtuXJP1V0p8l/ULS4HaPXSxpnqS5kt7eqL7MrLEaOVL5AXDcdtvuAA6OiFcDjwIXA0iaAJwBHFTUfEtS7wb2ZmYN0rBQiYjfAyu323Z7RGwuVu8FRhfLJwM/iYgNEfE4MA84slG9mVnj9Knwtf8JuL5YHkUtZLZZWGz7G5KmAFMAevVpO7zfoD3rbmBz/7pLa/qkXY3c+3kl1W9N/NuLxHq1bUl7gvXVDkbbBmxMqh/W9nxS/eJnhyTV7zVk5c532oFFq+t//c0rnmXL2o5/gSsJFUmfAjYD13S1NiKmAlMBBgwbEwcff0HdfSw7NO0f9ZZhm5Lqh9zXN6l+/bC0/jcM35pUv8uYtUn1W+YOTKpPNXbSU0n17x39x6T6z914elL9Z0/7SVL9xdPfXXftksuu7PSxpoeKpPcBJwHHxks3Hi0CxrTbbXSxzcxaTFPfUpZ0HPAJYHJEvNDuoZuBMyTtImkcMB64r5m9mVkeDRupSLoOeBMwXNJC4BJq7/bsAtwhCeDeiPjXiJgl6QZgNrXDog9FROIBu5lVoWGhEhFndrD5qh3sfxlwWaP6MbPm8BW1ZpaVQ8XMsnKomFlWDhUzy8qhYmZZOVTMLCuHipll5VAxs6wcKmaWlUPFzLJyqJhZVlVO0pRsy+CtrHpn/RPlbFmxa9Lr90qcpOiVZ6bN5zHnnn2S6ttGp00y9ImDb0+q//zjpybVK/GW08f+2uE8YKV9d8sbkup3WZk2H87qrWm/v0Mern+SrGXrOu/dIxUzy8qhYmZZOVTMLCuHipll5VAxs6wcKmaWlUPFzLJyqJhZVg4VM8vKoWJmWTlUzCwrh4qZZeVQMbOsHCpmlpVDxcyyalioSLpa0jOS/tJu21BJd0h6rPg+pNguSV+XNE/SnyUd1qi+zKyxGjlJ0w+A/wJ+2G7bRcBdEXG5pIuK9QuB44HxxddRwLeL7zvUd7kYcXW/uhtcf/7KumsB9h/yTFL9yH6rk+qffu2gpPqVzw1Iqj+q3xNJ9WPu3JRUv/SItqT6fivqn6QI4OmhuyfVc8TapPJrnzoyqX7tmPprt+7gR9+wkUpE/B7Y/l/tycC0YnkacEq77T+MmnuBwZJGNqo3M2ucZp9TGRERi4vlJcCIYnkU0H5uxYXFNjNrMZWdqI2IAKKrdZKmSJopaeamjWlzrJpZfs0OlaXbDmuK79tOSiwC2h/hjS62/Y2ImBoREyNiYt+2tHMCZpZfs0PlZuCcYvkc4KZ2299bvAs0CXiu3WGSmbWQhr37I+k64E3AcEkLgUuAy4EbJJ0HLABOL3b/DXACMA94ATi3UX2ZWWM1LFQi4sxOHjq2g30D+FCjejGz5vEVtWaWlUPFzLJyqJhZVg4VM8vKoWJmWTlUzCwrh4qZZeVQMbOsGjmfSsPtPnoNx3/x7rrrr/n+25Jef/TZjybVz16dNrvDq4YuTaq/Z96EpPo9enf5ftCXWfXBtPlEuG9oUvkLr1mXVP+O/Wcl1T+wPGFCE2DLt0fsfKcdGDSs/tpeG3bwWP1Pa2b2txwqZpaVQ8XMsnKomFlWDhUzy8qhYmZZOVTMLCuHipll5VAxs6wcKmaWlUPFzLJyqJhZVg4VM8vKoWJmWTlUzCwrh4qZZdXSkzS19drM3m3L667f66QFSa//8LvGJdXH1ZuS6mc8OTapfvC4Z9Nef0PCLD/AqN2fS6rffHvfpPrFzw9Mqj9h0sNJ9Tc99Nqk+gFnp01y1bvX1rpr47dbOn3MIxUzy8qhYmZZVRIqkj4qaZakv0i6TlI/SeMkzZA0T9L1ktqq6M3M0jQ9VCSNAv4NmBgRBwO9gTOALwBXRMR+wLPAec3uzczSVXX40wfYVVIfoD+wGHgLcGPx+DTglGpaM7MUTQ+ViFgEfBl4klqYPAfcD6yKiM3FbguBUR3VS5oiaaakmWtWbu5oFzOrUBWHP0OAk4FxwF7AAOC4svURMTUiJkbExIFDW/odcbMeqYrDn7cCj0fEsojYBPwcOAYYXBwOAYwGFlXQm5klqiJUngQmSeovScCxwGxgOnBasc85wE0V9GZmiao4pzKD2gnZB4BHih6mAhcCH5M0DxgGXNXs3swsXSUnJSLiEuCS7TbPB46soB0zy8hX1JpZVg4VM8vKoWJmWTlUzCwrh4qZZdXSl6QuWzCE737wXXXXP/n2tBuh+09WUv0LMyKp/sS3/SmpfuXG/kn1P1r6uqT6p1cPSqofuXx1Uj2kTdI0qk/a6/d+Nu2f34i91yTVp3iid+cTPHmkYmZZlQoVSYc0uhEz6xnKjlS+Jek+SR+UtHtDOzKzllYqVCLiDcB7gDHA/ZKulfS2hnZmZi2p9DmViHgM+DS1e3TeCHxd0l8l1X+m1Mx6nLLnVF4t6QpgDrUZ2t4REQcWy1c0sD8zazFl39P6BvA94JMRsW7bxoh4WtKnG9KZmbWksqFyIrAuIrYASOoF9IuIFyLiRw3rzsxaTtlzKncCu7Zb719sMzN7mbKh0i8iXvyMxWI57XJMM+uRyobK85IO27Yi6XBg3Q72N7O/U2XPqVwA/FTS04CAVwD/2KimzKx1lQqViPiTpFcBBxSb5hYz4ZuZvUxXbpM8Ahhb1BwmiYj4YUO6MrOWVSpUJP0I2Bd4CNhSbA7AoWJmL1N2pDIRmBARaROAmFmPVzZU/kLt5OziBvbSZbuMWs/Yy+bWXb/oyXFJr79hbFI5owanTbLzu4X7JdVv3Nw7qf70/R5Mqv/TjP2T6tdctj6pfvNzaZ/FvYW0Sbpee9S8pPoFzw1Nqh/49YRJspZ0Hh1lQ2U4MFvSfcCGbRsjYnL9XZlZT1Q2VC5tZBNm1nOUfUv5d5L2BsZHxJ2S+gNpY2cz65HKTn3wfmqff/ydYtMo4JcN6snMWljZy/Q/BBwDrIYXJ2zas94XlTRY0o3FJE9zJB0taaikOyQ9VnwfUu/zm1l1yobKhojYuG1FUh9q16nU60rg1oh4FfAaapM/XQTcFRHjgbuKdTNrMWVD5XeSPgnsWsxN+1Pgf+p5wWLi7H8ArgKIiI0RsQo4GZhW7DYNOKWe5zezapUNlYuAZcAjwL8Av6E2X209xhXP9X1JD0r6nqQBwIiI2HYdzBJgREfFkqZImilp5vpVadcpmFl+Zd/92Qp8t/jK8ZqHAedHxAxJV7LdoU5EhKQOD68iYiowFWD4gcN9ha9ZN1P23p/H6eAcSkTsU8drLgQWRsSMYv1GaqGyVNLIiFgsaSTwTB3PbWYV68q9P9v0A94N1HWNcEQskfSUpAMiYi5wLDC7+DoHuLz4flM9z29m1Sp7+LNiu01fk3Q/8Jk6X/d84BpJbcB84Fxq53dukHQesAA4vc7nNrMKlT38Oazdai9qI5e6P7I+Ih7i5aOfbY6t9znNrHsoGwxfabe8GXgCjyTMrANlD3/e3OhGzKxnKHv487EdPR4RX83TTtesXbMrf/jtIXXX7/fF2UmvP3/qK5Pq9+yfNp/Kgsf3SKrXLluT6l+/W/1z2QD88ZpDk+qfuLD0R4F3aOu6tPr1kXZP7WG7P5VUP3d53XfKALDqffXPJ7Px0c6v5ujKuz9HADcX6+8A7gMeq7srM+uRyobKaOCwiFgDIOlS4NcRcVajGjOz1lR2/DcC2NhufSOdXEZvZn/fyo5UfgjcJ+kXxfopvHTzn5nZi8q++3OZpFuANxSbzo2ItFmPzaxH6srp7/7A6oi4ElgoKW0qejPrkcpOJ3kJcCFwcbGpL/DjRjVlZq2r7EjlncBk4HmAiHgaGNiopsysdZUNlY3FpxMGQDGpkpnZ3ygbKjdI+g4wuJhZ/07yTNhkZj3MTt/9kSTgeuBV1GbTPwD4TETc0eDezKwF7TRUiqkdfxMRhwAOEjPbobKHPw9IOqKhnZhZj1D2itqjgLMkPUHtHSBRG8S8ulGNmVlr2mGoSHplRDwJvL1J/ZhZi9vZSOWX1O5OXiDpZxFxahN6MrMWtrNQUbvlej6Oo6Gib7B51Ia66+d8dXzS6/daWPc0vQA8OH//pPqDJj2RVD9/+bCk+oG90j7Mbf67ByXV7zY9qZzV+6V9bNQj68ck1T/wXFq97hmcVB97JUzStanz07E7O1EbnSybmXVoZ//VvkbSamojll2LZXjpRG3afzVm1uPsMFQiEifhNLO/O2kz/5qZbcehYmZZOVTMLCuHipllVVmoSOot6UFJvyrWx0maIWmepOuLD283sxZT5UjlI8CcdutfAK6IiP2AZ4HzKunKzJJUEiqSRgMnAt8r1gW8Bbix2GUatY8BMbMWU9VI5WvAJ4Bt1wkPA1ZFxLYPd10IjOqoUNIUSTMlzdyy5vmGN2pmXdP0UJF0EvBMRNxfT31ETI2IiRExsfdAT5Vr1t2k3RFXn2OAyZJOAPoBg4Arqc1/26cYrYwGFlXQm5klavpIJSIujojRETEWOAP4bUS8B5gOnFbsdg5wU7N7M7N03ek6lQuBj0maR+0cy1UV92Nmdaji8OdFEXE3cHexPB84ssp+zCxdpaGSbKtgbd+6y3tt0M532oHdnkob6A2dsymp/vnDE68PfCht5oo1h/ZLqu+979qk+lX9+yfVa2va3/9f141Mqp99e9okXRtHJkyyBOz/38/UXbtiWee/u93p8MfMegCHipll5VAxs6wcKmaWlUPFzLJyqJhZVg4VM8vKoWJmWTlUzCwrh4qZZeVQMbOsHCpmlpVDxcyycqiYWVYOFTPLyqFiZlm19CRN6rOVvsPX1V2/76fTJgl69LNpkxxtaUubZGj41/ZMqt/8+kiqv2ftAUn1J+wzK6n+9hmTkur7vJBUziOv3iupftDR9U+SBLB0wdCk+idPfUXdtRu/3/nkaB6pmFlWDhUzy8qhYmZZOVTMLCuHipll5VAxs6wcKmaWlUPFzLJyqJhZVk0PFUljJE2XNFvSLEkfKbYPlXSHpMeK70Oa3ZuZpatipLIZ+HhETAAmAR+SNAG4CLgrIsYDdxXrZtZimh4qEbE4Ih4oltcAc4BRwMnAtGK3acApze7NzNJVek5F0ljgUGAGMCIiFhcPLQFGVNWXmdWvslCRtBvwM+CCiFjd/rGICKDDW2glTZE0U9LMLaufb0KnZtYVlYSKpL7UAuWaiPh5sXmppJHF4yOBDu8Lj4ipETExIib2HjSgOQ2bWWmqDQqa+IKSqJ0zWRkRF7Tb/iVgRURcLukiYGhEfGJHzzXyoCFx7nVvrruXEX1X73ynHdhnl6VJ9R/+7dlJ9WceMSOp/tanDkyqj9uGJdV//qNXJ9V//Npzk+o37bM+qb7v/H5J9aNetyipfmDfDUn1/7n3L+quPf2kZcz680Z19FgVkzQdA5wNPCLpoWLbJ4HLgRsknQcsAE6voDczS9T0UImIe4AOEw44tpm9mFl+vqLWzLJyqJhZVg4VM8vKoWJmWTlUzCwrh4qZZeVQMbOsHCpmlpVDxcyycqiYWVYOFTPLyqFiZlk5VMwsK4eKmWVVxXwq2QzotYGJAx6vu/6QtiUZu+m6vccuS6oftcuzSfXrNrQl1W8ZlTbB18+XT0yq321BUjnDPvNgUv2jU49Iql+2Nm3mwqPH1v+7D3BgW/+6a3dV5+MRj1TMLCuHipll5VAxs6wcKmaWlUPFzLJyqJhZVg4VM8vKoWJmWTlUzCwrh4qZZeVQMbOsHCpmlpVDxcyy6nahIuk4SXMlzZN0UdX9mFnXdKtQkdQb+CZwPDABOFPShGq7MrOu6FahAhwJzIuI+RGxEfgJcHLFPZlZFygibaKdnCSdBhwXEf9crJ8NHBURH263zxRgSrF6ADC36Y3WZziwvOom6uTeq9Gde987Ivbo6IGWm/ktIqYCU6vuo6skzYyItKnOKuLeq9GqvXe3w59FwJh266OLbWbWIrpbqPwJGC9pnKQ24Azg5op7MrMu6FaHPxGxWdKHgduA3sDVETGr4rZyablDtnbcezVasvdudaLWzFpfdzv8MbMW51Axs6wcKpnt7DYDSR+TNFvSnyXdJWnvKvrsSNlbJCSdKikkdZu3O8v0Lun04mc/S9K1ze6xMyV+Z14pabqkB4vfmxOq6LO0iPBXpi9qJ5f/D9gHaAMeBiZst8+bgf7F8geA66vuu2zvxX4Dgd8D9wITq+67Cz/38cCDwJBifc+q++5C71OBDxTLE4Anqu57R18eqeS109sMImJ6RLxQrN5L7Vqc7qDsLRL/AXwBWN/M5naiTO/vB74ZEc8CRMQzTe6xM2V6D2BQsbw78HQT++syh0peo4Cn2q0vLLZ15jzgloZ2VN5Oe5d0GDAmIn7dzMZKKPNz3x/YX9L/SrpX0nFN627HyvR+KXCWpIXAb4Dzm9NafbrVdSp/TySdBUwE3lh1L2VI6gV8FXhfxa3Uqw+1Q6A3URsd/l7SIRGxqsqmSjoT+EFEfEXS0cCPJB0cEVurbqwjHqnkVeo2A0lvBT4FTI6IDU3qbWd21vtA4GDgbklPAJOAm7vJydoyP/eFwM0RsSkiHgcepRYyVSvT+3nADQAR8UegH7WbDbunqk/q9KQvav8bzgfG8dJJt4O22+dQaifmxlfdb1d7327/u+k+J2rL/NyPA6YVy8OpHXIMa5HebwHeVywfSO2ciqruvbMvj1QyiojNwLbbDOYAN0TELEmfkzS52O1LwG7ATyU9JKlb3NtUsvduqWTvtwErJM0GpgP/HhErqun4JSV7/zjwfkkPA9dRC5hueym8L9M3s6w8UjGzrBwqZpaVQ8XMsnKomFlWDhUzy8qhYtlIGla8Tf6QpCWSFhXLayV9q+r+rDn8lrI1hKRLgbUR8eWqe7Hm8kjFGk7SmyT9qli+VNI0SX+QtEDSuyR9UdIjkm6V1LfY73BJv5N0v6TbJI2s9k9hZTlUrAr7Am8BJgM/BqZHxCHAOuDEIli+AZwWEYcDVwOXVdWsdY3vUrYq3BIRmyQ9Qm2SoluL7Y8AY6l98uTBwB2SKPZZXEGfVgeHilVhA0BEbJW0qd19LFup/U4KmBURR1fVoNXPhz/WHc0F9ijmDkFSX0kHVdyTleRQsW4natMqngZ8obgz9yHgdZU2ZaX5LWUzy8ojFTPLyqFiZlk5VMwsK4eKmWXlUDGzrBwqZpaVQ8XMsvp/4CZDLL5N3vEAAAAASUVORK5CYII=;" vertex="1" parent="1">
          <mxGeometry x="430" y="150" width="277" height="266" as="geometry" />
        </mxCell>
        <mxCell id="mzXIlhKpgWSKDu0hdf_g-7" value="" style="endArrow=none;dashed=1;html=1;dashPattern=1 3;strokeWidth=2;" edge="1" parent="1">
          <mxGeometry width="50" height="50" relative="1" as="geometry">
            <mxPoint x="720.29" y="140" as="sourcePoint" />
            <mxPoint x="770.29" y="90" as="targetPoint" />
          </mxGeometry>
        </mxCell>
        <mxCell id="mzXIlhKpgWSKDu0hdf_g-9" value="" style="endArrow=none;dashed=1;html=1;dashPattern=1 3;strokeWidth=2;" edge="1" parent="1">
          <mxGeometry width="50" height="50" relative="1" as="geometry">
            <mxPoint x="720" y="360" as="sourcePoint" />
            <mxPoint x="770" y="310" as="targetPoint" />
          </mxGeometry>
        </mxCell>
        <mxCell id="mzXIlhKpgWSKDu0hdf_g-10" value="" style="endArrow=none;dashed=1;html=1;dashPattern=1 3;strokeWidth=2;" edge="1" parent="1">
          <mxGeometry width="50" height="50" relative="1" as="geometry">
            <mxPoint x="500" y="140" as="sourcePoint" />
            <mxPoint x="550" y="90" as="targetPoint" />
          </mxGeometry>
        </mxCell>
        <mxCell id="mzXIlhKpgWSKDu0hdf_g-11" value="Channel" style="text;html=1;strokeColor=none;fillColor=none;align=center;verticalAlign=middle;whiteSpace=wrap;rounded=0;rotation=-50;" vertex="1" parent="1">
          <mxGeometry x="470" y="110" width="40" height="20" as="geometry" />
        </mxCell>
      </root>
    </mxGraphModel>
  </diagram>
</mxfile>
